<?xml version="1.0" encoding="UTF-8" standalone="no"?><svg xmlns="http://www.w3.org/2000/svg" xmlns:xlink="http://www.w3.org/1999/xlink" contentScriptType="application/ecmascript" contentStyleType="text/css" height="498px" preserveAspectRatio="none" style="width:1449px;height:498px;background:#FEFEFE;" version="1.1" viewBox="0 0 1449 498" width="1449px" zoomAndPan="magnify"><defs><filter height="300%" id="fvjwovh1f3nz3" width="300%" x="-1" y="-1"><feGaussianBlur result="blurOut" stdDeviation="2.0"/><feColorMatrix in="blurOut" result="blurOut2" type="matrix" values="0 0 0 0 0 0 0 0 0 0 0 0 0 0 0 0 0 0 .4 0"/><feOffset dx="4.0" dy="4.0" in="blurOut2" result="blurOut3"/><feBlend in="SourceGraphic" in2="blurOut3" mode="normal"/></filter></defs><g><!--MD5=[fb2f2a2c990914354c7627e515f98e4a]
cluster Digital Twin App Server--><rect fill="#FEFEFE" filter="url(#fvjwovh1f3nz3)" height="198" style="stroke: #000000; stroke-width: 1.5;" width="1416" x="22" y="117"/><rect fill="#FEFEFE" height="10" style="stroke: #000000; stroke-width: 1.5;" width="15" x="1418" y="122"/><rect fill="#FEFEFE" height="2" style="stroke: #000000; stroke-width: 1.5;" width="4" x="1416" y="124"/><rect fill="#FEFEFE" height="2" style="stroke: #000000; stroke-width: 1.5;" width="4" x="1416" y="128"/><text fill="#000000" font-family="sans-serif" font-size="14" font-weight="bold" lengthAdjust="spacingAndGlyphs" textLength="185" x="637.5" y="142.9951">Digital Twin App Server</text><!--MD5=[9861616dac34fded83e93d75162ff393]
cluster Digital Twin Graph Service--><rect fill="#FEFEFE" filter="url(#fvjwovh1f3nz3)" height="115" style="stroke: #000000; stroke-width: 1.5;" width="456" x="950" y="168"/><rect fill="#FEFEFE" height="10" style="stroke: #000000; stroke-width: 1.5;" width="15" x="1386" y="173"/><rect fill="#FEFEFE" height="2" style="stroke: #000000; stroke-width: 1.5;" width="4" x="1384" y="175"/><rect fill="#FEFEFE" height="2" style="stroke: #000000; stroke-width: 1.5;" width="4" x="1384" y="179"/><text fill="#000000" font-family="sans-serif" font-size="14" font-weight="bold" lengthAdjust="spacingAndGlyphs" textLength="208" x="1074" y="193.9951">Digital Twin Graph Service</text><!--MD5=[34914211fafdd2dcca103012e8fea314]
cluster Digital Twin Registry Service--><rect fill="#FEFEFE" filter="url(#fvjwovh1f3nz3)" height="99" style="stroke: #000000; stroke-width: 1.5;" width="250" x="596" y="176"/><rect fill="#FEFEFE" height="10" style="stroke: #000000; stroke-width: 1.5;" width="15" x="826" y="181"/><rect fill="#FEFEFE" height="2" style="stroke: #000000; stroke-width: 1.5;" width="4" x="824" y="183"/><rect fill="#FEFEFE" height="2" style="stroke: #000000; stroke-width: 1.5;" width="4" x="824" y="187"/><text fill="#000000" font-family="sans-serif" font-size="14" font-weight="bold" lengthAdjust="spacingAndGlyphs" textLength="225" x="608.5" y="201.9951">Digital Twin Registry Service</text><!--MD5=[4b57f58454accec5f0fbf67041e780c8]
cluster Invehicle Digital Twin Service--><rect fill="#FEFEFE" filter="url(#fvjwovh1f3nz3)" height="99" style="stroke: #000000; stroke-width: 1.5;" width="254" x="318" y="176"/><rect fill="#FEFEFE" height="10" style="stroke: #000000; stroke-width: 1.5;" width="15" x="552" y="181"/><rect fill="#FEFEFE" height="2" style="stroke: #000000; stroke-width: 1.5;" width="4" x="550" y="183"/><rect fill="#FEFEFE" height="2" style="stroke: #000000; stroke-width: 1.5;" width="4" x="550" y="187"/><text fill="#000000" font-family="sans-serif" font-size="14" font-weight="bold" lengthAdjust="spacingAndGlyphs" textLength="230" x="330" y="201.9951">Invehicle Digital Twin Service</text><!--MD5=[22cae69e02447ef417d8967d359ad6d4]
cluster Managed Subscribe Service--><rect fill="#FEFEFE" filter="url(#fvjwovh1f3nz3)" height="99" style="stroke: #000000; stroke-width: 1.5;" width="248" x="46" y="176"/><rect fill="#FEFEFE" height="10" style="stroke: #000000; stroke-width: 1.5;" width="15" x="274" y="181"/><rect fill="#FEFEFE" height="2" style="stroke: #000000; stroke-width: 1.5;" width="4" x="272" y="183"/><rect fill="#FEFEFE" height="2" style="stroke: #000000; stroke-width: 1.5;" width="4" x="272" y="187"/><text fill="#000000" font-family="sans-serif" font-size="14" font-weight="bold" lengthAdjust="spacingAndGlyphs" textLength="219" x="60.5" y="201.9951">Managed Subscribe Service</text><!--MD5=[3157fe344b6ba3436840ee3c1c360e08]
cluster Digital Twin Provider--><rect fill="#FEFEFE" filter="url(#fvjwovh1f3nz3)" height="115" style="stroke: #000000; stroke-width: 1.5;" width="211" x="843" y="372"/><rect fill="#FEFEFE" height="10" style="stroke: #000000; stroke-width: 1.5;" width="15" x="1034" y="377"/><rect fill="#FEFEFE" height="2" style="stroke: #000000; stroke-width: 1.5;" width="4" x="1032" y="379"/><rect fill="#FEFEFE" height="2" style="stroke: #000000; stroke-width: 1.5;" width="4" x="1032" y="383"/><text fill="#000000" font-family="sans-serif" font-size="14" font-weight="bold" lengthAdjust="spacingAndGlyphs" textLength="163" x="867" y="397.9951">Digital Twin Provider</text><!--MD5=[a639a898a779bb7b6974e58510adeb4f]
entity Digital Twin Consumer--><rect fill="#FEFEFE" filter="url(#fvjwovh1f3nz3)" height="46.2969" style="stroke: #A80036; stroke-width: 1.5;" width="194" x="999" y="8"/><rect fill="#FEFEFE" height="10" style="stroke: #A80036; stroke-width: 1.5;" width="15" x="1173" y="13"/><rect fill="#FEFEFE" height="2" style="stroke: #A80036; stroke-width: 1.5;" width="4" x="1171" y="15"/><rect fill="#FEFEFE" height="2" style="stroke: #A80036; stroke-width: 1.5;" width="4" x="1171" y="19"/><text fill="#000000" font-family="sans-serif" font-size="14" lengthAdjust="spacingAndGlyphs" textLength="154" x="1014" y="40.9951">Digital Twin Consumer</text><!--MD5=[6b725513a152e4a1cdcc581deaae41ce]
class Digital Twin Graph Interface--><rect fill="#FEFECE" filter="url(#fvjwovh1f3nz3)" height="48" id="Digital Twin Graph Interface" style="stroke: #A80036; stroke-width: 1.5;" width="206" x="993" y="211"/><ellipse cx="1008" cy="227" fill="#B4A7E5" rx="11" ry="11" style="stroke: #A80036; stroke-width: 1.0;"/><path d="M1003.9219,222.7656 L1003.9219,220.6094 L1011.3125,220.6094 L1011.3125,222.7656 L1008.8438,222.7656 L1008.8438,230.8438 L1011.3125,230.8438 L1011.3125,233 L1003.9219,233 L1003.9219,230.8438 L1006.3906,230.8438 L1006.3906,222.7656 L1003.9219,222.7656 Z "/><text fill="#000000" font-family="sans-serif" font-size="12" font-style="italic" lengthAdjust="spacingAndGlyphs" textLength="174" x="1022" y="231.1543">Digital Twin Graph Interface</text><line style="stroke: #A80036; stroke-width: 1.5;" x1="994" x2="1198" y1="243" y2="243"/><line style="stroke: #A80036; stroke-width: 1.5;" x1="994" x2="1198" y1="251" y2="251"/><!--MD5=[763bb05798a6568d6989d7816b151ec0]
class Respond Interface--><rect fill="#FEFECE" filter="url(#fvjwovh1f3nz3)" height="48" id="Respond Interface" style="stroke: #A80036; stroke-width: 1.5;" width="147" x="1234.5" y="211"/><ellipse cx="1249.5" cy="227" fill="#B4A7E5" rx="11" ry="11" style="stroke: #A80036; stroke-width: 1.0;"/><path d="M1245.4219,222.7656 L1245.4219,220.6094 L1252.8125,220.6094 L1252.8125,222.7656 L1250.3438,222.7656 L1250.3438,230.8438 L1252.8125,230.8438 L1252.8125,233 L1245.4219,233 L1245.4219,230.8438 L1247.8906,230.8438 L1247.8906,222.7656 L1245.4219,222.7656 Z "/><text fill="#000000" font-family="sans-serif" font-size="12" font-style="italic" lengthAdjust="spacingAndGlyphs" textLength="115" x="1263.5" y="231.1543">Respond Interface</text><line style="stroke: #A80036; stroke-width: 1.5;" x1="1235.5" x2="1380.5" y1="243" y2="243"/><line style="stroke: #A80036; stroke-width: 1.5;" x1="1235.5" x2="1380.5" y1="251" y2="251"/><!--MD5=[8528358a5726e5ab3db87e582938be86]
class Digital Twin Registry Interface--><rect fill="#FEFECE" filter="url(#fvjwovh1f3nz3)" height="48" id="Digital Twin Registry Interface" style="stroke: #A80036; stroke-width: 1.5;" width="218" x="612" y="211"/><ellipse cx="627" cy="227" fill="#B4A7E5" rx="11" ry="11" style="stroke: #A80036; stroke-width: 1.0;"/><path d="M622.9219,222.7656 L622.9219,220.6094 L630.3125,220.6094 L630.3125,222.7656 L627.8438,222.7656 L627.8438,230.8438 L630.3125,230.8438 L630.3125,233 L622.9219,233 L622.9219,230.8438 L625.3906,230.8438 L625.3906,222.7656 L622.9219,222.7656 Z "/><text fill="#000000" font-family="sans-serif" font-size="12" font-style="italic" lengthAdjust="spacingAndGlyphs" textLength="186" x="641" y="231.1543">Digital Twin Registry Interface</text><line style="stroke: #A80036; stroke-width: 1.5;" x1="613" x2="829" y1="243" y2="243"/><line style="stroke: #A80036; stroke-width: 1.5;" x1="613" x2="829" y1="251" y2="251"/><!--MD5=[63b7fe651608f02fecf83b2a00a6fe72]
class Invehicle Digital Twin Interface--><rect fill="#FEFECE" filter="url(#fvjwovh1f3nz3)" height="48" id="Invehicle Digital Twin Interface" style="stroke: #A80036; stroke-width: 1.5;" width="223" x="333.5" y="211"/><ellipse cx="348.5" cy="227" fill="#B4A7E5" rx="11" ry="11" style="stroke: #A80036; stroke-width: 1.0;"/><path d="M344.4219,222.7656 L344.4219,220.6094 L351.8125,220.6094 L351.8125,222.7656 L349.3438,222.7656 L349.3438,230.8438 L351.8125,230.8438 L351.8125,233 L344.4219,233 L344.4219,230.8438 L346.8906,230.8438 L346.8906,222.7656 L344.4219,222.7656 Z "/><text fill="#000000" font-family="sans-serif" font-size="12" font-style="italic" lengthAdjust="spacingAndGlyphs" textLength="191" x="362.5" y="231.1543">Invehicle Digital Twin Interface</text><line style="stroke: #A80036; stroke-width: 1.5;" x1="334.5" x2="555.5" y1="243" y2="243"/><line style="stroke: #A80036; stroke-width: 1.5;" x1="334.5" x2="555.5" y1="251" y2="251"/><!--MD5=[7437a05a1c01d6c391f2d8bc33c07fc7]
class Managed Subscribe Interface--><rect fill="#FEFECE" filter="url(#fvjwovh1f3nz3)" height="48" id="Managed Subscribe Interface" style="stroke: #A80036; stroke-width: 1.5;" width="216" x="62" y="211"/><ellipse cx="77" cy="227" fill="#B4A7E5" rx="11" ry="11" style="stroke: #A80036; stroke-width: 1.0;"/><path d="M72.9219,222.7656 L72.9219,220.6094 L80.3125,220.6094 L80.3125,222.7656 L77.8438,222.7656 L77.8438,230.8438 L80.3125,230.8438 L80.3125,233 L72.9219,233 L72.9219,230.8438 L75.3906,230.8438 L75.3906,222.7656 L72.9219,222.7656 Z "/><text fill="#000000" font-family="sans-serif" font-size="12" font-style="italic" lengthAdjust="spacingAndGlyphs" textLength="184" x="91" y="231.1543">Managed Subscribe Interface</text><line style="stroke: #A80036; stroke-width: 1.5;" x1="63" x2="277" y1="243" y2="243"/><line style="stroke: #A80036; stroke-width: 1.5;" x1="63" x2="277" y1="251" y2="251"/><!--MD5=[63cd1824203ae08aebbc42c178d6d8c8]
class Request Interface--><rect fill="#FEFECE" filter="url(#fvjwovh1f3nz3)" height="48" id="Request Interface" style="stroke: #A80036; stroke-width: 1.5;" width="144" x="886" y="415"/><ellipse cx="901" cy="431" fill="#B4A7E5" rx="11" ry="11" style="stroke: #A80036; stroke-width: 1.0;"/><path d="M896.9219,426.7656 L896.9219,424.6094 L904.3125,424.6094 L904.3125,426.7656 L901.8438,426.7656 L901.8438,434.8438 L904.3125,434.8438 L904.3125,437 L896.9219,437 L896.9219,434.8438 L899.3906,434.8438 L899.3906,426.7656 L896.9219,426.7656 Z "/><text fill="#000000" font-family="sans-serif" font-size="12" font-style="italic" lengthAdjust="spacingAndGlyphs" textLength="112" x="915" y="435.1543">Request Interface</text><line style="stroke: #A80036; stroke-width: 1.5;" x1="887" x2="1029" y1="447" y2="447"/><line style="stroke: #A80036; stroke-width: 1.5;" x1="887" x2="1029" y1="455" y2="455"/><!--MD5=[0ad823a5372af90e6251ae2b9198604c]
reverse link Digital Twin Registry Interface to Digital Twin Provider--><path d="M738.77,263.61 C756.28,290.815 783.725,333.46 807.0913,369.7688 C818.7744,387.9231 829.4378,404.4934 837.3298,416.7577 C839.3029,419.8237 841.1026,422.6206 842.7019,425.1059 C842.8018,425.2612 842.901,425.4153 842.9994,425.5682 " fill="none" id="Digital Twin Registry Interface&lt;-Digital Twin Provider" style="stroke: #A80036; stroke-width: 1.0;"/><polygon fill="#A80036" points="735.91,259.17,737.4121,268.9036,738.6138,263.3759,744.1415,264.5776,735.91,259.17" style="stroke: #A80036; stroke-width: 1.0;"/><text fill="#000000" font-family="sans-serif" font-size="13" lengthAdjust="spacingAndGlyphs" textLength="52" x="791" y="344.0669">Register</text><!--MD5=[af4f981d26f217f9628fd3f214b9e632]
link Digital Twin Consumer to Digital Twin Graph Interface--><path d="M1096,54 C1096,90.8 1096,164.78 1096,205.51 " fill="none" id="Digital Twin Consumer-&gt;Digital Twin Graph Interface" style="stroke: #A80036; stroke-width: 1.0;"/><polygon fill="#A80036" points="1096,210.78,1100,201.78,1096,205.78,1092,201.78,1096,210.78" style="stroke: #A80036; stroke-width: 1.0;"/><text fill="#000000" font-family="sans-serif" font-size="13" lengthAdjust="spacingAndGlyphs" textLength="124" x="1097" y="97.0669">Find/Get/Set/Invoke</text><!--MD5=[627f376b592b1cd205f9ce7cd99503ce]
reverse link Digital Twin Registry Interface to Digital Twin Graph Service--><path d="M835.35,235 C864.19,235 893.3575,235 916.0088,235 C927.3344,235 937.0309,235 944.243,235 C946.046,235 947.6937,235 949.1728,235 C949.3577,235 949.5399,235 949.7195,235 C949.8093,235 949.8984,235 949.9869,235 " fill="none" id="Digital Twin Registry Interface&lt;-Digital Twin Graph Service" style="stroke: #A80036; stroke-width: 1.0;"/><polygon fill="#A80036" points="830.14,235,839.14,239,835.14,235,839.14,231,830.14,235" style="stroke: #A80036; stroke-width: 1.0;"/><text fill="#000000" font-family="sans-serif" font-size="13" lengthAdjust="spacingAndGlyphs" textLength="91" x="848.32" y="228.0669">FindByModelId</text><!--MD5=[a0683c5888b64d198a58c14b838ed55d]
link Digital Twin Graph Service to Request Interface--><path d="M958,283.2285 C958,283.7374 958,284.249 958,284.763 C958,286.8192 958,288.9152 958,291.0459 C958,295.3073 958,299.7075 958,304.205 C958,340.185 958,382.395 958,409.64 " fill="none" id="Digital Twin Graph Service-&gt;Request Interface" style="stroke: #A80036; stroke-width: 1.0;"/><polygon fill="#A80036" points="958,414.72,962,405.72,958,409.72,954,405.72,958,414.72" style="stroke: #A80036; stroke-width: 1.0;"/><text fill="#000000" font-family="sans-serif" font-size="13" lengthAdjust="spacingAndGlyphs" textLength="23" x="959" y="344.0669">Ask</text><!--MD5=[4faef57757b0e4c834d5ab4253b366fa]
reverse link Respond Interface to Digital Twin Provider--><path d="M1287.82,263.2 C1271.21,283.36 1245.78,309.57 1217,323 C1125.42,365.73 1091.67,339.11 991,348 C977.58,349.19 880.27,347.27 870,356 C866.5487,358.9338 863.6547,362.3594 861.2335,366.1147 C860.0229,367.9924 858.9305,369.9525 857.9458,371.9748 " fill="none" id="Respond Interface&lt;-Digital Twin Provider" style="stroke: #A80036; stroke-width: 1.0;"/><polygon fill="#A80036" points="1291.02,259.25,1282.2402,263.7127,1287.867,263.1306,1288.4491,268.7574,1291.02,259.25" style="stroke: #A80036; stroke-width: 1.0;"/><text fill="#000000" font-family="sans-serif" font-size="13" lengthAdjust="spacingAndGlyphs" textLength="46" x="1197" y="344.0669">Answer</text><!--MD5=[f01ce11069605b56c3979e8d78f51c8c]
@startuml
skinparamlocked backgroundColor fefefe

component "Digital Twin Consumer" {
}

component "Digital Twin App Server" {
  component "Digital Twin Graph Service" {
    interface "Digital Twin Graph Interface"
    interface "Respond Interface"
  }
  component "Digital Twin Registry Service" {
    interface "Digital Twin Registry Interface"
  }
  component "Invehicle Digital Twin Service" {
    interface "Invehicle Digital Twin Interface"
  }
  component "Managed Subscribe Service" {
    interface "Managed Subscribe Interface"
  }
}

component "Digital Twin Provider" {
  interface "Request Interface"
}

"Digital Twin Provider" -up-> "Digital Twin Registry Interface" : Register

"Digital Twin Consumer" -down-> "Digital Twin Graph Interface" : Find/Get/Set/Invoke

"Digital Twin Graph Service" -left-> "Digital Twin Registry Interface": FindByModelId

"Digital Twin Graph Service" -down-> "Request Interface": Ask

"Digital Twin Provider" -up-> "Respond Interface": Answer

@enduml

PlantUML version 1.2020.02(Sun Mar 01 10:22:07 UTC 2020)
(GPL source distribution)
Java Runtime: OpenJDK Runtime Environment
JVM: OpenJDK 64-Bit Server VM
Java Version: 11.0.22+7
Operating System: Linux
Default Encoding: UTF-8
Language: en
Country: null
--></g></svg>