<?xml version="1.0" encoding="UTF-8" standalone="no"?><svg xmlns="http://www.w3.org/2000/svg" xmlns:xlink="http://www.w3.org/1999/xlink" contentScriptType="application/ecmascript" contentStyleType="text/css" height="435px" preserveAspectRatio="none" style="width:852px;height:435px;background:#FEFEFE;" version="1.1" viewBox="0 0 852 435" width="852px" zoomAndPan="magnify"><defs><filter height="300%" id="f16cgfvo9mjj1c" width="300%" x="-1" y="-1"><feGaussianBlur result="blurOut" stdDeviation="2.0"/><feColorMatrix in="blurOut" result="blurOut2" type="matrix" values="0 0 0 0 0 0 0 0 0 0 0 0 0 0 0 0 0 0 .4 0"/><feOffset dx="4.0" dy="4.0" in="blurOut2" result="blurOut3"/><feBlend in="SourceGraphic" in2="blurOut3" mode="normal"/></filter></defs><g><!--MD5=[fb2f2a2c990914354c7627e515f98e4a]
cluster Digital Twin App Server--><rect fill="#FEFEFE" filter="url(#f16cgfvo9mjj1c)" height="400" style="stroke: #000000; stroke-width: 1.5;" width="520" x="22" y="24"/><rect fill="#FEFEFE" height="10" style="stroke: #000000; stroke-width: 1.5;" width="15" x="522" y="29"/><rect fill="#FEFEFE" height="2" style="stroke: #000000; stroke-width: 1.5;" width="4" x="520" y="31"/><rect fill="#FEFEFE" height="2" style="stroke: #000000; stroke-width: 1.5;" width="4" x="520" y="35"/><text fill="#000000" font-family="sans-serif" font-size="14" font-weight="bold" lengthAdjust="spacingAndGlyphs" textLength="185" x="189.5" y="49.9951">Digital Twin App Server</text><!--MD5=[9861616dac34fded83e93d75162ff393]
cluster Digital Twin Graph Service--><rect fill="#FEFEFE" filter="url(#f16cgfvo9mjj1c)" height="134" style="stroke: #000000; stroke-width: 1.5;" width="456" x="54" y="75"/><rect fill="#FEFEFE" height="10" style="stroke: #000000; stroke-width: 1.5;" width="15" x="490" y="80"/><rect fill="#FEFEFE" height="2" style="stroke: #000000; stroke-width: 1.5;" width="4" x="488" y="82"/><rect fill="#FEFEFE" height="2" style="stroke: #000000; stroke-width: 1.5;" width="4" x="488" y="86"/><text fill="#000000" font-family="sans-serif" font-size="14" font-weight="bold" lengthAdjust="spacingAndGlyphs" textLength="208" x="178" y="100.9951">Digital Twin Graph Service</text><!--MD5=[34914211fafdd2dcca103012e8fea314]
cluster Digital Twin Registry Service--><rect fill="#FEFEFE" filter="url(#f16cgfvo9mjj1c)" height="118" style="stroke: #000000; stroke-width: 1.5;" width="250" x="268" y="282"/><rect fill="#FEFEFE" height="10" style="stroke: #000000; stroke-width: 1.5;" width="15" x="498" y="287"/><rect fill="#FEFEFE" height="2" style="stroke: #000000; stroke-width: 1.5;" width="4" x="496" y="289"/><rect fill="#FEFEFE" height="2" style="stroke: #000000; stroke-width: 1.5;" width="4" x="496" y="293"/><text fill="#000000" font-family="sans-serif" font-size="14" font-weight="bold" lengthAdjust="spacingAndGlyphs" textLength="225" x="280.5" y="307.9951">Digital Twin Registry Service</text><!--MD5=[3157fe344b6ba3436840ee3c1c360e08]
cluster Digital Twin Provider--><rect fill="#FEFEFE" filter="url(#f16cgfvo9mjj1c)" height="134" style="stroke: #000000; stroke-width: 1.5;" width="211" x="574" y="274"/><rect fill="#FEFEFE" height="10" style="stroke: #000000; stroke-width: 1.5;" width="15" x="765" y="279"/><rect fill="#FEFEFE" height="2" style="stroke: #000000; stroke-width: 1.5;" width="4" x="763" y="281"/><rect fill="#FEFEFE" height="2" style="stroke: #000000; stroke-width: 1.5;" width="4" x="763" y="285"/><text fill="#000000" font-family="sans-serif" font-size="14" font-weight="bold" lengthAdjust="spacingAndGlyphs" textLength="163" x="598" y="299.9951">Digital Twin Provider</text><!--MD5=[a639a898a779bb7b6974e58510adeb4f]
entity Digital Twin Consumer--><rect fill="#FEFEFE" filter="url(#f16cgfvo9mjj1c)" height="46.2969" style="stroke: #A80036; stroke-width: 1.5;" width="194" x="647" y="138"/><rect fill="#FEFEFE" height="10" style="stroke: #A80036; stroke-width: 1.5;" width="15" x="821" y="143"/><rect fill="#FEFEFE" height="2" style="stroke: #A80036; stroke-width: 1.5;" width="4" x="819" y="145"/><rect fill="#FEFEFE" height="2" style="stroke: #A80036; stroke-width: 1.5;" width="4" x="819" y="149"/><text fill="#000000" font-family="sans-serif" font-size="14" lengthAdjust="spacingAndGlyphs" textLength="154" x="662" y="170.9951">Digital Twin Consumer</text><!--MD5=[6b725513a152e4a1cdcc581deaae41ce]
class Digital Twin Graph Interface--><rect fill="#FEFECE" filter="url(#f16cgfvo9mjj1c)" height="48" id="Digital Twin Graph Interface" style="stroke: #A80036; stroke-width: 1.5;" width="206" x="280" y="137"/><ellipse cx="295" cy="153" fill="#B4A7E5" rx="11" ry="11" style="stroke: #A80036; stroke-width: 1.0;"/><path d="M290.9219,148.7656 L290.9219,146.6094 L298.3125,146.6094 L298.3125,148.7656 L295.8438,148.7656 L295.8438,156.8438 L298.3125,156.8438 L298.3125,159 L290.9219,159 L290.9219,156.8438 L293.3906,156.8438 L293.3906,148.7656 L290.9219,148.7656 Z "/><text fill="#000000" font-family="sans-serif" font-size="12" font-style="italic" lengthAdjust="spacingAndGlyphs" textLength="174" x="309" y="157.1543">Digital Twin Graph Interface</text><line style="stroke: #A80036; stroke-width: 1.5;" x1="281" x2="485" y1="169" y2="169"/><line style="stroke: #A80036; stroke-width: 1.5;" x1="281" x2="485" y1="177" y2="177"/><!--MD5=[763bb05798a6568d6989d7816b151ec0]
class Respond Interface--><rect fill="#FEFECE" filter="url(#f16cgfvo9mjj1c)" height="48" id="Respond Interface" style="stroke: #A80036; stroke-width: 1.5;" width="147" x="97.5" y="137"/><ellipse cx="112.5" cy="153" fill="#B4A7E5" rx="11" ry="11" style="stroke: #A80036; stroke-width: 1.0;"/><path d="M108.4219,148.7656 L108.4219,146.6094 L115.8125,146.6094 L115.8125,148.7656 L113.3438,148.7656 L113.3438,156.8438 L115.8125,156.8438 L115.8125,159 L108.4219,159 L108.4219,156.8438 L110.8906,156.8438 L110.8906,148.7656 L108.4219,148.7656 Z "/><text fill="#000000" font-family="sans-serif" font-size="12" font-style="italic" lengthAdjust="spacingAndGlyphs" textLength="115" x="126.5" y="157.1543">Respond Interface</text><line style="stroke: #A80036; stroke-width: 1.5;" x1="98.5" x2="243.5" y1="169" y2="169"/><line style="stroke: #A80036; stroke-width: 1.5;" x1="98.5" x2="243.5" y1="177" y2="177"/><!--MD5=[8528358a5726e5ab3db87e582938be86]
class Digital Twin Registry Interface--><rect fill="#FEFECE" filter="url(#f16cgfvo9mjj1c)" height="48" id="Digital Twin Registry Interface" style="stroke: #A80036; stroke-width: 1.5;" width="218" x="284" y="336"/><ellipse cx="299" cy="352" fill="#B4A7E5" rx="11" ry="11" style="stroke: #A80036; stroke-width: 1.0;"/><path d="M294.9219,347.7656 L294.9219,345.6094 L302.3125,345.6094 L302.3125,347.7656 L299.8438,347.7656 L299.8438,355.8438 L302.3125,355.8438 L302.3125,358 L294.9219,358 L294.9219,355.8438 L297.3906,355.8438 L297.3906,347.7656 L294.9219,347.7656 Z "/><text fill="#000000" font-family="sans-serif" font-size="12" font-style="italic" lengthAdjust="spacingAndGlyphs" textLength="186" x="313" y="356.1543">Digital Twin Registry Interface</text><line style="stroke: #A80036; stroke-width: 1.5;" x1="285" x2="501" y1="368" y2="368"/><line style="stroke: #A80036; stroke-width: 1.5;" x1="285" x2="501" y1="376" y2="376"/><!--MD5=[63cd1824203ae08aebbc42c178d6d8c8]
class Request Interface--><rect fill="#FEFECE" filter="url(#f16cgfvo9mjj1c)" height="48" id="Request Interface" style="stroke: #A80036; stroke-width: 1.5;" width="144" x="598" y="336"/><ellipse cx="613" cy="352" fill="#B4A7E5" rx="11" ry="11" style="stroke: #A80036; stroke-width: 1.0;"/><path d="M608.9219,347.7656 L608.9219,345.6094 L616.3125,345.6094 L616.3125,347.7656 L613.8438,347.7656 L613.8438,355.8438 L616.3125,355.8438 L616.3125,358 L608.9219,358 L608.9219,355.8438 L611.3906,355.8438 L611.3906,347.7656 L608.9219,347.7656 Z "/><text fill="#000000" font-family="sans-serif" font-size="12" font-style="italic" lengthAdjust="spacingAndGlyphs" textLength="112" x="627" y="356.1543">Request Interface</text><line style="stroke: #A80036; stroke-width: 1.5;" x1="599" x2="741" y1="368" y2="368"/><line style="stroke: #A80036; stroke-width: 1.5;" x1="599" x2="741" y1="376" y2="376"/><!--MD5=[0ad823a5372af90e6251ae2b9198604c]
reverse link Digital Twin Registry Interface to Digital Twin Provider--><path d="M417.04,331.74 C440.39,306.66 478.35,271.77 520,257 C546.42,247.63 720.68,226.82 758,258 C762.2163,261.5225 765.6975,265.6534 768.559,270.1978 C769.2744,271.3339 769.9511,272.4959 770.5908,273.6806 " fill="none" id="Digital Twin Registry Interface&lt;-Digital Twin Provider" style="stroke: #A80036; stroke-width: 1.0;"/><polygon fill="#A80036" points="413.42,335.68,422.4543,331.758,416.8025,331.9978,416.5627,326.346,413.42,335.68" style="stroke: #A80036; stroke-width: 1.0;"/><text fill="#000000" font-family="sans-serif" font-size="13" lengthAdjust="spacingAndGlyphs" textLength="52" x="521" y="246.0669">Register</text><!--MD5=[af4f981d26f217f9628fd3f214b9e632]
link Digital Twin Consumer to Digital Twin Graph Interface--><path d="M646.74,161 C598.81,161 540.86,161 491.5,161 " fill="none" id="Digital Twin Consumer-&gt;Digital Twin Graph Interface" style="stroke: #A80036; stroke-width: 1.0;"/><polygon fill="#A80036" points="486.45,161,495.45,165,491.45,161,495.45,157,486.45,161" style="stroke: #A80036; stroke-width: 1.0;"/><text fill="#000000" font-family="sans-serif" font-size="13" lengthAdjust="spacingAndGlyphs" textLength="124" x="504.5" y="154.0669">Find/Get/Set/Invoke</text><!--MD5=[5af5e3d3916b62a18f2b2dafc18acff8]
link Digital Twin Graph Service to Digital Twin Registry Interface--><path d="M71.1109,209.0999 C71.4723,209.9264 71.848,210.747 72.2386,211.5598 C73.0198,213.1856 73.8606,214.7807 74.7654,216.3316 C76.5752,219.4334 78.6413,222.3588 81,225 C132.29,282.42 212.44,316.13 278.67,335.37 " fill="none" id="Digital Twin Graph Service-&gt;Digital Twin Registry Interface" style="stroke: #A80036; stroke-width: 1.0;"/><polygon fill="#A80036" points="283.81,336.85,276.2726,330.5107,279.0062,335.4632,274.0537,338.1968,283.81,336.85" style="stroke: #A80036; stroke-width: 1.0;"/><text fill="#000000" font-family="sans-serif" font-size="13" lengthAdjust="spacingAndGlyphs" textLength="91" x="102" y="246.0669">FindByModelId</text><!--MD5=[a0683c5888b64d198a58c14b838ed55d]
link Digital Twin Graph Service to Request Interface--><path d="M68.8687,209.2558 C68.9151,209.3563 68.9618,209.4565 69.0088,209.5567 C69.1968,209.9571 69.3895,210.3551 69.5869,210.7502 C69.9818,211.5404 70.3959,212.3195 70.83,213.0852 C71.6982,214.6168 72.6466,216.0953 73.6822,217.5046 C75.7534,220.3233 78.1738,222.865 81,225 C103.21,241.78 557.42,219.93 582,233 C621.25,253.86 646.68,300.93 659.66,331.26 " fill="none" id="Digital Twin Graph Service-&gt;Request Interface" style="stroke: #A80036; stroke-width: 1.0;"/><polygon fill="#A80036" points="661.63,335.98,661.85,326.1336,659.7019,331.3667,654.4687,329.2186,661.63,335.98" style="stroke: #A80036; stroke-width: 1.0;"/><text fill="#000000" font-family="sans-serif" font-size="13" lengthAdjust="spacingAndGlyphs" textLength="23" x="606" y="246.0669">Ask</text><!--MD5=[4faef57757b0e4c834d5ab4253b366fa]
reverse link Respond Interface to Digital Twin Provider--><path d="M199.99,188.69 C216.78,202.34 239.07,217.6 262,225 C306.63,239.41 637.8,224.96 684,233 C718.2,238.95 735.23,231.8 758,258 C761.6863,262.2425 764.753,266.9702 767.2968,271.9993 C767.6148,272.628 767.9246,273.2613 768.2264,273.8991 " fill="none" id="Respond Interface&lt;-Digital Twin Provider" style="stroke: #A80036; stroke-width: 1.0;"/><polygon fill="#A80036" points="195.85,185.26,200.2259,194.0833,199.6993,188.4511,205.3316,187.9245,195.85,185.26" style="stroke: #A80036; stroke-width: 1.0;"/><text fill="#000000" font-family="sans-serif" font-size="13" lengthAdjust="spacingAndGlyphs" textLength="46" x="751" y="246.0669">Answer</text><!--MD5=[54ac60f6857d8c34e6a8bc4b3f0ac068]
@startuml
skinparamlocked backgroundColor fefefe

component "Digital Twin Consumer" {
}

component "Digital Twin App Server" {
  component "Digital Twin Graph Service" {
    interface "Digital Twin Graph Interface"
    interface "Respond Interface" 
  }
  component "Digital Twin Registry Service" {
    interface "Digital Twin Registry Interface"
  }
}

component "Digital Twin Provider" {
  interface "Request Interface"
}

"Digital Twin Provider" -left-> "Digital Twin Registry Interface" : Register

"Digital Twin Consumer" -right-> "Digital Twin Graph Interface" : Find/Get/Set/Invoke

"Digital Twin Graph Service" -down-> "Digital Twin Registry Interface": FindByModelId

"Digital Twin Graph Service" -right-> "Request Interface": Ask

"Digital Twin Provider" -left-> "Respond Interface": Answer

@enduml

PlantUML version 1.2020.02(Sun Mar 01 10:22:07 UTC 2020)
(GPL source distribution)
Java Runtime: OpenJDK Runtime Environment
JVM: OpenJDK 64-Bit Server VM
Java Version: 11.0.22+7
Operating System: Linux
Default Encoding: UTF-8
Language: en
Country: null
--></g></svg>