<?xml version="1.0" encoding="UTF-8" standalone="no"?><svg xmlns="http://www.w3.org/2000/svg" xmlns:xlink="http://www.w3.org/1999/xlink" contentScriptType="application/ecmascript" contentStyleType="text/css" height="362px" preserveAspectRatio="none" style="width:1073px;height:362px;" version="1.1" viewBox="0 0 1073 362" width="1073px" zoomAndPan="magnify"><defs><filter height="300%" id="fautk7t4kv9wd" width="300%" x="-1" y="-1"><feGaussianBlur result="blurOut" stdDeviation="2.0"/><feColorMatrix in="blurOut" result="blurOut2" type="matrix" values="0 0 0 0 0 0 0 0 0 0 0 0 0 0 0 0 0 0 .4 0"/><feOffset dx="4.0" dy="4.0" in="blurOut2" result="blurOut3"/><feBlend in="SourceGraphic" in2="blurOut3" mode="normal"/></filter></defs><g><rect fill="#FFFFFF" filter="url(#fautk7t4kv9wd)" height="133.6641" style="stroke: #000000; stroke-width: 2.0;" width="723" x="339" y="142.6953"/><line style="stroke: #A80036; stroke-width: 1.0; stroke-dasharray: 5.0,5.0;" x1="94" x2="94" y1="38.2969" y2="322.4922"/><line style="stroke: #A80036; stroke-width: 1.0; stroke-dasharray: 5.0,5.0;" x1="420" x2="420" y1="38.2969" y2="322.4922"/><line style="stroke: #A80036; stroke-width: 1.0; stroke-dasharray: 5.0,5.0;" x1="808" x2="808" y1="38.2969" y2="322.4922"/><line style="stroke: #A80036; stroke-width: 1.0; stroke-dasharray: 5.0,5.0;" x1="974" x2="974" y1="38.2969" y2="322.4922"/><rect fill="#FEFECE" filter="url(#fautk7t4kv9wd)" height="30.2969" style="stroke: #A80036; stroke-width: 1.5;" width="168" x="8" y="3"/><text fill="#000000" font-family="sans-serif" font-size="14" lengthAdjust="spacingAndGlyphs" textLength="154" x="15" y="22.9951">Digital Twin Consumer</text><rect fill="#FEFECE" filter="url(#fautk7t4kv9wd)" height="30.2969" style="stroke: #A80036; stroke-width: 1.5;" width="168" x="8" y="321.4922"/><text fill="#000000" font-family="sans-serif" font-size="14" lengthAdjust="spacingAndGlyphs" textLength="154" x="15" y="341.4873">Digital Twin Consumer</text><rect fill="#FEFECE" filter="url(#fautk7t4kv9wd)" height="30.2969" style="stroke: #A80036; stroke-width: 1.5;" width="138" x="349" y="3"/><text fill="#000000" font-family="sans-serif" font-size="14" lengthAdjust="spacingAndGlyphs" textLength="124" x="356" y="22.9951">Digital Twin Graph</text><rect fill="#FEFECE" filter="url(#fautk7t4kv9wd)" height="30.2969" style="stroke: #A80036; stroke-width: 1.5;" width="138" x="349" y="321.4922"/><text fill="#000000" font-family="sans-serif" font-size="14" lengthAdjust="spacingAndGlyphs" textLength="124" x="356" y="341.4873">Digital Twin Graph</text><rect fill="#FEFECE" filter="url(#fautk7t4kv9wd)" height="30.2969" style="stroke: #A80036; stroke-width: 1.5;" width="152" x="730" y="3"/><text fill="#000000" font-family="sans-serif" font-size="14" lengthAdjust="spacingAndGlyphs" textLength="138" x="737" y="22.9951">Digital Twin Registry</text><rect fill="#FEFECE" filter="url(#fautk7t4kv9wd)" height="30.2969" style="stroke: #A80036; stroke-width: 1.5;" width="152" x="730" y="321.4922"/><text fill="#000000" font-family="sans-serif" font-size="14" lengthAdjust="spacingAndGlyphs" textLength="138" x="737" y="341.4873">Digital Twin Registry</text><rect fill="#FEFECE" filter="url(#fautk7t4kv9wd)" height="30.2969" style="stroke: #A80036; stroke-width: 1.5;" width="152" x="896" y="3"/><text fill="#000000" font-family="sans-serif" font-size="14" lengthAdjust="spacingAndGlyphs" textLength="138" x="903" y="22.9951">Digital Twin Provider</text><rect fill="#FEFECE" filter="url(#fautk7t4kv9wd)" height="30.2969" style="stroke: #A80036; stroke-width: 1.5;" width="152" x="896" y="321.4922"/><text fill="#000000" font-family="sans-serif" font-size="14" lengthAdjust="spacingAndGlyphs" textLength="138" x="903" y="341.4873">Digital Twin Provider</text><polygon fill="#A80036" points="408,65.4297,418,69.4297,408,73.4297,412,69.4297" style="stroke: #A80036; stroke-width: 1.0;"/><line style="stroke: #A80036; stroke-width: 1.0;" x1="94" x2="414" y1="69.4297" y2="69.4297"/><text fill="#000000" font-family="sans-serif" font-size="13" font-weight="bold" lengthAdjust="spacingAndGlyphs" textLength="9" x="101" y="64.3638">1</text><text fill="#000000" font-family="sans-serif" font-size="13" lengthAdjust="spacingAndGlyphs" textLength="289" x="114" y="64.3638">Find(model_id: "dtmi:sdv:vehicle;1") - request</text><polygon fill="#A80036" points="796,94.5625,806,98.5625,796,102.5625,800,98.5625" style="stroke: #A80036; stroke-width: 1.0;"/><line style="stroke: #A80036; stroke-width: 1.0;" x1="420" x2="802" y1="98.5625" y2="98.5625"/><text fill="#000000" font-family="sans-serif" font-size="13" font-weight="bold" lengthAdjust="spacingAndGlyphs" textLength="9" x="427" y="93.4966">2</text><text fill="#000000" font-family="sans-serif" font-size="13" lengthAdjust="spacingAndGlyphs" textLength="351" x="440" y="93.4966">FindByModeld(model_id: "dtmi:sdv:vehcile;1") - request</text><path d="M813,84.9961 L813,94.9961 L834,94.9961 L834,94.9961 L824,84.9961 L813,84.9961 " fill="#FBFB77" filter="url(#fautk7t4kv9wd)" style="stroke: #A80036; stroke-width: 1.0;"/><path d="M824,84.9961 L824,94.9961 L834,94.9961 L824,84.9961 " fill="#FBFB77" style="stroke: #A80036; stroke-width: 1.0;"/><polygon fill="#A80036" points="431,123.6953,421,127.6953,431,131.6953,427,127.6953" style="stroke: #A80036; stroke-width: 1.0;"/><line style="stroke: #A80036; stroke-width: 1.0;" x1="425" x2="807" y1="127.6953" y2="127.6953"/><text fill="#000000" font-family="sans-serif" font-size="13" font-weight="bold" lengthAdjust="spacingAndGlyphs" textLength="9" x="437" y="122.6294">3</text><text fill="#000000" font-family="sans-serif" font-size="13" lengthAdjust="spacingAndGlyphs" textLength="163" x="450" y="122.6294">FindByModelId - response</text><path d="M390,114.1289 L390,124.1289 L411,124.1289 L411,124.1289 L401,114.1289 L390,114.1289 " fill="#FBFB77" filter="url(#fautk7t4kv9wd)" style="stroke: #A80036; stroke-width: 1.0;"/><path d="M401,114.1289 L401,124.1289 L411,124.1289 L401,114.1289 " fill="#FBFB77" style="stroke: #A80036; stroke-width: 1.0;"/><path d="M339,142.6953 L416,142.6953 L416,149.6953 L406,159.6953 L339,159.6953 L339,142.6953 " fill="#EEEEEE" style="stroke: #000000; stroke-width: 1.0;"/><rect fill="none" height="133.6641" style="stroke: #000000; stroke-width: 2.0;" width="723" x="339" y="142.6953"/><text fill="#000000" font-family="sans-serif" font-size="13" font-weight="bold" lengthAdjust="spacingAndGlyphs" textLength="32" x="354" y="155.7622">loop</text><text fill="#000000" font-family="sans-serif" font-size="11" font-weight="bold" lengthAdjust="spacingAndGlyphs" textLength="342" x="431" y="154.9058">[Iterate over the results from the FindByModelId call]</text><polygon fill="#A80036" points="962,176.9609,972,180.9609,962,184.9609,966,180.9609" style="stroke: #A80036; stroke-width: 1.0;"/><line style="stroke: #A80036; stroke-width: 1.0;" x1="420" x2="968" y1="180.9609" y2="180.9609"/><text fill="#000000" font-family="sans-serif" font-size="13" font-weight="bold" lengthAdjust="spacingAndGlyphs" textLength="9" x="427" y="175.895">4</text><text fill="#000000" font-family="sans-serif" font-size="13" lengthAdjust="spacingAndGlyphs" textLength="59" x="440" y="175.895">Ask - Get</text><polygon fill="#A80036" points="962,206.0938,972,210.0938,962,214.0938,966,210.0938" style="stroke: #A80036; stroke-width: 1.0;"/><line style="stroke: #A80036; stroke-width: 1.0;" x1="420" x2="968" y1="210.0938" y2="210.0938"/><text fill="#000000" font-family="sans-serif" font-size="13" font-weight="bold" lengthAdjust="spacingAndGlyphs" textLength="9" x="427" y="205.0278">5</text><text fill="#000000" font-family="sans-serif" font-size="13" lengthAdjust="spacingAndGlyphs" textLength="59" x="440" y="205.0278">Ask - Get</text><polygon fill="#A80036" points="431,235.2266,421,239.2266,431,243.2266,427,239.2266" style="stroke: #A80036; stroke-width: 1.0;"/><line style="stroke: #A80036; stroke-width: 1.0;" x1="425" x2="973" y1="239.2266" y2="239.2266"/><text fill="#000000" font-family="sans-serif" font-size="13" font-weight="bold" lengthAdjust="spacingAndGlyphs" textLength="9" x="437" y="234.1606">6</text><text fill="#000000" font-family="sans-serif" font-size="13" lengthAdjust="spacingAndGlyphs" textLength="46" x="450" y="234.1606">Answer</text><polygon fill="#A80036" points="431,264.3594,421,268.3594,431,272.3594,427,268.3594" style="stroke: #A80036; stroke-width: 1.0;"/><line style="stroke: #A80036; stroke-width: 1.0;" x1="425" x2="973" y1="268.3594" y2="268.3594"/><text fill="#000000" font-family="sans-serif" font-size="13" font-weight="bold" lengthAdjust="spacingAndGlyphs" textLength="9" x="437" y="263.2935">7</text><text fill="#000000" font-family="sans-serif" font-size="13" lengthAdjust="spacingAndGlyphs" textLength="46" x="450" y="263.2935">Answer</text><polygon fill="#A80036" points="105,300.4922,95,304.4922,105,308.4922,101,304.4922" style="stroke: #A80036; stroke-width: 1.0;"/><line style="stroke: #A80036; stroke-width: 1.0;" x1="99" x2="419" y1="304.4922" y2="304.4922"/><text fill="#000000" font-family="sans-serif" font-size="13" font-weight="bold" lengthAdjust="spacingAndGlyphs" textLength="9" x="111" y="299.4263">8</text><text fill="#000000" font-family="sans-serif" font-size="13" lengthAdjust="spacingAndGlyphs" textLength="98" x="124" y="299.4263">Find - response</text><path d="M64,290.9258 L64,300.9258 L85,300.9258 L85,300.9258 L75,290.9258 L64,290.9258 " fill="#FBFB77" filter="url(#fautk7t4kv9wd)" style="stroke: #A80036; stroke-width: 1.0;"/><path d="M75,290.9258 L75,300.9258 L85,300.9258 L75,290.9258 " fill="#FBFB77" style="stroke: #A80036; stroke-width: 1.0;"/><!--
@startuml

autonumber

participant "Digital Twin Consumer" as CONSUMER
participant "Digital Twin Graph" as DIGITAL_TWIN_GRAPH
participant "Digital Twin Registry" as DIGITAL_TWIN_REGISTRY
participant "Digital Twin Provider" as PROVIDER

CONSUMER -> DIGITAL_TWIN_GRAPH: Find(model_id: "dtmi:sdv:vehicle;1") - request

DIGITAL_TWIN_GRAPH -> DIGITAL_TWIN_REGISTRY: FindByModeld(model_id: "dtmi:sdv:vehcile;1") - request
note right
end note
DIGITAL_TWIN_GRAPH <- DIGITAL_TWIN_REGISTRY: FindByModelId - response
note left
end note

loop Iterate over the results from the FindByModelId call
DIGITAL_TWIN_GRAPH -> PROVIDER: Ask - Get
DIGITAL_TWIN_GRAPH -> PROVIDER: Ask - Get
DIGITAL_TWIN_GRAPH <- PROVIDER: Answer
DIGITAL_TWIN_GRAPH <- PROVIDER: Answer
end

CONSUMER <- DIGITAL_TWIN_GRAPH: Find - response
note left
end note

@enduml

PlantUML version 1.2018.13(Mon Nov 26 09:11:51 PST 2018)
(GPL source distribution)
Java Runtime: OpenJDK Runtime Environment
JVM: OpenJDK 64-Bit Server VM
Java Version: 11.0.22+7-post-Ubuntu-0ubuntu220.04.1
Operating System: Linux
OS Version: 5.4.0-177-generic
Default Encoding: UTF-8
Language: en
Country: US
--></g></svg>