<?xml version="1.0" encoding="us-ascii" standalone="no"?><svg xmlns="http://www.w3.org/2000/svg" xmlns:xlink="http://www.w3.org/1999/xlink" contentStyleType="text/css" height="112px" preserveAspectRatio="none" style="width:868px;height:112px;background:#FFFFFF;" version="1.1" viewBox="0 0 868 112" width="868px" zoomAndPan="magnify"><defs/><g><!--cluster Consumer--><g id="cluster_Consumer"><rect fill="none" height="99" rx="2.5" ry="2.5" style="stroke:#181818;stroke-width:1.0;" width="280" x="7" y="7"/><path d="M97,7 L97,16.2969 L87,26.2969 L7,26.2969 " fill="none" style="stroke:#181818;stroke-width:1.0;"/><text fill="#000000" font-family="sans-serif" font-size="14" font-weight="bold" lengthAdjust="spacing" textLength="80" x="10" y="20.9951">Consumer</text></g><!--cluster In-Vehicle Digital Twin Service--><g id="cluster_In-Vehicle Digital Twin Service"><rect fill="none" height="99" rx="2.5" ry="2.5" style="stroke:#181818;stroke-width:1.0;" width="261" x="311" y="7"/><path d="M566,7 L566,16.2969 L556,26.2969 L311,26.2969 " fill="none" style="stroke:#181818;stroke-width:1.0;"/><text fill="#000000" font-family="sans-serif" font-size="14" font-weight="bold" lengthAdjust="spacing" textLength="245" x="314" y="20.9951">In-Vehicle Digital Twin Service</text></g><!--cluster Provider--><g id="cluster_Provider"><rect fill="none" height="99" rx="2.5" ry="2.5" style="stroke:#181818;stroke-width:1.0;" width="266" x="596" y="7"/><path d="M673,7 L673,16.2969 L663,26.2969 L596,26.2969 " fill="none" style="stroke:#181818;stroke-width:1.0;"/><text fill="#000000" font-family="sans-serif" font-size="14" font-weight="bold" lengthAdjust="spacing" textLength="67" x="599" y="20.9951">Provider</text></g><!--class DigitalTwinConsumerInterface--><g id="elem_DigitalTwinConsumerInterface"><rect codeLine="2" fill="#F1F1F1" height="48" id="DigitalTwinConsumerInterface" rx="2.5" ry="2.5" style="stroke:#181818;stroke-width:0.5;" width="248" x="23" y="42"/><ellipse cx="38" cy="58" fill="#B4A7E5" rx="11" ry="11" style="stroke:#181818;stroke-width:1.0;"/><path d="M38.9531,54.7813 L40.6719,54.7813 C41.0625,54.7813 41.25,54.75 41.375,54.6719 C41.6406,54.5156 41.7813,54.2344 41.7813,53.9375 C41.7813,53.6719 41.6719,53.4063 41.4375,53.2344 C41.2656,53.125 41.125,53.0938 40.6719,53.0938 L35.5313,53.0938 C35.0938,53.0938 34.9688,53.1094 34.8125,53.2031 C34.5625,53.3594 34.4063,53.6563 34.4063,53.9375 C34.4063,54.2188 34.5469,54.4688 34.7656,54.6406 C34.9219,54.75 35.1094,54.7813 35.5313,54.7813 L37.25,54.7813 L37.25,61.2969 L35.5313,61.2969 C35.0938,61.2969 34.9688,61.3125 34.8125,61.4219 C34.5625,61.5781 34.4063,61.8594 34.4063,62.1563 C34.4063,62.4063 34.5469,62.6719 34.7656,62.8281 C34.9219,62.9531 35.125,63 35.5313,63 L40.6719,63 C41.4219,63 41.7813,62.7188 41.7813,62.1563 C41.7813,61.875 41.6719,61.625 41.4375,61.4531 C41.2656,61.3281 41.125,61.2969 40.6719,61.2969 L38.9531,61.2969 L38.9531,54.7813 Z " fill="#000000"/><text fill="#000000" font-family="sans-serif" font-size="14" font-style="italic" lengthAdjust="spacing" textLength="216" x="52" y="62.8467">DigitalTwinConsumerInterface</text><line style="stroke:#181818;stroke-width:0.5;" x1="24" x2="270" y1="74" y2="74"/><line style="stroke:#181818;stroke-width:0.5;" x1="24" x2="270" y1="82" y2="82"/></g><!--class DigitalTwinInterface--><g id="elem_DigitalTwinInterface"><rect codeLine="6" fill="#F1F1F1" height="48" id="DigitalTwinInterface" rx="2.5" ry="2.5" style="stroke:#181818;stroke-width:0.5;" width="175" x="353.5" y="42"/><ellipse cx="368.5" cy="58" fill="#B4A7E5" rx="11" ry="11" style="stroke:#181818;stroke-width:1.0;"/><path d="M369.4531,54.7813 L371.1719,54.7813 C371.5625,54.7813 371.75,54.75 371.875,54.6719 C372.1406,54.5156 372.2813,54.2344 372.2813,53.9375 C372.2813,53.6719 372.1719,53.4063 371.9375,53.2344 C371.7656,53.125 371.625,53.0938 371.1719,53.0938 L366.0313,53.0938 C365.5938,53.0938 365.4688,53.1094 365.3125,53.2031 C365.0625,53.3594 364.9063,53.6563 364.9063,53.9375 C364.9063,54.2188 365.0469,54.4688 365.2656,54.6406 C365.4219,54.75 365.6094,54.7813 366.0313,54.7813 L367.75,54.7813 L367.75,61.2969 L366.0313,61.2969 C365.5938,61.2969 365.4688,61.3125 365.3125,61.4219 C365.0625,61.5781 364.9063,61.8594 364.9063,62.1563 C364.9063,62.4063 365.0469,62.6719 365.2656,62.8281 C365.4219,62.9531 365.625,63 366.0313,63 L371.1719,63 C371.9219,63 372.2813,62.7188 372.2813,62.1563 C372.2813,61.875 372.1719,61.625 371.9375,61.4531 C371.7656,61.3281 371.625,61.2969 371.1719,61.2969 L369.4531,61.2969 L369.4531,54.7813 Z " fill="#000000"/><text fill="#000000" font-family="sans-serif" font-size="14" font-style="italic" lengthAdjust="spacing" textLength="143" x="382.5" y="62.8467">DigitalTwinInterface</text><line style="stroke:#181818;stroke-width:0.5;" x1="354.5" x2="527.5" y1="74" y2="74"/><line style="stroke:#181818;stroke-width:0.5;" x1="354.5" x2="527.5" y1="82" y2="82"/></g><!--class DigitalTwinProviderInterface--><g id="elem_DigitalTwinProviderInterface"><rect codeLine="10" fill="#F1F1F1" height="48" id="DigitalTwinProviderInterface" rx="2.5" ry="2.5" style="stroke:#181818;stroke-width:0.5;" width="234" x="612" y="42"/><ellipse cx="627" cy="58" fill="#B4A7E5" rx="11" ry="11" style="stroke:#181818;stroke-width:1.0;"/><path d="M627.9531,54.7813 L629.6719,54.7813 C630.0625,54.7813 630.25,54.75 630.375,54.6719 C630.6406,54.5156 630.7813,54.2344 630.7813,53.9375 C630.7813,53.6719 630.6719,53.4063 630.4375,53.2344 C630.2656,53.125 630.125,53.0938 629.6719,53.0938 L624.5313,53.0938 C624.0938,53.0938 623.9688,53.1094 623.8125,53.2031 C623.5625,53.3594 623.4063,53.6563 623.4063,53.9375 C623.4063,54.2188 623.5469,54.4688 623.7656,54.6406 C623.9219,54.75 624.1094,54.7813 624.5313,54.7813 L626.25,54.7813 L626.25,61.2969 L624.5313,61.2969 C624.0938,61.2969 623.9688,61.3125 623.8125,61.4219 C623.5625,61.5781 623.4063,61.8594 623.4063,62.1563 C623.4063,62.4063 623.5469,62.6719 623.7656,62.8281 C623.9219,62.9531 624.125,63 624.5313,63 L629.6719,63 C630.4219,63 630.7813,62.7188 630.7813,62.1563 C630.7813,61.875 630.6719,61.625 630.4375,61.4531 C630.2656,61.3281 630.125,61.2969 629.6719,61.2969 L627.9531,61.2969 L627.9531,54.7813 Z " fill="#000000"/><text fill="#000000" font-family="sans-serif" font-size="14" font-style="italic" lengthAdjust="spacing" textLength="202" x="641" y="62.8467">DigitalTwinProviderInterface</text><line style="stroke:#181818;stroke-width:0.5;" x1="613" x2="845" y1="74" y2="74"/><line style="stroke:#181818;stroke-width:0.5;" x1="613" x2="845" y1="82" y2="82"/></g><!--SRC=[IojAp4rLK7BEpoikpKqjKbAevb9GoCmhIIrAIqnELN39JCyiISm9AS_CWodnX4borN9nfK6qU-RfXgLcP2Rdm7KeWBGe1ASMbMKcf-8n5Pjf0KNvPPafU1q3KuAa7G00]--></g></svg>