<?xml version="1.0" encoding="UTF-8" standalone="no"?><svg xmlns="http://www.w3.org/2000/svg" xmlns:xlink="http://www.w3.org/1999/xlink" contentStyleType="text/css" height="112px" preserveAspectRatio="none" style="width:597px;height:112px;background:#FFFFFF;" version="1.1" viewBox="0 0 597 112" width="597px" zoomAndPan="magnify"><defs/><g><!--MD5=[716840c101f3ddf7f4cb05a8915fb06e]
cluster Consumer--><g id="cluster_Consumer"><rect fill="none" height="99" rx="2.5" ry="2.5" style="stroke:#181818;stroke-width:1.0;" width="138" x="7" y="7"/><path d="M97,7 L97,16.2969 L87,26.2969 L7,26.2969 " fill="none" style="stroke:#181818;stroke-width:1.0;"/><text fill="#000000" font-family="sans-serif" font-size="14" font-weight="bold" lengthAdjust="spacing" textLength="80" x="10" y="20.9951">Consumer</text></g><!--MD5=[8a7c8a56caf9fe401c657c933537e632]
cluster In-Vehicle Digital Twin Service--><g id="cluster_In-Vehicle Digital Twin Service"><rect fill="none" height="99" rx="2.5" ry="2.5" style="stroke:#181818;stroke-width:1.0;" width="274" x="169" y="7"/><path d="M424,7 L424,16.2969 L414,26.2969 L169,26.2969 " fill="none" style="stroke:#181818;stroke-width:1.0;"/><text fill="#000000" font-family="sans-serif" font-size="14" font-weight="bold" lengthAdjust="spacing" textLength="245" x="172" y="20.9951">In-Vehicle Digital Twin Service</text></g><!--MD5=[d6b118b97ce1561c4fb44eead7829b01]
cluster Provider--><g id="cluster_Provider"><rect fill="none" height="99" rx="2.5" ry="2.5" style="stroke:#181818;stroke-width:1.0;" width="124" x="467" y="7"/><path d="M544,7 L544,16.2969 L534,26.2969 L467,26.2969 " fill="none" style="stroke:#181818;stroke-width:1.0;"/><text fill="#000000" font-family="sans-serif" font-size="14" font-weight="bold" lengthAdjust="spacing" textLength="67" x="470" y="20.9951">Provider</text></g><!--MD5=[bd36d481f45ebbe8b44b419bdc343d15]
class ConsumerInterface--><g id="elem_ConsumerInterface"><rect codeLine="2" fill="#F1F1F1" height="48" id="ConsumerInterface" rx="2.5" ry="2.5" style="stroke:#181818;stroke-width:0.5;" width="105" x="23.5" y="42"/><ellipse cx="38.5" cy="58" fill="#B4A7E5" rx="11" ry="11" style="stroke:#181818;stroke-width:1.0;"/><path d="M39.4531,54.7813 L41.1719,54.7813 C41.5625,54.7813 41.75,54.75 41.875,54.6719 C42.1406,54.5156 42.2813,54.2344 42.2813,53.9375 C42.2813,53.6719 42.1719,53.4063 41.9375,53.2344 C41.7656,53.125 41.625,53.0938 41.1719,53.0938 L36.0313,53.0938 C35.5938,53.0938 35.4688,53.1094 35.3125,53.2031 C35.0625,53.3594 34.9063,53.6563 34.9063,53.9375 C34.9063,54.2188 35.0469,54.4688 35.2656,54.6406 C35.4219,54.75 35.6094,54.7813 36.0313,54.7813 L37.75,54.7813 L37.75,61.2969 L36.0313,61.2969 C35.5938,61.2969 35.4688,61.3125 35.3125,61.4219 C35.0625,61.5781 34.9063,61.8594 34.9063,62.1563 C34.9063,62.4063 35.0469,62.6719 35.2656,62.8281 C35.4219,62.9531 35.625,63 36.0313,63 L41.1719,63 C41.9219,63 42.2813,62.7188 42.2813,62.1563 C42.2813,61.875 42.1719,61.625 41.9375,61.4531 C41.7656,61.3281 41.625,61.2969 41.1719,61.2969 L39.4531,61.2969 L39.4531,54.7813 Z " fill="#000000"/><text fill="#000000" font-family="sans-serif" font-size="14" font-style="italic" lengthAdjust="spacing" textLength="73" x="52.5" y="62.8467">Consumer</text><line style="stroke:#181818;stroke-width:0.5;" x1="24.5" x2="127.5" y1="74" y2="74"/><line style="stroke:#181818;stroke-width:0.5;" x1="24.5" x2="127.5" y1="82" y2="82"/></g><!--MD5=[7ae7ff48d8384e89494777c370c76f47]
class DigitalTwinInterface--><g id="elem_DigitalTwinInterface"><rect codeLine="6" fill="#F1F1F1" height="48" id="DigitalTwinInterface" rx="2.5" ry="2.5" style="stroke:#181818;stroke-width:0.5;" width="115" x="311.5" y="42"/><ellipse cx="326.5" cy="58" fill="#B4A7E5" rx="11" ry="11" style="stroke:#181818;stroke-width:1.0;"/><path d="M327.4531,54.7813 L329.1719,54.7813 C329.5625,54.7813 329.75,54.75 329.875,54.6719 C330.1406,54.5156 330.2813,54.2344 330.2813,53.9375 C330.2813,53.6719 330.1719,53.4063 329.9375,53.2344 C329.7656,53.125 329.625,53.0938 329.1719,53.0938 L324.0313,53.0938 C323.5938,53.0938 323.4688,53.1094 323.3125,53.2031 C323.0625,53.3594 322.9063,53.6563 322.9063,53.9375 C322.9063,54.2188 323.0469,54.4688 323.2656,54.6406 C323.4219,54.75 323.6094,54.7813 324.0313,54.7813 L325.75,54.7813 L325.75,61.2969 L324.0313,61.2969 C323.5938,61.2969 323.4688,61.3125 323.3125,61.4219 C323.0625,61.5781 322.9063,61.8594 322.9063,62.1563 C322.9063,62.4063 323.0469,62.6719 323.2656,62.8281 C323.4219,62.9531 323.625,63 324.0313,63 L329.1719,63 C329.9219,63 330.2813,62.7188 330.2813,62.1563 C330.2813,61.875 330.1719,61.625 329.9375,61.4531 C329.7656,61.3281 329.625,61.2969 329.1719,61.2969 L327.4531,61.2969 L327.4531,54.7813 Z " fill="#000000"/><text fill="#000000" font-family="sans-serif" font-size="14" font-style="italic" lengthAdjust="spacing" textLength="83" x="340.5" y="62.8467">Digital Twin</text><line style="stroke:#181818;stroke-width:0.5;" x1="312.5" x2="425.5" y1="74" y2="74"/><line style="stroke:#181818;stroke-width:0.5;" x1="312.5" x2="425.5" y1="82" y2="82"/></g><!--MD5=[43c30ff64bd8c7d839abf8ffb62a51f1]
class DTProviderInterface--><g id="elem_DTProviderInterface"><rect codeLine="7" fill="#F1F1F1" height="48" id="DTProviderInterface" rx="2.5" ry="2.5" style="stroke:#181818;stroke-width:0.5;" width="91" x="185.5" y="42"/><ellipse cx="200.5" cy="58" fill="#B4A7E5" rx="11" ry="11" style="stroke:#181818;stroke-width:1.0;"/><path d="M201.4531,54.7813 L203.1719,54.7813 C203.5625,54.7813 203.75,54.75 203.875,54.6719 C204.1406,54.5156 204.2813,54.2344 204.2813,53.9375 C204.2813,53.6719 204.1719,53.4063 203.9375,53.2344 C203.7656,53.125 203.625,53.0938 203.1719,53.0938 L198.0313,53.0938 C197.5938,53.0938 197.4688,53.1094 197.3125,53.2031 C197.0625,53.3594 196.9063,53.6563 196.9063,53.9375 C196.9063,54.2188 197.0469,54.4688 197.2656,54.6406 C197.4219,54.75 197.6094,54.7813 198.0313,54.7813 L199.75,54.7813 L199.75,61.2969 L198.0313,61.2969 C197.5938,61.2969 197.4688,61.3125 197.3125,61.4219 C197.0625,61.5781 196.9063,61.8594 196.9063,62.1563 C196.9063,62.4063 197.0469,62.6719 197.2656,62.8281 C197.4219,62.9531 197.625,63 198.0313,63 L203.1719,63 C203.9219,63 204.2813,62.7188 204.2813,62.1563 C204.2813,61.875 204.1719,61.625 203.9375,61.4531 C203.7656,61.3281 203.625,61.2969 203.1719,61.2969 L201.4531,61.2969 L201.4531,54.7813 Z " fill="#000000"/><text fill="#000000" font-family="sans-serif" font-size="14" font-style="italic" lengthAdjust="spacing" textLength="59" x="214.5" y="62.8467">Provider</text><line style="stroke:#181818;stroke-width:0.5;" x1="186.5" x2="275.5" y1="74" y2="74"/><line style="stroke:#181818;stroke-width:0.5;" x1="186.5" x2="275.5" y1="82" y2="82"/></g><!--MD5=[0d78e4d2fe72cb2c9b3ff40ba6faf8e2]
class ProviderInterface--><g id="elem_ProviderInterface"><rect codeLine="11" fill="#F1F1F1" height="48" id="ProviderInterface" rx="2.5" ry="2.5" style="stroke:#181818;stroke-width:0.5;" width="91" x="483.5" y="42"/><ellipse cx="498.5" cy="58" fill="#B4A7E5" rx="11" ry="11" style="stroke:#181818;stroke-width:1.0;"/><path d="M499.4531,54.7813 L501.1719,54.7813 C501.5625,54.7813 501.75,54.75 501.875,54.6719 C502.1406,54.5156 502.2813,54.2344 502.2813,53.9375 C502.2813,53.6719 502.1719,53.4063 501.9375,53.2344 C501.7656,53.125 501.625,53.0938 501.1719,53.0938 L496.0313,53.0938 C495.5938,53.0938 495.4688,53.1094 495.3125,53.2031 C495.0625,53.3594 494.9063,53.6563 494.9063,53.9375 C494.9063,54.2188 495.0469,54.4688 495.2656,54.6406 C495.4219,54.75 495.6094,54.7813 496.0313,54.7813 L497.75,54.7813 L497.75,61.2969 L496.0313,61.2969 C495.5938,61.2969 495.4688,61.3125 495.3125,61.4219 C495.0625,61.5781 494.9063,61.8594 494.9063,62.1563 C494.9063,62.4063 495.0469,62.6719 495.2656,62.8281 C495.4219,62.9531 495.625,63 496.0313,63 L501.1719,63 C501.9219,63 502.2813,62.7188 502.2813,62.1563 C502.2813,61.875 502.1719,61.625 501.9375,61.4531 C501.7656,61.3281 501.625,61.2969 501.1719,61.2969 L499.4531,61.2969 L499.4531,54.7813 Z " fill="#000000"/><text fill="#000000" font-family="sans-serif" font-size="14" font-style="italic" lengthAdjust="spacing" textLength="59" x="512.5" y="62.8467">Provider</text><line style="stroke:#181818;stroke-width:0.5;" x1="484.5" x2="573.5" y1="74" y2="74"/><line style="stroke:#181818;stroke-width:0.5;" x1="484.5" x2="573.5" y1="82" y2="82"/></g><!--MD5=[d6638757822d8b6def5a191310ca318c]
@startuml
frame "Consumer" {
  interface "Consumer" as ConsumerInterface
}

frame "In-Vehicle Digital Twin Service" {
  interface "Digital Twin" as DigitalTwinInterface
  interface "Provider" as DTProviderInterface
}

frame "Provider" {
  interface "Provider" as ProviderInterface
}
@enduml

PlantUML version 1.2022.14beta5(Unknown compile time)
(GPL source distribution)
Java Runtime: Java(TM) SE Runtime Environment
JVM: Java HotSpot(TM) 64-Bit Server VM
Default Encoding: UTF-8
Language: en
Country: US
--></g></svg>