<?xml version="1.0" encoding="UTF-8" standalone="no"?><svg xmlns="http://www.w3.org/2000/svg" xmlns:xlink="http://www.w3.org/1999/xlink" contentScriptType="application/ecmascript" contentStyleType="text/css" height="134px" preserveAspectRatio="none" style="width:823px;height:134px;" version="1.1" viewBox="0 0 823 134" width="823px" zoomAndPan="magnify"><defs><filter height="300%" id="f1scibvyc4nrn9" width="300%" x="-1" y="-1"><feGaussianBlur result="blurOut" stdDeviation="2.0"/><feColorMatrix in="blurOut" result="blurOut2" type="matrix" values="0 0 0 0 0 0 0 0 0 0 0 0 0 0 0 0 0 0 .4 0"/><feOffset dx="4.0" dy="4.0" in="blurOut2" result="blurOut3"/><feBlend in="SourceGraphic" in2="blurOut3" mode="normal"/></filter></defs><g><!--cluster Consumer--><rect fill="#FFFFFF" filter="url(#f1scibvyc4nrn9)" height="99" style="stroke: #000000; stroke-width: 1.5;" width="250" x="22" y="24"/><path d="M113,25 L113,33.2969 L103,43.2969 L22,43.2969 " fill="none" style="stroke: #000000; stroke-width: 1.5;"/><text fill="#000000" font-family="sans-serif" font-size="14" font-weight="bold" lengthAdjust="spacingAndGlyphs" textLength="81" x="25" y="37.9951">Consumer</text><!--cluster In-Vehicle Digital Twin Service--><rect fill="#FFFFFF" filter="url(#f1scibvyc4nrn9)" height="99" style="stroke: #000000; stroke-width: 1.5;" width="254" x="296" y="24"/><path d="M544,25 L544,33.2969 L534,43.2969 L296,43.2969 " fill="none" style="stroke: #000000; stroke-width: 1.5;"/><text fill="#000000" font-family="sans-serif" font-size="14" font-weight="bold" lengthAdjust="spacingAndGlyphs" textLength="238" x="299" y="37.9951">In-Vehicle Digital Twin Service</text><!--cluster Provider--><rect fill="#FFFFFF" filter="url(#f1scibvyc4nrn9)" height="99" style="stroke: #000000; stroke-width: 1.5;" width="238" x="574" y="24"/><path d="M651,25 L651,33.2969 L641,43.2969 L574,43.2969 " fill="none" style="stroke: #000000; stroke-width: 1.5;"/><text fill="#000000" font-family="sans-serif" font-size="14" font-weight="bold" lengthAdjust="spacingAndGlyphs" textLength="67" x="577" y="37.9951">Provider</text><!--class DigitalTwinConsumerInterface--><rect fill="#FEFECE" filter="url(#f1scibvyc4nrn9)" height="48" id="DigitalTwinConsumerInterface" style="stroke: #A80036; stroke-width: 1.5;" width="218" x="38" y="59"/><ellipse cx="53" cy="75" fill="#B4A7E5" rx="11" ry="11" style="stroke: #A80036; stroke-width: 1.0;"/><path d="M48.9219,70.7656 L48.9219,68.6094 L56.3125,68.6094 L56.3125,70.7656 L53.8438,70.7656 L53.8438,78.8438 L56.3125,78.8438 L56.3125,81 L48.9219,81 L48.9219,78.8438 L51.3906,78.8438 L51.3906,70.7656 L48.9219,70.7656 Z "/><text fill="#000000" font-family="sans-serif" font-size="12" font-style="italic" lengthAdjust="spacingAndGlyphs" textLength="186" x="67" y="79.1543">DigitalTwinConsumerInterface</text><line style="stroke: #A80036; stroke-width: 1.5;" x1="39" x2="255" y1="91" y2="91"/><line style="stroke: #A80036; stroke-width: 1.5;" x1="39" x2="255" y1="99" y2="99"/><!--class DigitalTwinInterface--><rect fill="#FEFECE" filter="url(#f1scibvyc4nrn9)" height="48" id="DigitalTwinInterface" style="stroke: #A80036; stroke-width: 1.5;" width="156" x="345" y="59"/><ellipse cx="360" cy="75" fill="#B4A7E5" rx="11" ry="11" style="stroke: #A80036; stroke-width: 1.0;"/><path d="M355.9219,70.7656 L355.9219,68.6094 L363.3125,68.6094 L363.3125,70.7656 L360.8438,70.7656 L360.8438,78.8438 L363.3125,78.8438 L363.3125,81 L355.9219,81 L355.9219,78.8438 L358.3906,78.8438 L358.3906,70.7656 L355.9219,70.7656 Z "/><text fill="#000000" font-family="sans-serif" font-size="12" font-style="italic" lengthAdjust="spacingAndGlyphs" textLength="124" x="374" y="79.1543">DigitalTwinInterface</text><line style="stroke: #A80036; stroke-width: 1.5;" x1="346" x2="500" y1="91" y2="91"/><line style="stroke: #A80036; stroke-width: 1.5;" x1="346" x2="500" y1="99" y2="99"/><!--class DigitalTwinProviderInterface--><rect fill="#FEFECE" filter="url(#f1scibvyc4nrn9)" height="48" id="DigitalTwinProviderInterface" style="stroke: #A80036; stroke-width: 1.5;" width="206" x="590" y="59"/><ellipse cx="605" cy="75" fill="#B4A7E5" rx="11" ry="11" style="stroke: #A80036; stroke-width: 1.0;"/><path d="M600.9219,70.7656 L600.9219,68.6094 L608.3125,68.6094 L608.3125,70.7656 L605.8438,70.7656 L605.8438,78.8438 L608.3125,78.8438 L608.3125,81 L600.9219,81 L600.9219,78.8438 L603.3906,78.8438 L603.3906,70.7656 L600.9219,70.7656 Z "/><text fill="#000000" font-family="sans-serif" font-size="12" font-style="italic" lengthAdjust="spacingAndGlyphs" textLength="174" x="619" y="79.1543">DigitalTwinProviderInterface</text><line style="stroke: #A80036; stroke-width: 1.5;" x1="591" x2="795" y1="91" y2="91"/><line style="stroke: #A80036; stroke-width: 1.5;" x1="591" x2="795" y1="99" y2="99"/><!--
@startuml

frame "Consumer" {
  interface DigitalTwinConsumerInterface
}

frame "In-Vehicle Digital Twin Service" {
  interface DigitalTwinInterface
}

frame "Provider" {
  interface DigitalTwinProviderInterface
}

@enduml

PlantUML version 1.2018.13(Mon Nov 26 09:11:51 PST 2018)
(GPL source distribution)
Java Runtime: OpenJDK Runtime Environment
JVM: OpenJDK 64-Bit Server VM
Java Version: 11.0.18+10-post-Ubuntu-0ubuntu120.04.1
Operating System: Linux
OS Version: 5.4.0-148-generic
Default Encoding: UTF-8
Language: en
Country: US
--></g></svg>