<?xml version="1.0" encoding="us-ascii" standalone="no"?><svg xmlns="http://www.w3.org/2000/svg" xmlns:xlink="http://www.w3.org/1999/xlink" contentStyleType="text/css" height="221px" preserveAspectRatio="none" style="width:436px;height:221px;background:#FFFFFF;" version="1.1" viewBox="0 0 436 221" width="436px" zoomAndPan="magnify"><defs/><g><!--cluster In-Vehicle Digital Twin Service--><g id="cluster_In-Vehicle Digital Twin Service"><rect fill="none" height="99" rx="2.5" ry="2.5" style="stroke:#181818;stroke-width:1.0;" width="261" x="91" y="116"/><path d="M346,116 L346,125.2969 L336,135.2969 L91,135.2969 " fill="none" style="stroke:#181818;stroke-width:1.0;"/><text fill="#000000" font-family="sans-serif" font-size="14" font-weight="bold" lengthAdjust="spacing" textLength="245" x="94" y="129.9951">In-Vehicle Digital Twin Service</text></g><!--entity Digital Twin Consumer--><g id="elem_Digital Twin Consumer"><rect fill="#F1F1F1" height="46.2969" rx="2.5" ry="2.5" style="stroke:#181818;stroke-width:0.5;" width="200" x="7" y="7"/><path d="M73.6667,7 L73.6667,12 L66.6667,19 L7,19 " fill="none" style="stroke:#181818;stroke-width:0.5;"/><text fill="#000000" font-family="sans-serif" font-size="14" lengthAdjust="spacing" textLength="160" x="22" y="39.9951">Digital Twin Consumer</text></g><!--class Digital Twin Interface--><g id="elem_Digital Twin Interface"><rect codeLine="5" fill="#F1F1F1" height="48" id="Digital Twin Interface" rx="2.5" ry="2.5" style="stroke:#181818;stroke-width:0.5;" width="183" x="129.5" y="151"/><ellipse cx="144.5" cy="167" fill="#B4A7E5" rx="11" ry="11" style="stroke:#181818;stroke-width:1.0;"/><path d="M145.4531,163.7813 L147.1719,163.7813 C147.5625,163.7813 147.75,163.75 147.875,163.6719 C148.1406,163.5156 148.2813,163.2344 148.2813,162.9375 C148.2813,162.6719 148.1719,162.4063 147.9375,162.2344 C147.7656,162.125 147.625,162.0938 147.1719,162.0938 L142.0313,162.0938 C141.5938,162.0938 141.4688,162.1094 141.3125,162.2031 C141.0625,162.3594 140.9063,162.6563 140.9063,162.9375 C140.9063,163.2188 141.0469,163.4688 141.2656,163.6406 C141.4219,163.75 141.6094,163.7813 142.0313,163.7813 L143.75,163.7813 L143.75,170.2969 L142.0313,170.2969 C141.5938,170.2969 141.4688,170.3125 141.3125,170.4219 C141.0625,170.5781 140.9063,170.8594 140.9063,171.1563 C140.9063,171.4063 141.0469,171.6719 141.2656,171.8281 C141.4219,171.9531 141.625,172 142.0313,172 L147.1719,172 C147.9219,172 148.2813,171.7188 148.2813,171.1563 C148.2813,170.875 148.1719,170.625 147.9375,170.4531 C147.7656,170.3281 147.625,170.2969 147.1719,170.2969 L145.4531,170.2969 L145.4531,163.7813 Z " fill="#000000"/><text fill="#000000" font-family="sans-serif" font-size="14" font-style="italic" lengthAdjust="spacing" textLength="151" x="158.5" y="171.8467">Digital Twin Interface</text><line style="stroke:#181818;stroke-width:0.5;" x1="130.5" x2="311.5" y1="183" y2="183"/><line style="stroke:#181818;stroke-width:0.5;" x1="130.5" x2="311.5" y1="191" y2="191"/></g><!--entity Digital Twin Provider--><g id="elem_Digital Twin Provider"><rect fill="#F1F1F1" height="46.2969" rx="2.5" ry="2.5" style="stroke:#181818;stroke-width:0.5;" width="188" x="242" y="7"/><path d="M304.6667,7 L304.6667,12 L297.6667,19 L242,19 " fill="none" style="stroke:#181818;stroke-width:0.5;"/><text fill="#000000" font-family="sans-serif" font-size="14" lengthAdjust="spacing" textLength="148" x="257" y="39.9951">Digital Twin Provider</text></g><!--link Digital Twin Provider to Digital Twin Interface--><g id="link_Digital Twin Provider_Digital Twin Interface"><path codeLine="11" d="M318.283,53.03 C297.986,78.27 264.716,119.64 242.835,146.8493 " fill="none" id="Digital Twin Provider-to-Digital Twin Interface" style="stroke:#181818;stroke-width:1.0;"/><polygon fill="#181818" points="239.692,150.7574,248.4488,146.2498,242.825,146.8607,242.2141,141.237,239.692,150.7574" style="stroke:#181818;stroke-width:1.0;"/><text fill="#000000" font-family="sans-serif" font-size="13" lengthAdjust="spacing" textLength="53" x="294" y="96.0669">Register</text></g><!--link Digital Twin Consumer to Digital Twin Interface--><g id="link_Digital Twin Consumer_Digital Twin Interface"><path codeLine="13" d="M124.563,53.03 C144.601,78.166 177.394,119.301 199.088,146.514 " fill="none" id="Digital Twin Consumer-to-Digital Twin Interface" style="stroke:#181818;stroke-width:1.0;"/><polygon fill="#181818" points="202.471,150.7574,199.9871,141.2269,199.3536,146.8482,193.7324,146.2147,202.471,150.7574" style="stroke:#181818;stroke-width:1.0;"/><text fill="#000000" font-family="sans-serif" font-size="13" lengthAdjust="spacing" textLength="53" x="162" y="96.0669">FindById</text></g><!--SRC=[IojAp4rLK7B9JCyiISnH22dFp5DmpiyhBirDBL9IgEQgvU9AWoZnpDCDIyt8JCv9LK1H7PnQL9QPd0fIhA2GcLUIMfIMc8nkf2TCN0d9H1GL0KNvPPafS4jnIUhgsk4qMi5A8IWrFRCOo4St0E4b0WQuPUQbE5LwfW00]--></g></svg>