<?xml version="1.0" encoding="UTF-8" standalone="no"?><svg xmlns="http://www.w3.org/2000/svg" xmlns:xlink="http://www.w3.org/1999/xlink" contentScriptType="application/ecmascript" contentStyleType="text/css" height="227px" preserveAspectRatio="none" style="width:424px;height:227px;" version="1.1" viewBox="0 0 424 227" width="424px" zoomAndPan="magnify"><defs><filter height="300%" id="fkqicy8ijpddh" width="300%" x="-1" y="-1"><feGaussianBlur result="blurOut" stdDeviation="2.0"/><feColorMatrix in="blurOut" result="blurOut2" type="matrix" values="0 0 0 0 0 0 0 0 0 0 0 0 0 0 0 0 0 0 .4 0"/><feOffset dx="4.0" dy="4.0" in="blurOut2" result="blurOut3"/><feBlend in="SourceGraphic" in2="blurOut3" mode="normal"/></filter></defs><g><!--cluster In-Vehicle Digital Twin Service--><rect fill="#FFFFFF" filter="url(#fkqicy8ijpddh)" height="99" style="stroke: #000000; stroke-width: 1.5;" width="254" x="86" y="117"/><path d="M334,118 L334,126.2969 L324,136.2969 L86,136.2969 " fill="none" style="stroke: #000000; stroke-width: 1.5;"/><text fill="#000000" font-family="sans-serif" font-size="14" font-weight="bold" lengthAdjust="spacingAndGlyphs" textLength="238" x="89" y="130.9951">In-Vehicle Digital Twin Service</text><!--entity Digital Twin Consumer--><rect fill="#FFFFFF" filter="url(#fkqicy8ijpddh)" height="46.2969" style="stroke: #000000; stroke-width: 1.5;" width="194" x="6" y="8"/><path d="M70.6667,9 L70.6667,13 L63.6667,20 L6,20 " fill="none" style="stroke: #000000; stroke-width: 1.5;"/><text fill="#000000" font-family="sans-serif" font-size="14" lengthAdjust="spacingAndGlyphs" textLength="154" x="21" y="40.9951">Digital Twin Consumer</text><!--class Digital Twin Interface--><rect fill="#FEFECE" filter="url(#fkqicy8ijpddh)" height="48" id="Digital Twin Interface" style="stroke: #A80036; stroke-width: 1.5;" width="164" x="131" y="152"/><ellipse cx="146" cy="168" fill="#B4A7E5" rx="11" ry="11" style="stroke: #A80036; stroke-width: 1.0;"/><path d="M141.9219,163.7656 L141.9219,161.6094 L149.3125,161.6094 L149.3125,163.7656 L146.8438,163.7656 L146.8438,171.8438 L149.3125,171.8438 L149.3125,174 L141.9219,174 L141.9219,171.8438 L144.3906,171.8438 L144.3906,163.7656 L141.9219,163.7656 Z "/><text fill="#000000" font-family="sans-serif" font-size="12" font-style="italic" lengthAdjust="spacingAndGlyphs" textLength="132" x="160" y="172.1543">Digital Twin Interface</text><line style="stroke: #A80036; stroke-width: 1.5;" x1="132" x2="294" y1="184" y2="184"/><line style="stroke: #A80036; stroke-width: 1.5;" x1="132" x2="294" y1="192" y2="192"/><!--entity Digital Twin Provider--><rect fill="#FFFFFF" filter="url(#fkqicy8ijpddh)" height="46.2969" style="stroke: #000000; stroke-width: 1.5;" width="178" x="235" y="8"/><path d="M294.3333,9 L294.3333,13 L287.3333,20 L235,20 " fill="none" style="stroke: #000000; stroke-width: 1.5;"/><text fill="#000000" font-family="sans-serif" font-size="14" lengthAdjust="spacingAndGlyphs" textLength="138" x="250" y="40.9951">Digital Twin Provider</text><!--link Digital Twin Provider to Digital Twin Interface--><path d="M306.9,54.03 C287.39,79.17 255.46,120.3 234.34,147.51 " fill="none" id="Digital Twin Provider-Digital Twin Interface" style="stroke: #A80036; stroke-width: 1.0;"/><polygon fill="#A80036" points="231.04,151.76,239.7182,147.1029,234.1058,147.8102,233.3985,142.1977,231.04,151.76" style="stroke: #A80036; stroke-width: 1.0;"/><text fill="#000000" font-family="sans-serif" font-size="13" lengthAdjust="spacingAndGlyphs" textLength="52" x="282" y="97.0669">Register</text><!--link Digital Twin Consumer to Digital Twin Interface--><path d="M119.95,54.03 C139.28,79.17 170.92,120.3 191.86,147.51 " fill="none" id="Digital Twin Consumer-Digital Twin Interface" style="stroke: #A80036; stroke-width: 1.0;"/><polygon fill="#A80036" points="195.12,151.76,192.8048,142.1871,192.0721,147.7963,186.4629,147.0637,195.12,151.76" style="stroke: #A80036; stroke-width: 1.0;"/><text fill="#000000" font-family="sans-serif" font-size="13" lengthAdjust="spacingAndGlyphs" textLength="53" x="156" y="97.0669">FindById</text><!--
@startuml

frame "Digital Twin Consumer" {
}

frame "In-Vehicle Digital Twin Service" {
  interface "Digital Twin Interface"
}

frame "Digital Twin Provider" {
}

"Digital Twin Provider" - -> "Digital Twin Interface" : Register

"Digital Twin Consumer" - -> "Digital Twin Interface" : FindById

@enduml

PlantUML version 1.2018.13(Mon Nov 26 09:11:51 PST 2018)
(GPL source distribution)
Java Runtime: OpenJDK Runtime Environment
JVM: OpenJDK 64-Bit Server VM
Java Version: 11.0.19+7-post-Ubuntu-0ubuntu120.04.1
Operating System: Linux
OS Version: 5.4.0-153-generic
Default Encoding: UTF-8
Language: en
Country: US
--></g></svg>