<?xml version="1.0" encoding="us-ascii" standalone="no"?><svg xmlns="http://www.w3.org/2000/svg" xmlns:xlink="http://www.w3.org/1999/xlink" contentStyleType="text/css" height="1311px" preserveAspectRatio="none" style="width:1260px;height:1311px;background:#FFFFFF;" version="1.1" viewBox="0 0 1260 1311" width="1260px" zoomAndPan="magnify"><defs/><g><text fill="#000000" font-family="sans-serif" font-size="14" font-weight="bold" lengthAdjust="spacing" textLength="301" x="478.75" y="27.9951">Managed Subscribe Module Sequence</text><line style="stroke:#181818;stroke-width:0.5;stroke-dasharray:5.0,5.0;" x1="86" x2="86" y1="73.5938" y2="1276.1016"/><line style="stroke:#181818;stroke-width:0.5;stroke-dasharray:5.0,5.0;" x1="271.5" x2="271.5" y1="73.5938" y2="1276.1016"/><line style="stroke:#181818;stroke-width:0.5;stroke-dasharray:5.0,5.0;" x1="408.5" x2="408.5" y1="73.5938" y2="1276.1016"/><line style="stroke:#181818;stroke-width:0.5;stroke-dasharray:5.0,5.0;" x1="823.5" x2="823.5" y1="73.5938" y2="1276.1016"/><line style="stroke:#181818;stroke-width:0.5;stroke-dasharray:5.0,5.0;" x1="952.5" x2="952.5" y1="73.5938" y2="1276.1016"/><line style="stroke:#181818;stroke-width:0.5;stroke-dasharray:5.0,5.0;" x1="1222.5" x2="1222.5" y1="73.5938" y2="1276.1016"/><rect fill="#E2E2F0" height="30.2969" rx="2.5" ry="2.5" style="stroke:#181818;stroke-width:0.5;" width="162" x="5" y="42.2969"/><text fill="#000000" font-family="sans-serif" font-size="14" lengthAdjust="spacing" textLength="148" x="12" y="62.292">Digital Twin Provider</text><rect fill="#E2E2F0" height="30.2969" rx="2.5" ry="2.5" style="stroke:#181818;stroke-width:0.5;" width="162" x="5" y="1275.1016"/><text fill="#000000" font-family="sans-serif" font-size="14" lengthAdjust="spacing" textLength="148" x="12" y="1295.0967">Digital Twin Provider</text><rect fill="#E2E2F0" height="30.2969" rx="2.5" ry="2.5" style="stroke:#181818;stroke-width:0.5;" width="45" x="249.5" y="42.2969"/><text fill="#000000" font-family="sans-serif" font-size="14" lengthAdjust="spacing" textLength="31" x="256.5" y="62.292">Ibeji</text><rect fill="#E2E2F0" height="30.2969" rx="2.5" ry="2.5" style="stroke:#181818;stroke-width:0.5;" width="45" x="249.5" y="1275.1016"/><text fill="#000000" font-family="sans-serif" font-size="14" lengthAdjust="spacing" textLength="31" x="256.5" y="1295.0967">Ibeji</text><rect fill="#E2E2F0" height="30.2969" rx="2.5" ry="2.5" style="stroke:#181818;stroke-width:0.5;" width="208" x="304.5" y="42.2969"/><text fill="#000000" font-family="sans-serif" font-size="14" lengthAdjust="spacing" textLength="194" x="311.5" y="62.292">Managed Subscribe Module</text><rect fill="#E2E2F0" height="30.2969" rx="2.5" ry="2.5" style="stroke:#181818;stroke-width:0.5;" width="208" x="304.5" y="1275.1016"/><text fill="#000000" font-family="sans-serif" font-size="14" lengthAdjust="spacing" textLength="194" x="311.5" y="1295.0967">Managed Subscribe Module</text><rect fill="#E2E2F0" height="30.2969" rx="2.5" ry="2.5" style="stroke:#181818;stroke-width:0.5;" width="174" x="736.5" y="42.2969"/><text fill="#000000" font-family="sans-serif" font-size="14" lengthAdjust="spacing" textLength="160" x="743.5" y="62.292">Digital Twin Consumer</text><rect fill="#E2E2F0" height="30.2969" rx="2.5" ry="2.5" style="stroke:#181818;stroke-width:0.5;" width="174" x="736.5" y="1275.1016"/><text fill="#000000" font-family="sans-serif" font-size="14" lengthAdjust="spacing" textLength="160" x="743.5" y="1295.0967">Digital Twin Consumer</text><rect fill="#E2E2F0" height="30.2969" rx="2.5" ry="2.5" style="stroke:#181818;stroke-width:0.5;" width="65" x="920.5" y="42.2969"/><text fill="#000000" font-family="sans-serif" font-size="14" lengthAdjust="spacing" textLength="51" x="927.5" y="62.292">Agemo</text><rect fill="#E2E2F0" height="30.2969" rx="2.5" ry="2.5" style="stroke:#181818;stroke-width:0.5;" width="65" x="920.5" y="1275.1016"/><text fill="#000000" font-family="sans-serif" font-size="14" lengthAdjust="spacing" textLength="51" x="927.5" y="1295.0967">Agemo</text><rect fill="#E2E2F0" height="30.2969" rx="2.5" ry="2.5" style="stroke:#181818;stroke-width:0.5;" width="63" x="1191.5" y="42.2969"/><text fill="#000000" font-family="sans-serif" font-size="14" lengthAdjust="spacing" textLength="49" x="1198.5" y="62.292">Broker</text><rect fill="#E2E2F0" height="30.2969" rx="2.5" ry="2.5" style="stroke:#181818;stroke-width:0.5;" width="63" x="1191.5" y="1275.1016"/><text fill="#000000" font-family="sans-serif" font-size="14" lengthAdjust="spacing" textLength="49" x="1198.5" y="1295.0967">Broker</text><polygon fill="#181818" points="283,100.7266,273,104.7266,283,108.7266,279,104.7266" style="stroke:#181818;stroke-width:1.0;"/><line style="stroke:#181818;stroke-width:1.0;" x1="277" x2="822.5" y1="104.7266" y2="104.7266"/><text fill="#000000" font-family="sans-serif" font-size="13" font-weight="bold" lengthAdjust="spacing" textLength="9" x="289" y="99.6606">1</text><text fill="#000000" font-family="sans-serif" font-size="13" lengthAdjust="spacing" textLength="122" x="302" y="99.6606">FindById (entity_id)</text><polygon fill="#181818" points="811.5,129.8594,821.5,133.8594,811.5,137.8594,815.5,133.8594" style="stroke:#181818;stroke-width:1.0;"/><line style="stroke:#181818;stroke-width:1.0;" x1="272" x2="817.5" y1="133.8594" y2="133.8594"/><text fill="#000000" font-family="sans-serif" font-size="13" font-weight="bold" lengthAdjust="spacing" textLength="9" x="279" y="128.7935">2</text><text fill="#000000" font-family="sans-serif" font-size="13" lengthAdjust="spacing" textLength="125" x="292" y="128.7935">FindById - response</text><polygon fill="#181818" points="419.5,158.9922,409.5,162.9922,419.5,166.9922,415.5,162.9922" style="stroke:#181818;stroke-width:1.0;"/><line style="stroke:#181818;stroke-width:1.0;" x1="413.5" x2="822.5" y1="162.9922" y2="162.9922"/><text fill="#000000" font-family="sans-serif" font-size="13" font-weight="bold" lengthAdjust="spacing" textLength="8" x="425.5" y="157.9263">3</text><text fill="#000000" font-family="sans-serif" font-size="13" lengthAdjust="spacing" textLength="379" x="437.5" y="157.9263">GetSubscriptionInfo (entity_id, constraints {freq, acc, etc})</text><polygon fill="#181818" points="941,188.125,951,192.125,941,196.125,945,192.125" style="stroke:#181818;stroke-width:1.0;"/><line style="stroke:#181818;stroke-width:1.0;" x1="408.5" x2="947" y1="192.125" y2="192.125"/><text fill="#000000" font-family="sans-serif" font-size="13" font-weight="bold" lengthAdjust="spacing" textLength="9" x="415.5" y="187.0591">4</text><text fill="#000000" font-family="sans-serif" font-size="13" lengthAdjust="spacing" textLength="139" x="428.5" y="187.0591">CreateTopic - request</text><polygon fill="#181818" points="419.5,217.2578,409.5,221.2578,419.5,225.2578,415.5,221.2578" style="stroke:#181818;stroke-width:1.0;"/><line style="stroke:#181818;stroke-width:1.0;" x1="413.5" x2="952" y1="221.2578" y2="221.2578"/><text fill="#000000" font-family="sans-serif" font-size="13" font-weight="bold" lengthAdjust="spacing" textLength="9" x="425.5" y="216.1919">5</text><text fill="#000000" font-family="sans-serif" font-size="13" lengthAdjust="spacing" textLength="149" x="438.5" y="216.1919">CreateTopic - response</text><path d="M413,234.2578 L413,259.2578 L672,259.2578 L672,244.2578 L662,234.2578 L413,234.2578 " fill="#FEFFDD" style="stroke:#181818;stroke-width:0.5;"/><path d="M662,234.2578 L662,244.2578 L672,244.2578 L662,234.2578 " fill="#FEFFDD" style="stroke:#181818;stroke-width:0.5;"/><text fill="#000000" font-family="sans-serif" font-size="13" lengthAdjust="spacing" textLength="238" x="419" y="251.3247">SubInfo {topic, broker endpoint info}</text><line style="stroke:#181818;stroke-width:1.0;" x1="408.5" x2="450.5" y1="285.5234" y2="285.5234"/><line style="stroke:#181818;stroke-width:1.0;" x1="450.5" x2="450.5" y1="285.5234" y2="298.5234"/><line style="stroke:#181818;stroke-width:1.0;" x1="409.5" x2="450.5" y1="298.5234" y2="298.5234"/><polygon fill="#181818" points="419.5,294.5234,409.5,298.5234,419.5,302.5234,415.5,298.5234" style="stroke:#181818;stroke-width:1.0;"/><text fill="#000000" font-family="sans-serif" font-size="13" font-weight="bold" lengthAdjust="spacing" textLength="9" x="415.5" y="280.4575">6</text><text fill="#000000" font-family="sans-serif" font-size="13" lengthAdjust="spacing" textLength="240" x="428.5" y="280.4575">Store entity_id and SubInfo metadata</text><polygon fill="#181818" points="811.5,323.6563,821.5,327.6563,811.5,331.6563,815.5,327.6563" style="stroke:#181818;stroke-width:1.0;"/><line style="stroke:#181818;stroke-width:1.0;" x1="408.5" x2="817.5" y1="327.6563" y2="327.6563"/><text fill="#000000" font-family="sans-serif" font-size="13" font-weight="bold" lengthAdjust="spacing" textLength="9" x="415.5" y="322.5903">7</text><text fill="#000000" font-family="sans-serif" font-size="13" lengthAdjust="spacing" textLength="197" x="428.5" y="322.5903">GetSubscriptionInfo - response</text><path d="M559,340.6563 L559,365.6563 L818,365.6563 L818,350.6563 L808,340.6563 L559,340.6563 " fill="#FEFFDD" style="stroke:#181818;stroke-width:0.5;"/><path d="M808,340.6563 L808,350.6563 L818,350.6563 L808,340.6563 " fill="#FEFFDD" style="stroke:#181818;stroke-width:0.5;"/><text fill="#000000" font-family="sans-serif" font-size="13" lengthAdjust="spacing" textLength="238" x="565" y="357.7231">SubInfo {topic, broker endpoint info}</text><polygon fill="#181818" points="1211,387.9219,1221,391.9219,1211,395.9219,1215,391.9219" style="stroke:#181818;stroke-width:1.0;"/><line style="stroke:#181818;stroke-width:1.0;" x1="823.5" x2="1217" y1="391.9219" y2="391.9219"/><text fill="#000000" font-family="sans-serif" font-size="13" font-weight="bold" lengthAdjust="spacing" textLength="9" x="830.5" y="386.856">8</text><text fill="#000000" font-family="sans-serif" font-size="13" lengthAdjust="spacing" textLength="159" x="843.5" y="386.856">Subscribe (SubInfo.topic)</text><polygon fill="#181818" points="964,417.0547,954,421.0547,964,425.0547,960,421.0547" style="stroke:#181818;stroke-width:1.0;"/><line style="stroke:#181818;stroke-width:1.0;" x1="958" x2="1222" y1="421.0547" y2="421.0547"/><text fill="#000000" font-family="sans-serif" font-size="13" font-weight="bold" lengthAdjust="spacing" textLength="9" x="970" y="415.9888">9</text><text fill="#000000" font-family="sans-serif" font-size="13" lengthAdjust="spacing" textLength="208" x="983" y="415.9888">Sub notification for SubInfo.topic</text><polygon fill="#181818" points="419.5,446.1875,409.5,450.1875,419.5,454.1875,415.5,450.1875" style="stroke:#181818;stroke-width:1.0;"/><line style="stroke:#181818;stroke-width:1.0;" x1="413.5" x2="952" y1="450.1875" y2="450.1875"/><text fill="#000000" font-family="sans-serif" font-size="13" font-weight="bold" lengthAdjust="spacing" textLength="19" x="425.5" y="445.1216">10</text><text fill="#000000" font-family="sans-serif" font-size="13" lengthAdjust="spacing" textLength="281" x="448.5" y="445.1216">ManageTopicCallback (SubInfo.topic, action)</text><polygon fill="#181818" points="97,475.3203,87,479.3203,97,483.3203,93,479.3203" style="stroke:#181818;stroke-width:1.0;"/><line style="stroke:#181818;stroke-width:1.0;" x1="91" x2="407.5" y1="479.3203" y2="479.3203"/><text fill="#000000" font-family="sans-serif" font-size="13" font-weight="bold" lengthAdjust="spacing" textLength="18" x="103" y="474.2544">11</text><text fill="#000000" font-family="sans-serif" font-size="13" lengthAdjust="spacing" textLength="247" x="125" y="474.2544">TopicManagementCB (action, payload)</text><path d="M91,492.3203 L91,713.3203 L329,713.3203 L329,502.3203 L319,492.3203 L91,492.3203 " fill="#FEFFDD" style="stroke:#181818;stroke-width:0.5;"/><path d="M319,492.3203 L319,502.3203 L329,502.3203 L319,492.3203 " fill="#FEFFDD" style="stroke:#181818;stroke-width:0.5;"/><text fill="#000000" font-family="sans-serif" font-size="13" lengthAdjust="spacing" textLength="217" x="97" y="509.3872">// Tells provider to start publishing</text><text fill="#000000" font-family="sans-serif" font-size="13" lengthAdjust="spacing" textLength="212" x="97" y="524.52">// entity id data on provided topic</text><text fill="#000000" font-family="sans-serif" font-size="13" lengthAdjust="spacing" textLength="182" x="97" y="539.6528">// with the given constraints.</text><text fill="#000000" font-family="sans-serif" font-size="13" lengthAdjust="spacing" textLength="4" x="97" y="554.7856">&#160;</text><text fill="#000000" font-family="sans-serif" font-size="13" lengthAdjust="spacing" textLength="100" x="97" y="569.9185">action: PUBLISH</text><text fill="#000000" font-family="sans-serif" font-size="13" lengthAdjust="spacing" textLength="69" x="97" y="585.0513">payload: {</text><text fill="#000000" font-family="sans-serif" font-size="13" lengthAdjust="spacing" textLength="59" x="113" y="600.1841">entity_id,</text><text fill="#000000" font-family="sans-serif" font-size="13" lengthAdjust="spacing" textLength="35" x="113" y="615.3169">topic,</text><text fill="#000000" font-family="sans-serif" font-size="13" lengthAdjust="spacing" textLength="173" x="113" y="630.4497">constraints, // (type, value)</text><text fill="#000000" font-family="sans-serif" font-size="13" lengthAdjust="spacing" textLength="126" x="113" y="645.5825">subscription_info: {</text><text fill="#000000" font-family="sans-serif" font-size="13" lengthAdjust="spacing" textLength="108" x="129" y="660.7153">protocol, // MQTT</text><text fill="#000000" font-family="sans-serif" font-size="13" lengthAdjust="spacing" textLength="117" x="129" y="675.8481">uri, // MQTT Broker</text><text fill="#000000" font-family="sans-serif" font-size="13" lengthAdjust="spacing" textLength="13" x="113" y="690.981">},</text><text fill="#000000" font-family="sans-serif" font-size="13" lengthAdjust="spacing" textLength="9" x="97" y="706.1138">}</text><polygon fill="#181818" points="1211,736.3125,1221,740.3125,1211,744.3125,1215,740.3125" style="stroke:#181818;stroke-width:1.0;"/><line style="stroke:#181818;stroke-width:1.0;" x1="86" x2="1217" y1="740.3125" y2="740.3125"/><text fill="#000000" font-family="sans-serif" font-size="13" font-weight="bold" lengthAdjust="spacing" textLength="18" x="93" y="735.2466">12</text><text fill="#000000" font-family="sans-serif" font-size="13" lengthAdjust="spacing" textLength="29" x="115" y="735.2466">data</text><polygon fill="#181818" points="834.5,765.4453,824.5,769.4453,834.5,773.4453,830.5,769.4453" style="stroke:#181818;stroke-width:1.0;"/><line style="stroke:#181818;stroke-width:1.0;" x1="828.5" x2="1222" y1="769.4453" y2="769.4453"/><text fill="#000000" font-family="sans-serif" font-size="13" font-weight="bold" lengthAdjust="spacing" textLength="17" x="840.5" y="764.3794">13</text><text fill="#000000" font-family="sans-serif" font-size="13" lengthAdjust="spacing" textLength="29" x="861.5" y="764.3794">data</text><polygon fill="#181818" points="1211,794.5781,1221,798.5781,1211,802.5781,1215,798.5781" style="stroke:#181818;stroke-width:1.0;"/><line style="stroke:#181818;stroke-width:1.0;" x1="823.5" x2="1217" y1="798.5781" y2="798.5781"/><text fill="#000000" font-family="sans-serif" font-size="13" font-weight="bold" lengthAdjust="spacing" textLength="18" x="830.5" y="793.5122">14</text><text fill="#000000" font-family="sans-serif" font-size="13" lengthAdjust="spacing" textLength="175" x="852.5" y="793.5122">Unsubscribe (SubInfo.topic)</text><line style="stroke:#181818;stroke-width:2.0;" x1="830.5" x2="840.5" y1="822.7109" y2="832.7109"/><line style="stroke:#181818;stroke-width:2.0;" x1="830.5" x2="840.5" y1="832.7109" y2="822.7109"/><line style="stroke:#181818;stroke-width:1.0;" x1="835.5" x2="1222" y1="827.7109" y2="827.7109"/><text fill="#000000" font-family="sans-serif" font-size="13" font-weight="bold" lengthAdjust="spacing" textLength="18" x="840.5" y="822.645">15</text><text fill="#000000" font-family="sans-serif" font-size="13" lengthAdjust="spacing" textLength="29" x="862.5" y="822.645">data</text><polygon fill="#181818" points="964,852.8438,954,856.8438,964,860.8438,960,856.8438" style="stroke:#181818;stroke-width:1.0;"/><line style="stroke:#181818;stroke-width:1.0;" x1="958" x2="1222" y1="856.8438" y2="856.8438"/><text fill="#000000" font-family="sans-serif" font-size="13" font-weight="bold" lengthAdjust="spacing" textLength="18" x="970" y="851.7778">16</text><text fill="#000000" font-family="sans-serif" font-size="13" lengthAdjust="spacing" textLength="224" x="992" y="851.7778">Unsub notification for SubInfo.topic</text><polygon fill="#181818" points="419.5,881.9766,409.5,885.9766,419.5,889.9766,415.5,885.9766" style="stroke:#181818;stroke-width:1.0;"/><line style="stroke:#181818;stroke-width:1.0;" x1="413.5" x2="952" y1="885.9766" y2="885.9766"/><text fill="#000000" font-family="sans-serif" font-size="13" font-weight="bold" lengthAdjust="spacing" textLength="18" x="425.5" y="880.9106">17</text><text fill="#000000" font-family="sans-serif" font-size="13" lengthAdjust="spacing" textLength="281" x="447.5" y="880.9106">ManageTopicCallback (SubInfo.topic, action)</text><polygon fill="#181818" points="97,911.1094,87,915.1094,97,919.1094,93,915.1094" style="stroke:#181818;stroke-width:1.0;"/><line style="stroke:#181818;stroke-width:1.0;" x1="91" x2="407.5" y1="915.1094" y2="915.1094"/><text fill="#000000" font-family="sans-serif" font-size="13" font-weight="bold" lengthAdjust="spacing" textLength="18" x="103" y="910.0435">18</text><text fill="#000000" font-family="sans-serif" font-size="13" lengthAdjust="spacing" textLength="247" x="125" y="910.0435">TopicManagementCB (action, payload)</text><path d="M91,928.1094 L91,1089.1094 L328,1089.1094 L328,938.1094 L318,928.1094 L91,928.1094 " fill="#FEFFDD" style="stroke:#181818;stroke-width:0.5;"/><path d="M318,928.1094 L318,938.1094 L328,938.1094 L318,928.1094 " fill="#FEFFDD" style="stroke:#181818;stroke-width:0.5;"/><text fill="#000000" font-family="sans-serif" font-size="13" lengthAdjust="spacing" textLength="215" x="97" y="945.1763">// Tells provider to stop publishing</text><text fill="#000000" font-family="sans-serif" font-size="13" lengthAdjust="spacing" textLength="216" x="97" y="960.3091">// entity id data on provided topic.</text><text fill="#000000" font-family="sans-serif" font-size="13" lengthAdjust="spacing" textLength="4" x="97" y="975.4419">&#160;</text><text fill="#000000" font-family="sans-serif" font-size="13" lengthAdjust="spacing" textLength="141" x="97" y="990.5747">action: STOP_PUBLISH</text><text fill="#000000" font-family="sans-serif" font-size="13" lengthAdjust="spacing" textLength="69" x="97" y="1005.7075">payload: {</text><text fill="#000000" font-family="sans-serif" font-size="13" lengthAdjust="spacing" textLength="59" x="113" y="1020.8403">entity_id,</text><text fill="#000000" font-family="sans-serif" font-size="13" lengthAdjust="spacing" textLength="35" x="113" y="1035.9731">topic,</text><text fill="#000000" font-family="sans-serif" font-size="13" lengthAdjust="spacing" textLength="173" x="113" y="1051.106">constraints, // (type, value)</text><text fill="#000000" font-family="sans-serif" font-size="13" lengthAdjust="spacing" textLength="154" x="113" y="1066.2388">subscription_info: None,</text><text fill="#000000" font-family="sans-serif" font-size="13" lengthAdjust="spacing" textLength="9" x="97" y="1081.3716">}</text><line style="stroke:#181818;stroke-width:2.0;" x1="1205" x2="1215" y1="1110.5703" y2="1120.5703"/><line style="stroke:#181818;stroke-width:2.0;" x1="1205" x2="1215" y1="1120.5703" y2="1110.5703"/><line style="stroke:#181818;stroke-width:1.0;" x1="86" x2="1210" y1="1115.5703" y2="1115.5703"/><text fill="#000000" font-family="sans-serif" font-size="13" font-weight="bold" lengthAdjust="spacing" textLength="18" x="93" y="1110.5044">19</text><text fill="#000000" font-family="sans-serif" font-size="13" lengthAdjust="spacing" textLength="29" x="115" y="1110.5044">data</text><line style="stroke:#181818;stroke-width:1.0;" x1="86" x2="128" y1="1144.7031" y2="1144.7031"/><line style="stroke:#181818;stroke-width:1.0;" x1="128" x2="128" y1="1144.7031" y2="1157.7031"/><line style="stroke:#181818;stroke-width:1.0;" x1="87" x2="128" y1="1157.7031" y2="1157.7031"/><polygon fill="#181818" points="97,1153.7031,87,1157.7031,97,1161.7031,93,1157.7031" style="stroke:#181818;stroke-width:1.0;"/><text fill="#000000" font-family="sans-serif" font-size="13" font-weight="bold" lengthAdjust="spacing" textLength="19" x="93" y="1139.6372">20</text><text fill="#000000" font-family="sans-serif" font-size="13" lengthAdjust="spacing" textLength="149" x="116" y="1139.6372">Remove topic mapping</text><polygon fill="#181818" points="941,1182.8359,951,1186.8359,941,1190.8359,945,1186.8359" style="stroke:#181818;stroke-width:1.0;"/><line style="stroke:#181818;stroke-width:1.0;" x1="408.5" x2="947" y1="1186.8359" y2="1186.8359"/><text fill="#000000" font-family="sans-serif" font-size="13" font-weight="bold" lengthAdjust="spacing" textLength="18" x="415.5" y="1181.77">21</text><text fill="#000000" font-family="sans-serif" font-size="13" lengthAdjust="spacing" textLength="173" x="437.5" y="1181.77">DeleteTopic (SubInfo.topic)</text><polygon fill="#181818" points="419.5,1211.9688,409.5,1215.9688,419.5,1219.9688,415.5,1215.9688" style="stroke:#181818;stroke-width:1.0;"/><line style="stroke:#181818;stroke-width:1.0;" x1="413.5" x2="952" y1="1215.9688" y2="1215.9688"/><text fill="#000000" font-family="sans-serif" font-size="13" font-weight="bold" lengthAdjust="spacing" textLength="18" x="425.5" y="1210.9028">22</text><text fill="#000000" font-family="sans-serif" font-size="13" lengthAdjust="spacing" textLength="148" x="447.5" y="1210.9028">DeleteTopic - response</text><line style="stroke:#181818;stroke-width:1.0;" x1="408.5" x2="450.5" y1="1245.1016" y2="1245.1016"/><line style="stroke:#181818;stroke-width:1.0;" x1="450.5" x2="450.5" y1="1245.1016" y2="1258.1016"/><line style="stroke:#181818;stroke-width:1.0;" x1="409.5" x2="450.5" y1="1258.1016" y2="1258.1016"/><polygon fill="#181818" points="419.5,1254.1016,409.5,1258.1016,419.5,1262.1016,415.5,1258.1016" style="stroke:#181818;stroke-width:1.0;"/><text fill="#000000" font-family="sans-serif" font-size="13" font-weight="bold" lengthAdjust="spacing" textLength="17" x="415.5" y="1240.0356">23</text><text fill="#000000" font-family="sans-serif" font-size="13" lengthAdjust="spacing" textLength="149" x="436.5" y="1240.0356">Remove topic mapping</text><!--SRC=[lLLDRzim3BtxLn0z9O3JterXm9AYMu1rwnRt7CWsdMXr95McqmP5_lia-IDo6gVhOVN99lcU-F4e4wS2uPO9ji8C5bLIffednYApoZWM-5YXI35GJ1DFkMA2uEAQhpYn0k8dBk1EootFK5y0A-4wRZzxY7c2VtYVO-X8HzCuEr_jEfF4J8gosdH9j9yzn9SLRcJFCjNomGG5h28fgarYtmzWc7ok4u_WXejikfjdC491d7PBdetzo4-JLv4Jq5Wg4u17bAThY-0hKcDJnAMOYrnwnuMG6WxIZ0iguINN-1W2IzCGaDBzE3ZDQizpPKSmqyW8Owbuwd8pSoqfSCvpMHt3cfA490JDLsi2cG-2ZS6LyK8M7qBY-WqeCYLD7S2DStyczK5UaXgXwmqmaNLdRP1OneYTeJtCutJNZ-iiC7Tb-hX_Awq_-LfkaIVvKKDpwLZ6GHtXJStumUJ0Svuocn_aKaCFzFO8QxiRuOmLHSBIXwE3hP8i-_XiqzhDZi1nrQ4RCuNP54OrGGYAxGh9p7Rq5UBT2rTN46DHbA0Q2v24ainQWggIWfThBbOsgfulcFdQUO8fla5aK5TkOfuuhO7M22k-HU7loALPQvTJ17Vtq-_pnRUWoIs2bm3CSzWjzrbtmhrwD26OKqQqKnZ2bXKLZbr4wMbcQMVTajh7f4aobON3tlwAuyvJQTuPszl7slTXi0-CTkoixNtHDijNZHDr_yvfvFBQvy7kHJaeDm_ntD4rRA-aw8W-L8nU7qnsGup_GunIlLEBdjeMyS-xvST8xeSKEAoSvsFf-Ahor_ctcTaMwsnWmvIoHR_vGxd60ji_mx6m1i1cYYV0tdNx_b_1gTp_0W00]--></g></svg>