<?xml version="1.0" encoding="UTF-8" standalone="no"?><svg xmlns="http://www.w3.org/2000/svg" xmlns:xlink="http://www.w3.org/1999/xlink" contentStyleType="text/css" height="397px" preserveAspectRatio="none" style="width:597px;height:397px;background:#FFFFFF;" version="1.1" viewBox="0 0 597 397" width="597px" zoomAndPan="magnify"><defs/><g><rect fill="none" height="26.2969" id="_title" style="stroke:none;stroke-width:1.0;" width="489" x="53.25" y="10"/><text fill="#000000" font-family="sans-serif" font-size="14" font-weight="bold" lengthAdjust="spacing" textLength="479" x="58.25" y="27.9951">Managed Subscribe Sequence from Consumer's Perspective</text><line style="stroke:#181818;stroke-width:0.5;stroke-dasharray:5.0,5.0;" x1="89" x2="89" y1="73.5938" y2="361.7891"/><line style="stroke:#181818;stroke-width:0.5;stroke-dasharray:5.0,5.0;" x1="500.5" x2="500.5" y1="73.5938" y2="361.7891"/><line style="stroke:#181818;stroke-width:0.5;stroke-dasharray:5.0,5.0;" x1="561.5" x2="561.5" y1="73.5938" y2="361.7891"/><rect fill="#E2E2F0" height="30.2969" rx="2.5" ry="2.5" style="stroke:#181818;stroke-width:0.5;" width="168" x="5" y="42.2969"/><text fill="#000000" font-family="sans-serif" font-size="14" lengthAdjust="spacing" textLength="154" x="12" y="62.292">Digital Twin Consumer</text><rect fill="#E2E2F0" height="30.2969" rx="2.5" ry="2.5" style="stroke:#181818;stroke-width:0.5;" width="168" x="5" y="360.7891"/><text fill="#000000" font-family="sans-serif" font-size="14" lengthAdjust="spacing" textLength="154" x="12" y="380.7842">Digital Twin Consumer</text><rect fill="#E2E2F0" height="30.2969" rx="2.5" ry="2.5" style="stroke:#181818;stroke-width:0.5;" width="41" x="480.5" y="42.2969"/><text fill="#000000" font-family="sans-serif" font-size="14" lengthAdjust="spacing" textLength="27" x="487.5" y="62.292">Ibeji</text><rect fill="#E2E2F0" height="30.2969" rx="2.5" ry="2.5" style="stroke:#181818;stroke-width:0.5;" width="41" x="480.5" y="360.7891"/><text fill="#000000" font-family="sans-serif" font-size="14" lengthAdjust="spacing" textLength="27" x="487.5" y="380.7842">Ibeji</text><rect fill="#E2E2F0" height="30.2969" rx="2.5" ry="2.5" style="stroke:#181818;stroke-width:0.5;" width="60" x="531.5" y="42.2969"/><text fill="#000000" font-family="sans-serif" font-size="14" lengthAdjust="spacing" textLength="46" x="538.5" y="62.292">Broker</text><rect fill="#E2E2F0" height="30.2969" rx="2.5" ry="2.5" style="stroke:#181818;stroke-width:0.5;" width="60" x="531.5" y="360.7891"/><text fill="#000000" font-family="sans-serif" font-size="14" lengthAdjust="spacing" textLength="46" x="538.5" y="380.7842">Broker</text><polygon fill="#181818" points="489,100.7266,499,104.7266,489,108.7266,493,104.7266" style="stroke:#181818;stroke-width:1.0;"/><line style="stroke:#181818;stroke-width:1.0;" x1="89" x2="495" y1="104.7266" y2="104.7266"/><text fill="#000000" font-family="sans-serif" font-size="13" font-weight="bold" lengthAdjust="spacing" textLength="9" x="96" y="99.6606">1</text><text fill="#000000" font-family="sans-serif" font-size="13" lengthAdjust="spacing" textLength="115" x="109" y="99.6606">FindById - request</text><polygon fill="#181818" points="100,129.8594,90,133.8594,100,137.8594,96,133.8594" style="stroke:#181818;stroke-width:1.0;"/><line style="stroke:#181818;stroke-width:1.0;" x1="94" x2="500" y1="133.8594" y2="133.8594"/><text fill="#000000" font-family="sans-serif" font-size="13" font-weight="bold" lengthAdjust="spacing" textLength="9" x="106" y="128.7935">2</text><text fill="#000000" font-family="sans-serif" font-size="13" lengthAdjust="spacing" textLength="125" x="119" y="128.7935">FindById - response</text><polygon fill="#181818" points="489,158.9922,499,162.9922,489,166.9922,493,162.9922" style="stroke:#181818;stroke-width:1.0;"/><line style="stroke:#181818;stroke-width:1.0;" x1="89" x2="495" y1="162.9922" y2="162.9922"/><text fill="#000000" font-family="sans-serif" font-size="13" font-weight="bold" lengthAdjust="spacing" textLength="9" x="96" y="157.9263">3</text><text fill="#000000" font-family="sans-serif" font-size="13" lengthAdjust="spacing" textLength="375" x="109" y="157.9263">GetSubscriptionInfo (entity_id, constraints {freq, acc, etc})</text><polygon fill="#181818" points="100,188.125,90,192.125,100,196.125,96,192.125" style="stroke:#181818;stroke-width:1.0;"/><line style="stroke:#181818;stroke-width:1.0;" x1="94" x2="500" y1="192.125" y2="192.125"/><text fill="#000000" font-family="sans-serif" font-size="13" font-weight="bold" lengthAdjust="spacing" textLength="9" x="106" y="187.0591">4</text><text fill="#000000" font-family="sans-serif" font-size="13" lengthAdjust="spacing" textLength="197" x="119" y="187.0591">GetSubscriptionInfo - response</text><path d="M94,205.125 L94,230.125 L350,230.125 L350,215.125 L340,205.125 L94,205.125 " fill="#FEFFDD" style="stroke:#181818;stroke-width:0.5;"/><path d="M340,205.125 L340,215.125 L350,215.125 L340,205.125 " fill="#FEFFDD" style="stroke:#181818;stroke-width:0.5;"/><text fill="#000000" font-family="sans-serif" font-size="13" lengthAdjust="spacing" textLength="235" x="100" y="222.1919">SubInfo {topic, broker endpoint info}</text><polygon fill="#181818" points="549.5,252.3906,559.5,256.3906,549.5,260.3906,553.5,256.3906" style="stroke:#181818;stroke-width:1.0;"/><line style="stroke:#181818;stroke-width:1.0;" x1="89" x2="555.5" y1="256.3906" y2="256.3906"/><text fill="#000000" font-family="sans-serif" font-size="13" font-weight="bold" lengthAdjust="spacing" textLength="9" x="96" y="251.3247">5</text><text fill="#000000" font-family="sans-serif" font-size="13" lengthAdjust="spacing" textLength="160" x="109" y="251.3247">Subscribe (SubInfo.topic)</text><polygon fill="#181818" points="100,281.5234,90,285.5234,100,289.5234,96,285.5234" style="stroke:#181818;stroke-width:1.0;"/><line style="stroke:#181818;stroke-width:1.0;" x1="94" x2="560.5" y1="285.5234" y2="285.5234"/><text fill="#000000" font-family="sans-serif" font-size="13" font-weight="bold" lengthAdjust="spacing" textLength="9" x="106" y="280.4575">6</text><text fill="#000000" font-family="sans-serif" font-size="13" lengthAdjust="spacing" textLength="29" x="119" y="280.4575">data</text><polygon fill="#181818" points="549.5,310.6563,559.5,314.6563,549.5,318.6563,553.5,314.6563" style="stroke:#181818;stroke-width:1.0;"/><line style="stroke:#181818;stroke-width:1.0;" x1="89" x2="555.5" y1="314.6563" y2="314.6563"/><text fill="#000000" font-family="sans-serif" font-size="13" font-weight="bold" lengthAdjust="spacing" textLength="9" x="96" y="309.5903">7</text><text fill="#000000" font-family="sans-serif" font-size="13" lengthAdjust="spacing" textLength="176" x="109" y="309.5903">Unsubscribe (SubInfo.topic)</text><line style="stroke:#181818;stroke-width:2.0;" x1="96" x2="106" y1="338.7891" y2="348.7891"/><line style="stroke:#181818;stroke-width:2.0;" x1="96" x2="106" y1="348.7891" y2="338.7891"/><line style="stroke:#181818;stroke-width:1.0;" x1="101" x2="560.5" y1="343.7891" y2="343.7891"/><text fill="#000000" font-family="sans-serif" font-size="13" font-weight="bold" lengthAdjust="spacing" textLength="9" x="106" y="338.7231">8</text><text fill="#000000" font-family="sans-serif" font-size="13" lengthAdjust="spacing" textLength="29" x="119" y="338.7231">data</text><!--MD5=[42c7b8ccea08e46b48442777bfc883ea]
@startuml Managed Subscribe Consumer
title Managed Subscribe Sequence from Consumer's Perspective
participant "Digital Twin Consumer" as DTConsumer
participant Ibeji
participant Broker

autonumber

DTConsumer -> Ibeji: FindById - request
DTConsumer <- Ibeji: FindById - response
DTConsumer -> Ibeji: GetSubscriptionInfo (entity_id, constraints {freq, acc, etc})
Ibeji -> DTConsumer: GetSubscriptionInfo - response
note right of DTConsumer: SubInfo {topic, broker endpoint info}
DTConsumer -> Broker: Subscribe (SubInfo.topic)
DTConsumer <- Broker : data
DTConsumer -> Broker: Unsubscribe (SubInfo.topic)
DTConsumer x<- Broker: data
@enduml

PlantUML version 1.2022.7(Mon Aug 22 10:01:30 PDT 2022)
(GPL source distribution)
Java Runtime: OpenJDK Runtime Environment
JVM: OpenJDK 64-Bit Server VM
Default Encoding: UTF-8
Language: en
Country: null
--></g></svg>