<?xml version="1.0" encoding="UTF-8" standalone="no"?><svg xmlns="http://www.w3.org/2000/svg" xmlns:xlink="http://www.w3.org/1999/xlink" contentStyleType="text/css" height="397px" preserveAspectRatio="none" style="width:507px;height:397px;background:#FFFFFF;" version="1.1" viewBox="0 0 507 397" width="507px" zoomAndPan="magnify"><defs/><g><rect fill="none" height="26.2969" id="_title" style="stroke:none;stroke-width:1.0;" width="489" x="5" y="10"/><text fill="#000000" font-family="sans-serif" font-size="14" font-weight="bold" lengthAdjust="spacing" textLength="479" x="10" y="27.9951">Managed Subscribe Sequence from Consumer's Perspective</text><line style="stroke:#181818;stroke-width:0.5;stroke-dasharray:5.0,5.0;" x1="92.25" x2="92.25" y1="73.5938" y2="361.7891"/><line style="stroke:#181818;stroke-width:0.5;stroke-dasharray:5.0,5.0;" x1="400.75" x2="400.75" y1="73.5938" y2="361.7891"/><line style="stroke:#181818;stroke-width:0.5;stroke-dasharray:5.0,5.0;" x1="461.75" x2="461.75" y1="73.5938" y2="361.7891"/><rect fill="#E2E2F0" height="30.2969" rx="2.5" ry="2.5" style="stroke:#181818;stroke-width:0.5;" width="168" x="8.25" y="42.2969"/><text fill="#000000" font-family="sans-serif" font-size="14" lengthAdjust="spacing" textLength="154" x="15.25" y="62.292">Digital Twin Consumer</text><rect fill="#E2E2F0" height="30.2969" rx="2.5" ry="2.5" style="stroke:#181818;stroke-width:0.5;" width="168" x="8.25" y="360.7891"/><text fill="#000000" font-family="sans-serif" font-size="14" lengthAdjust="spacing" textLength="154" x="15.25" y="380.7842">Digital Twin Consumer</text><rect fill="#E2E2F0" height="30.2969" rx="2.5" ry="2.5" style="stroke:#181818;stroke-width:0.5;" width="41" x="380.75" y="42.2969"/><text fill="#000000" font-family="sans-serif" font-size="14" lengthAdjust="spacing" textLength="27" x="387.75" y="62.292">Ibeji</text><rect fill="#E2E2F0" height="30.2969" rx="2.5" ry="2.5" style="stroke:#181818;stroke-width:0.5;" width="41" x="380.75" y="360.7891"/><text fill="#000000" font-family="sans-serif" font-size="14" lengthAdjust="spacing" textLength="27" x="387.75" y="380.7842">Ibeji</text><rect fill="#E2E2F0" height="30.2969" rx="2.5" ry="2.5" style="stroke:#181818;stroke-width:0.5;" width="60" x="431.75" y="42.2969"/><text fill="#000000" font-family="sans-serif" font-size="14" lengthAdjust="spacing" textLength="46" x="438.75" y="62.292">Broker</text><rect fill="#E2E2F0" height="30.2969" rx="2.5" ry="2.5" style="stroke:#181818;stroke-width:0.5;" width="60" x="431.75" y="360.7891"/><text fill="#000000" font-family="sans-serif" font-size="14" lengthAdjust="spacing" textLength="46" x="438.75" y="380.7842">Broker</text><polygon fill="#181818" points="389.25,100.7266,399.25,104.7266,389.25,108.7266,393.25,104.7266" style="stroke:#181818;stroke-width:1.0;"/><line style="stroke:#181818;stroke-width:1.0;" x1="92.25" x2="395.25" y1="104.7266" y2="104.7266"/><text fill="#000000" font-family="sans-serif" font-size="13" font-weight="bold" lengthAdjust="spacing" textLength="9" x="99.25" y="99.6606">1</text><text fill="#000000" font-family="sans-serif" font-size="13" lengthAdjust="spacing" textLength="115" x="112.25" y="99.6606">FindById - request</text><polygon fill="#181818" points="103.25,129.8594,93.25,133.8594,103.25,137.8594,99.25,133.8594" style="stroke:#181818;stroke-width:1.0;"/><line style="stroke:#181818;stroke-width:1.0;" x1="97.25" x2="400.25" y1="133.8594" y2="133.8594"/><text fill="#000000" font-family="sans-serif" font-size="13" font-weight="bold" lengthAdjust="spacing" textLength="9" x="109.25" y="128.7935">2</text><text fill="#000000" font-family="sans-serif" font-size="13" lengthAdjust="spacing" textLength="125" x="122.25" y="128.7935">FindById - response</text><polygon fill="#181818" points="389.25,158.9922,399.25,162.9922,389.25,166.9922,393.25,162.9922" style="stroke:#181818;stroke-width:1.0;"/><line style="stroke:#181818;stroke-width:1.0;" x1="92.25" x2="395.25" y1="162.9922" y2="162.9922"/><text fill="#000000" font-family="sans-serif" font-size="13" font-weight="bold" lengthAdjust="spacing" textLength="9" x="99.25" y="157.9263">3</text><text fill="#000000" font-family="sans-serif" font-size="13" lengthAdjust="spacing" textLength="272" x="112.25" y="157.9263">GetSubscriptionInfo (entity_id, constraints)</text><polygon fill="#181818" points="103.25,188.125,93.25,192.125,103.25,196.125,99.25,192.125" style="stroke:#181818;stroke-width:1.0;"/><line style="stroke:#181818;stroke-width:1.0;" x1="97.25" x2="400.25" y1="192.125" y2="192.125"/><text fill="#000000" font-family="sans-serif" font-size="13" font-weight="bold" lengthAdjust="spacing" textLength="9" x="109.25" y="187.0591">4</text><text fill="#000000" font-family="sans-serif" font-size="13" lengthAdjust="spacing" textLength="197" x="122.25" y="187.0591">GetSubscriptionInfo - response</text><path d="M97.25,205.125 L97.25,230.125 L353.25,230.125 L353.25,215.125 L343.25,205.125 L97.25,205.125 " fill="#FEFFDD" style="stroke:#181818;stroke-width:0.5;"/><path d="M343.25,205.125 L343.25,215.125 L353.25,215.125 L343.25,205.125 " fill="#FEFFDD" style="stroke:#181818;stroke-width:0.5;"/><text fill="#000000" font-family="sans-serif" font-size="13" lengthAdjust="spacing" textLength="235" x="103.25" y="222.1919">SubInfo {topic, broker endpoint info}</text><polygon fill="#181818" points="449.75,252.3906,459.75,256.3906,449.75,260.3906,453.75,256.3906" style="stroke:#181818;stroke-width:1.0;"/><line style="stroke:#181818;stroke-width:1.0;" x1="92.25" x2="455.75" y1="256.3906" y2="256.3906"/><text fill="#000000" font-family="sans-serif" font-size="13" font-weight="bold" lengthAdjust="spacing" textLength="9" x="99.25" y="251.3247">5</text><text fill="#000000" font-family="sans-serif" font-size="13" lengthAdjust="spacing" textLength="160" x="112.25" y="251.3247">Subscribe (SubInfo.topic)</text><polygon fill="#181818" points="103.25,281.5234,93.25,285.5234,103.25,289.5234,99.25,285.5234" style="stroke:#181818;stroke-width:1.0;"/><line style="stroke:#181818;stroke-width:1.0;" x1="97.25" x2="460.75" y1="285.5234" y2="285.5234"/><text fill="#000000" font-family="sans-serif" font-size="13" font-weight="bold" lengthAdjust="spacing" textLength="9" x="109.25" y="280.4575">6</text><text fill="#000000" font-family="sans-serif" font-size="13" lengthAdjust="spacing" textLength="29" x="122.25" y="280.4575">data</text><polygon fill="#181818" points="449.75,310.6563,459.75,314.6563,449.75,318.6563,453.75,314.6563" style="stroke:#181818;stroke-width:1.0;"/><line style="stroke:#181818;stroke-width:1.0;" x1="92.25" x2="455.75" y1="314.6563" y2="314.6563"/><text fill="#000000" font-family="sans-serif" font-size="13" font-weight="bold" lengthAdjust="spacing" textLength="9" x="99.25" y="309.5903">7</text><text fill="#000000" font-family="sans-serif" font-size="13" lengthAdjust="spacing" textLength="176" x="112.25" y="309.5903">Unsubscribe (SubInfo.topic)</text><line style="stroke:#181818;stroke-width:2.0;" x1="99.25" x2="109.25" y1="338.7891" y2="348.7891"/><line style="stroke:#181818;stroke-width:2.0;" x1="99.25" x2="109.25" y1="348.7891" y2="338.7891"/><line style="stroke:#181818;stroke-width:1.0;" x1="104.25" x2="460.75" y1="343.7891" y2="343.7891"/><text fill="#000000" font-family="sans-serif" font-size="13" font-weight="bold" lengthAdjust="spacing" textLength="9" x="109.25" y="338.7231">8</text><text fill="#000000" font-family="sans-serif" font-size="13" lengthAdjust="spacing" textLength="29" x="122.25" y="338.7231">data</text><!--MD5=[283f6b318a3bcbe75a02ee2fda28fabe]
@startuml Managed Subscribe Consumer
title Managed Subscribe Sequence from Consumer's Perspective
participant "Digital Twin Consumer" as DTConsumer
participant Ibeji
participant Broker

autonumber

DTConsumer -> Ibeji: FindById - request
DTConsumer <- Ibeji: FindById - response
DTConsumer -> Ibeji: GetSubscriptionInfo (entity_id, constraints)
Ibeji -> DTConsumer: GetSubscriptionInfo - response
note right of DTConsumer: SubInfo {topic, broker endpoint info}
DTConsumer -> Broker: Subscribe (SubInfo.topic)
DTConsumer <- Broker : data
DTConsumer -> Broker: Unsubscribe (SubInfo.topic)
DTConsumer x<- Broker: data
@enduml

PlantUML version 1.2022.7(Mon Aug 22 10:01:30 PDT 2022)
(GPL source distribution)
Java Runtime: OpenJDK Runtime Environment
JVM: OpenJDK 64-Bit Server VM
Default Encoding: UTF-8
Language: en
Country: null
--></g></svg>