<?xml version="1.0" encoding="us-ascii" standalone="no"?><svg xmlns="http://www.w3.org/2000/svg" xmlns:xlink="http://www.w3.org/1999/xlink" contentStyleType="text/css" height="397px" preserveAspectRatio="none" style="width:507px;height:397px;background:#FFFFFF;" version="1.1" viewBox="0 0 507 397" width="507px" zoomAndPan="magnify"><defs/><g><text fill="#000000" font-family="sans-serif" font-size="14" font-weight="bold" lengthAdjust="spacing" textLength="479" x="10.75" y="27.9951">Managed Subscribe Sequence from Consumer's Perspective</text><line style="stroke:#181818;stroke-width:0.5;stroke-dasharray:5.0,5.0;" x1="92" x2="92" y1="73.5938" y2="361.7891"/><line style="stroke:#181818;stroke-width:0.5;stroke-dasharray:5.0,5.0;" x1="400.5" x2="400.5" y1="73.5938" y2="361.7891"/><line style="stroke:#181818;stroke-width:0.5;stroke-dasharray:5.0,5.0;" x1="464.5" x2="464.5" y1="73.5938" y2="361.7891"/><rect fill="#E2E2F0" height="30.2969" rx="2.5" ry="2.5" style="stroke:#181818;stroke-width:0.5;" width="174" x="5" y="42.2969"/><text fill="#000000" font-family="sans-serif" font-size="14" lengthAdjust="spacing" textLength="160" x="12" y="62.292">Digital Twin Consumer</text><rect fill="#E2E2F0" height="30.2969" rx="2.5" ry="2.5" style="stroke:#181818;stroke-width:0.5;" width="174" x="5" y="360.7891"/><text fill="#000000" font-family="sans-serif" font-size="14" lengthAdjust="spacing" textLength="160" x="12" y="380.7842">Digital Twin Consumer</text><rect fill="#E2E2F0" height="30.2969" rx="2.5" ry="2.5" style="stroke:#181818;stroke-width:0.5;" width="45" x="378.5" y="42.2969"/><text fill="#000000" font-family="sans-serif" font-size="14" lengthAdjust="spacing" textLength="31" x="385.5" y="62.292">Ibeji</text><rect fill="#E2E2F0" height="30.2969" rx="2.5" ry="2.5" style="stroke:#181818;stroke-width:0.5;" width="45" x="378.5" y="360.7891"/><text fill="#000000" font-family="sans-serif" font-size="14" lengthAdjust="spacing" textLength="31" x="385.5" y="380.7842">Ibeji</text><rect fill="#E2E2F0" height="30.2969" rx="2.5" ry="2.5" style="stroke:#181818;stroke-width:0.5;" width="63" x="433.5" y="42.2969"/><text fill="#000000" font-family="sans-serif" font-size="14" lengthAdjust="spacing" textLength="49" x="440.5" y="62.292">Broker</text><rect fill="#E2E2F0" height="30.2969" rx="2.5" ry="2.5" style="stroke:#181818;stroke-width:0.5;" width="63" x="433.5" y="360.7891"/><text fill="#000000" font-family="sans-serif" font-size="14" lengthAdjust="spacing" textLength="49" x="440.5" y="380.7842">Broker</text><polygon fill="#181818" points="389,100.7266,399,104.7266,389,108.7266,393,104.7266" style="stroke:#181818;stroke-width:1.0;"/><line style="stroke:#181818;stroke-width:1.0;" x1="92" x2="395" y1="104.7266" y2="104.7266"/><text fill="#000000" font-family="sans-serif" font-size="13" font-weight="bold" lengthAdjust="spacing" textLength="9" x="99" y="99.6606">1</text><text fill="#000000" font-family="sans-serif" font-size="13" lengthAdjust="spacing" textLength="115" x="112" y="99.6606">FindById - request</text><polygon fill="#181818" points="103,129.8594,93,133.8594,103,137.8594,99,133.8594" style="stroke:#181818;stroke-width:1.0;"/><line style="stroke:#181818;stroke-width:1.0;" x1="97" x2="400" y1="133.8594" y2="133.8594"/><text fill="#000000" font-family="sans-serif" font-size="13" font-weight="bold" lengthAdjust="spacing" textLength="9" x="109" y="128.7935">2</text><text fill="#000000" font-family="sans-serif" font-size="13" lengthAdjust="spacing" textLength="125" x="122" y="128.7935">FindById - response</text><polygon fill="#181818" points="389,158.9922,399,162.9922,389,166.9922,393,162.9922" style="stroke:#181818;stroke-width:1.0;"/><line style="stroke:#181818;stroke-width:1.0;" x1="92" x2="395" y1="162.9922" y2="162.9922"/><text fill="#000000" font-family="sans-serif" font-size="13" font-weight="bold" lengthAdjust="spacing" textLength="8" x="99" y="157.9263">3</text><text fill="#000000" font-family="sans-serif" font-size="13" lengthAdjust="spacing" textLength="273" x="111" y="157.9263">GetSubscriptionInfo (entity_id, constraints)</text><polygon fill="#181818" points="103,188.125,93,192.125,103,196.125,99,192.125" style="stroke:#181818;stroke-width:1.0;"/><line style="stroke:#181818;stroke-width:1.0;" x1="97" x2="400" y1="192.125" y2="192.125"/><text fill="#000000" font-family="sans-serif" font-size="13" font-weight="bold" lengthAdjust="spacing" textLength="9" x="109" y="187.0591">4</text><text fill="#000000" font-family="sans-serif" font-size="13" lengthAdjust="spacing" textLength="197" x="122" y="187.0591">GetSubscriptionInfo - response</text><path d="M97,205.125 L97,230.125 L356,230.125 L356,215.125 L346,205.125 L97,205.125 " fill="#FEFFDD" style="stroke:#181818;stroke-width:0.5;"/><path d="M346,205.125 L346,215.125 L356,215.125 L346,205.125 " fill="#FEFFDD" style="stroke:#181818;stroke-width:0.5;"/><text fill="#000000" font-family="sans-serif" font-size="13" lengthAdjust="spacing" textLength="238" x="103" y="222.1919">SubInfo {topic, broker endpoint info}</text><polygon fill="#181818" points="453,252.3906,463,256.3906,453,260.3906,457,256.3906" style="stroke:#181818;stroke-width:1.0;"/><line style="stroke:#181818;stroke-width:1.0;" x1="92" x2="459" y1="256.3906" y2="256.3906"/><text fill="#000000" font-family="sans-serif" font-size="13" font-weight="bold" lengthAdjust="spacing" textLength="9" x="99" y="251.3247">5</text><text fill="#000000" font-family="sans-serif" font-size="13" lengthAdjust="spacing" textLength="159" x="112" y="251.3247">Subscribe (SubInfo.topic)</text><polygon fill="#181818" points="103,281.5234,93,285.5234,103,289.5234,99,285.5234" style="stroke:#181818;stroke-width:1.0;"/><line style="stroke:#181818;stroke-width:1.0;" x1="97" x2="464" y1="285.5234" y2="285.5234"/><text fill="#000000" font-family="sans-serif" font-size="13" font-weight="bold" lengthAdjust="spacing" textLength="9" x="109" y="280.4575">6</text><text fill="#000000" font-family="sans-serif" font-size="13" lengthAdjust="spacing" textLength="29" x="122" y="280.4575">data</text><polygon fill="#181818" points="453,310.6563,463,314.6563,453,318.6563,457,314.6563" style="stroke:#181818;stroke-width:1.0;"/><line style="stroke:#181818;stroke-width:1.0;" x1="92" x2="459" y1="314.6563" y2="314.6563"/><text fill="#000000" font-family="sans-serif" font-size="13" font-weight="bold" lengthAdjust="spacing" textLength="9" x="99" y="309.5903">7</text><text fill="#000000" font-family="sans-serif" font-size="13" lengthAdjust="spacing" textLength="175" x="112" y="309.5903">Unsubscribe (SubInfo.topic)</text><line style="stroke:#181818;stroke-width:2.0;" x1="99" x2="109" y1="338.7891" y2="348.7891"/><line style="stroke:#181818;stroke-width:2.0;" x1="99" x2="109" y1="348.7891" y2="338.7891"/><line style="stroke:#181818;stroke-width:1.0;" x1="104" x2="464" y1="343.7891" y2="343.7891"/><text fill="#000000" font-family="sans-serif" font-size="13" font-weight="bold" lengthAdjust="spacing" textLength="9" x="109" y="338.7231">8</text><text fill="#000000" font-family="sans-serif" font-size="13" lengthAdjust="spacing" textLength="29" x="122" y="338.7231">data</text><!--SRC=[ZP7FJiCm38VlVGfh5pPfvG4gn65Ce1wGa3REA4tSObYTaBZ0X7XtqdPixLGaRldp-puxZf3i4EuLgmeDR9eYQ4y5mWRV6cIDK7fRmutbqDJeBm8ye0yEjT0x9avv8KrEiS1iJHM9si7sW_W8p405M6z_joCYB_25HYShRrzZA56DM6xgebsVO4YlUoQ3MsApskS6Kl1jeq66kQjqCXTS3E2qy0xby7OdP3ddqi8SMKZsJsIMe2CYNX5BM2GTqy8drRHXK9Mj87YgdWLiEG8ZrOM_n3hIIoYw8G2oSJRM0ugNtsTTzuFA1lyrFsWkEylYR1nz7Z8mIjGVhiTuz0_Rvr7Nstu0]--></g></svg>