<?xml version="1.0" encoding="us-ascii" standalone="no"?><svg xmlns="http://www.w3.org/2000/svg" xmlns:xlink="http://www.w3.org/1999/xlink" contentStyleType="text/css" height="1336px" preserveAspectRatio="none" style="width:1216px;height:1336px;background:#FFFFFF;" version="1.1" viewBox="0 0 1216 1336" width="1216px" zoomAndPan="magnify"><defs/><g><text fill="#000000" font-family="sans-serif" font-size="14" font-weight="bold" lengthAdjust="spacing" textLength="301" x="456.5" y="27.9951">Managed Subscribe Module Sequence</text><rect fill="#DDDDDD" height="1287.2344" style="stroke:#181818;stroke-width:0.5;" width="394" x="184" y="43.2969"/><text fill="#000000" font-family="sans-serif" font-size="13" font-weight="bold" lengthAdjust="spacing" textLength="31" x="365.5" y="55.3638">Ibeji</text><line style="stroke:#181818;stroke-width:0.5;stroke-dasharray:5.0,5.0;" x1="86" x2="86" y1="93.7266" y2="1296.2344"/><line style="stroke:#181818;stroke-width:0.5;stroke-dasharray:5.0,5.0;" x1="272" x2="272" y1="93.7266" y2="1296.2344"/><line style="stroke:#181818;stroke-width:0.5;stroke-dasharray:5.0,5.0;" x1="470" x2="470" y1="93.7266" y2="1296.2344"/><line style="stroke:#181818;stroke-width:0.5;stroke-dasharray:5.0,5.0;" x1="779" x2="779" y1="93.7266" y2="1296.2344"/><line style="stroke:#181818;stroke-width:0.5;stroke-dasharray:5.0,5.0;" x1="908" x2="908" y1="93.7266" y2="1296.2344"/><line style="stroke:#181818;stroke-width:0.5;stroke-dasharray:5.0,5.0;" x1="1178" x2="1178" y1="93.7266" y2="1296.2344"/><rect fill="#E2E2F0" height="30.2969" rx="2.5" ry="2.5" style="stroke:#181818;stroke-width:0.5;" width="162" x="5" y="62.4297"/><text fill="#000000" font-family="sans-serif" font-size="14" lengthAdjust="spacing" textLength="148" x="12" y="82.4248">Digital Twin Provider</text><rect fill="#E2E2F0" height="30.2969" rx="2.5" ry="2.5" style="stroke:#181818;stroke-width:0.5;" width="162" x="5" y="1295.2344"/><text fill="#000000" font-family="sans-serif" font-size="14" lengthAdjust="spacing" textLength="148" x="12" y="1315.2295">Digital Twin Provider</text><rect fill="#E2E2F0" height="30.2969" rx="2.5" ry="2.5" style="stroke:#181818;stroke-width:0.5;" width="168" x="188" y="62.4297"/><text fill="#000000" font-family="sans-serif" font-size="14" lengthAdjust="spacing" textLength="154" x="195" y="82.4248">InVehicle Digital Twin</text><rect fill="#E2E2F0" height="30.2969" rx="2.5" ry="2.5" style="stroke:#181818;stroke-width:0.5;" width="168" x="188" y="1295.2344"/><text fill="#000000" font-family="sans-serif" font-size="14" lengthAdjust="spacing" textLength="154" x="195" y="1315.2295">InVehicle Digital Twin</text><rect fill="#E2E2F0" height="30.2969" rx="2.5" ry="2.5" style="stroke:#181818;stroke-width:0.5;" width="208" x="366" y="62.4297"/><text fill="#000000" font-family="sans-serif" font-size="14" lengthAdjust="spacing" textLength="194" x="373" y="82.4248">Managed Subscribe Module</text><rect fill="#E2E2F0" height="30.2969" rx="2.5" ry="2.5" style="stroke:#181818;stroke-width:0.5;" width="208" x="366" y="1295.2344"/><text fill="#000000" font-family="sans-serif" font-size="14" lengthAdjust="spacing" textLength="194" x="373" y="1315.2295">Managed Subscribe Module</text><rect fill="#E2E2F0" height="30.2969" rx="2.5" ry="2.5" style="stroke:#181818;stroke-width:0.5;" width="174" x="692" y="62.4297"/><text fill="#000000" font-family="sans-serif" font-size="14" lengthAdjust="spacing" textLength="160" x="699" y="82.4248">Digital Twin Consumer</text><rect fill="#E2E2F0" height="30.2969" rx="2.5" ry="2.5" style="stroke:#181818;stroke-width:0.5;" width="174" x="692" y="1295.2344"/><text fill="#000000" font-family="sans-serif" font-size="14" lengthAdjust="spacing" textLength="160" x="699" y="1315.2295">Digital Twin Consumer</text><rect fill="#E2E2F0" height="30.2969" rx="2.5" ry="2.5" style="stroke:#181818;stroke-width:0.5;" width="65" x="876" y="62.4297"/><text fill="#000000" font-family="sans-serif" font-size="14" lengthAdjust="spacing" textLength="51" x="883" y="82.4248">Agemo</text><rect fill="#E2E2F0" height="30.2969" rx="2.5" ry="2.5" style="stroke:#181818;stroke-width:0.5;" width="65" x="876" y="1295.2344"/><text fill="#000000" font-family="sans-serif" font-size="14" lengthAdjust="spacing" textLength="51" x="883" y="1315.2295">Agemo</text><rect fill="#E2E2F0" height="30.2969" rx="2.5" ry="2.5" style="stroke:#181818;stroke-width:0.5;" width="63" x="1147" y="62.4297"/><text fill="#000000" font-family="sans-serif" font-size="14" lengthAdjust="spacing" textLength="49" x="1154" y="82.4248">Broker</text><rect fill="#E2E2F0" height="30.2969" rx="2.5" ry="2.5" style="stroke:#181818;stroke-width:0.5;" width="63" x="1147" y="1295.2344"/><text fill="#000000" font-family="sans-serif" font-size="14" lengthAdjust="spacing" textLength="49" x="1154" y="1315.2295">Broker</text><polygon fill="#181818" points="283,120.8594,273,124.8594,283,128.8594,279,124.8594" style="stroke:#181818;stroke-width:1.0;"/><line style="stroke:#181818;stroke-width:1.0;" x1="277" x2="778" y1="124.8594" y2="124.8594"/><text fill="#000000" font-family="sans-serif" font-size="13" font-weight="bold" lengthAdjust="spacing" textLength="9" x="289" y="119.7935">1</text><text fill="#000000" font-family="sans-serif" font-size="13" lengthAdjust="spacing" textLength="122" x="302" y="119.7935">FindById (entity_id)</text><polygon fill="#181818" points="767,149.9922,777,153.9922,767,157.9922,771,153.9922" style="stroke:#181818;stroke-width:1.0;"/><line style="stroke:#181818;stroke-width:1.0;" x1="272" x2="773" y1="153.9922" y2="153.9922"/><text fill="#000000" font-family="sans-serif" font-size="13" font-weight="bold" lengthAdjust="spacing" textLength="9" x="279" y="148.9263">2</text><text fill="#000000" font-family="sans-serif" font-size="13" lengthAdjust="spacing" textLength="125" x="292" y="148.9263">FindById - response</text><polygon fill="#181818" points="481,179.125,471,183.125,481,187.125,477,183.125" style="stroke:#181818;stroke-width:1.0;"/><line style="stroke:#181818;stroke-width:1.0;" x1="475" x2="778" y1="183.125" y2="183.125"/><text fill="#000000" font-family="sans-serif" font-size="13" font-weight="bold" lengthAdjust="spacing" textLength="8" x="487" y="178.0591">3</text><text fill="#000000" font-family="sans-serif" font-size="13" lengthAdjust="spacing" textLength="273" x="499" y="178.0591">GetSubscriptionInfo (entity_id, constraints)</text><polygon fill="#181818" points="896.5,208.2578,906.5,212.2578,896.5,216.2578,900.5,212.2578" style="stroke:#181818;stroke-width:1.0;"/><line style="stroke:#181818;stroke-width:1.0;" x1="470" x2="902.5" y1="212.2578" y2="212.2578"/><text fill="#000000" font-family="sans-serif" font-size="13" font-weight="bold" lengthAdjust="spacing" textLength="9" x="477" y="207.1919">4</text><text fill="#000000" font-family="sans-serif" font-size="13" lengthAdjust="spacing" textLength="139" x="490" y="207.1919">CreateTopic - request</text><polygon fill="#181818" points="481,237.3906,471,241.3906,481,245.3906,477,241.3906" style="stroke:#181818;stroke-width:1.0;"/><line style="stroke:#181818;stroke-width:1.0;" x1="475" x2="907.5" y1="241.3906" y2="241.3906"/><text fill="#000000" font-family="sans-serif" font-size="13" font-weight="bold" lengthAdjust="spacing" textLength="9" x="487" y="236.3247">5</text><text fill="#000000" font-family="sans-serif" font-size="13" lengthAdjust="spacing" textLength="149" x="500" y="236.3247">CreateTopic - response</text><path d="M475,254.3906 L475,279.3906 L734,279.3906 L734,264.3906 L724,254.3906 L475,254.3906 " fill="#FEFFDD" style="stroke:#181818;stroke-width:0.5;"/><path d="M724,254.3906 L724,264.3906 L734,264.3906 L724,254.3906 " fill="#FEFFDD" style="stroke:#181818;stroke-width:0.5;"/><text fill="#000000" font-family="sans-serif" font-size="13" lengthAdjust="spacing" textLength="238" x="481" y="271.4575">SubInfo {topic, broker endpoint info}</text><line style="stroke:#181818;stroke-width:1.0;" x1="470" x2="512" y1="305.6563" y2="305.6563"/><line style="stroke:#181818;stroke-width:1.0;" x1="512" x2="512" y1="305.6563" y2="318.6563"/><line style="stroke:#181818;stroke-width:1.0;" x1="471" x2="512" y1="318.6563" y2="318.6563"/><polygon fill="#181818" points="481,314.6563,471,318.6563,481,322.6563,477,318.6563" style="stroke:#181818;stroke-width:1.0;"/><text fill="#000000" font-family="sans-serif" font-size="13" font-weight="bold" lengthAdjust="spacing" textLength="9" x="477" y="300.5903">6</text><text fill="#000000" font-family="sans-serif" font-size="13" lengthAdjust="spacing" textLength="240" x="490" y="300.5903">Store entity_id and SubInfo metadata</text><polygon fill="#181818" points="767,343.7891,777,347.7891,767,351.7891,771,347.7891" style="stroke:#181818;stroke-width:1.0;"/><line style="stroke:#181818;stroke-width:1.0;" x1="470" x2="773" y1="347.7891" y2="347.7891"/><text fill="#000000" font-family="sans-serif" font-size="13" font-weight="bold" lengthAdjust="spacing" textLength="9" x="477" y="342.7231">7</text><text fill="#000000" font-family="sans-serif" font-size="13" lengthAdjust="spacing" textLength="197" x="490" y="342.7231">GetSubscriptionInfo - response</text><path d="M515,360.7891 L515,385.7891 L774,385.7891 L774,370.7891 L764,360.7891 L515,360.7891 " fill="#FEFFDD" style="stroke:#181818;stroke-width:0.5;"/><path d="M764,360.7891 L764,370.7891 L774,370.7891 L764,360.7891 " fill="#FEFFDD" style="stroke:#181818;stroke-width:0.5;"/><text fill="#000000" font-family="sans-serif" font-size="13" lengthAdjust="spacing" textLength="238" x="521" y="377.856">SubInfo {topic, broker endpoint info}</text><polygon fill="#181818" points="1166.5,408.0547,1176.5,412.0547,1166.5,416.0547,1170.5,412.0547" style="stroke:#181818;stroke-width:1.0;"/><line style="stroke:#181818;stroke-width:1.0;" x1="779" x2="1172.5" y1="412.0547" y2="412.0547"/><text fill="#000000" font-family="sans-serif" font-size="13" font-weight="bold" lengthAdjust="spacing" textLength="9" x="786" y="406.9888">8</text><text fill="#000000" font-family="sans-serif" font-size="13" lengthAdjust="spacing" textLength="159" x="799" y="406.9888">Subscribe (SubInfo.topic)</text><polygon fill="#181818" points="919.5,437.1875,909.5,441.1875,919.5,445.1875,915.5,441.1875" style="stroke:#181818;stroke-width:1.0;"/><line style="stroke:#181818;stroke-width:1.0;" x1="913.5" x2="1177.5" y1="441.1875" y2="441.1875"/><text fill="#000000" font-family="sans-serif" font-size="13" font-weight="bold" lengthAdjust="spacing" textLength="9" x="925.5" y="436.1216">9</text><text fill="#000000" font-family="sans-serif" font-size="13" lengthAdjust="spacing" textLength="208" x="938.5" y="436.1216">Sub notification for SubInfo.topic</text><polygon fill="#181818" points="481,466.3203,471,470.3203,481,474.3203,477,470.3203" style="stroke:#181818;stroke-width:1.0;"/><line style="stroke:#181818;stroke-width:1.0;" x1="475" x2="907.5" y1="470.3203" y2="470.3203"/><text fill="#000000" font-family="sans-serif" font-size="13" font-weight="bold" lengthAdjust="spacing" textLength="19" x="487" y="465.2544">10</text><text fill="#000000" font-family="sans-serif" font-size="13" lengthAdjust="spacing" textLength="281" x="510" y="465.2544">ManageTopicCallback (SubInfo.topic, action)</text><polygon fill="#181818" points="97,495.4531,87,499.4531,97,503.4531,93,499.4531" style="stroke:#181818;stroke-width:1.0;"/><line style="stroke:#181818;stroke-width:1.0;" x1="91" x2="469" y1="499.4531" y2="499.4531"/><text fill="#000000" font-family="sans-serif" font-size="13" font-weight="bold" lengthAdjust="spacing" textLength="18" x="103" y="494.3872">11</text><text fill="#000000" font-family="sans-serif" font-size="13" lengthAdjust="spacing" textLength="247" x="125" y="494.3872">TopicManagementCB (action, payload)</text><path d="M91,512.4531 L91,733.4531 L317,733.4531 L317,522.4531 L307,512.4531 L91,512.4531 " fill="#FEFFDD" style="stroke:#181818;stroke-width:0.5;"/><path d="M307,512.4531 L307,522.4531 L317,522.4531 L307,512.4531 " fill="#FEFFDD" style="stroke:#181818;stroke-width:0.5;"/><text fill="#000000" font-family="sans-serif" font-size="13" lengthAdjust="spacing" textLength="205" x="97" y="529.52">Tells provider to start publishing</text><text fill="#000000" font-family="sans-serif" font-size="13" lengthAdjust="spacing" textLength="200" x="97" y="544.6528">entity id data on provided topic</text><text fill="#000000" font-family="sans-serif" font-size="13" lengthAdjust="spacing" textLength="170" x="97" y="559.7856">with the given constraints.</text><text fill="#000000" font-family="sans-serif" font-size="13" lengthAdjust="spacing" textLength="4" x="97" y="574.9185">&#160;</text><text fill="#000000" font-family="sans-serif" font-size="13" lengthAdjust="spacing" textLength="100" x="97" y="590.0513">action: PUBLISH</text><text fill="#000000" font-family="sans-serif" font-size="13" lengthAdjust="spacing" textLength="69" x="97" y="605.1841">payload: {</text><text fill="#000000" font-family="sans-serif" font-size="13" lengthAdjust="spacing" textLength="59" x="113" y="620.3169">entity_id,</text><text fill="#000000" font-family="sans-serif" font-size="13" lengthAdjust="spacing" textLength="35" x="113" y="635.4497">topic,</text><text fill="#000000" font-family="sans-serif" font-size="13" lengthAdjust="spacing" textLength="173" x="113" y="650.5825">constraints, // (type, value)</text><text fill="#000000" font-family="sans-serif" font-size="13" lengthAdjust="spacing" textLength="126" x="113" y="665.7153">subscription_info: {</text><text fill="#000000" font-family="sans-serif" font-size="13" lengthAdjust="spacing" textLength="108" x="129" y="680.8481">protocol, // MQTT</text><text fill="#000000" font-family="sans-serif" font-size="13" lengthAdjust="spacing" textLength="117" x="129" y="695.981">uri, // MQTT Broker</text><text fill="#000000" font-family="sans-serif" font-size="13" lengthAdjust="spacing" textLength="13" x="113" y="711.1138">},</text><text fill="#000000" font-family="sans-serif" font-size="13" lengthAdjust="spacing" textLength="9" x="97" y="726.2466">}</text><polygon fill="#181818" points="1166.5,756.4453,1176.5,760.4453,1166.5,764.4453,1170.5,760.4453" style="stroke:#181818;stroke-width:1.0;"/><line style="stroke:#181818;stroke-width:1.0;" x1="86" x2="1172.5" y1="760.4453" y2="760.4453"/><text fill="#000000" font-family="sans-serif" font-size="13" font-weight="bold" lengthAdjust="spacing" textLength="18" x="93" y="755.3794">12</text><text fill="#000000" font-family="sans-serif" font-size="13" lengthAdjust="spacing" textLength="29" x="115" y="755.3794">data</text><polygon fill="#181818" points="790,785.5781,780,789.5781,790,793.5781,786,789.5781" style="stroke:#181818;stroke-width:1.0;"/><line style="stroke:#181818;stroke-width:1.0;" x1="784" x2="1177.5" y1="789.5781" y2="789.5781"/><text fill="#000000" font-family="sans-serif" font-size="13" font-weight="bold" lengthAdjust="spacing" textLength="17" x="796" y="784.5122">13</text><text fill="#000000" font-family="sans-serif" font-size="13" lengthAdjust="spacing" textLength="29" x="817" y="784.5122">data</text><polygon fill="#181818" points="1166.5,814.7109,1176.5,818.7109,1166.5,822.7109,1170.5,818.7109" style="stroke:#181818;stroke-width:1.0;"/><line style="stroke:#181818;stroke-width:1.0;" x1="779" x2="1172.5" y1="818.7109" y2="818.7109"/><text fill="#000000" font-family="sans-serif" font-size="13" font-weight="bold" lengthAdjust="spacing" textLength="18" x="786" y="813.645">14</text><text fill="#000000" font-family="sans-serif" font-size="13" lengthAdjust="spacing" textLength="175" x="808" y="813.645">Unsubscribe (SubInfo.topic)</text><line style="stroke:#181818;stroke-width:2.0;" x1="786" x2="796" y1="842.8438" y2="852.8438"/><line style="stroke:#181818;stroke-width:2.0;" x1="786" x2="796" y1="852.8438" y2="842.8438"/><line style="stroke:#181818;stroke-width:1.0;" x1="791" x2="1177.5" y1="847.8438" y2="847.8438"/><text fill="#000000" font-family="sans-serif" font-size="13" font-weight="bold" lengthAdjust="spacing" textLength="18" x="796" y="842.7778">15</text><text fill="#000000" font-family="sans-serif" font-size="13" lengthAdjust="spacing" textLength="29" x="818" y="842.7778">data</text><polygon fill="#181818" points="919.5,872.9766,909.5,876.9766,919.5,880.9766,915.5,876.9766" style="stroke:#181818;stroke-width:1.0;"/><line style="stroke:#181818;stroke-width:1.0;" x1="913.5" x2="1177.5" y1="876.9766" y2="876.9766"/><text fill="#000000" font-family="sans-serif" font-size="13" font-weight="bold" lengthAdjust="spacing" textLength="18" x="925.5" y="871.9106">16</text><text fill="#000000" font-family="sans-serif" font-size="13" lengthAdjust="spacing" textLength="224" x="947.5" y="871.9106">Unsub notification for SubInfo.topic</text><polygon fill="#181818" points="481,902.1094,471,906.1094,481,910.1094,477,906.1094" style="stroke:#181818;stroke-width:1.0;"/><line style="stroke:#181818;stroke-width:1.0;" x1="475" x2="907.5" y1="906.1094" y2="906.1094"/><text fill="#000000" font-family="sans-serif" font-size="13" font-weight="bold" lengthAdjust="spacing" textLength="18" x="487" y="901.0435">17</text><text fill="#000000" font-family="sans-serif" font-size="13" lengthAdjust="spacing" textLength="281" x="509" y="901.0435">ManageTopicCallback (SubInfo.topic, action)</text><polygon fill="#181818" points="97,931.2422,87,935.2422,97,939.2422,93,935.2422" style="stroke:#181818;stroke-width:1.0;"/><line style="stroke:#181818;stroke-width:1.0;" x1="91" x2="469" y1="935.2422" y2="935.2422"/><text fill="#000000" font-family="sans-serif" font-size="13" font-weight="bold" lengthAdjust="spacing" textLength="18" x="103" y="930.1763">18</text><text fill="#000000" font-family="sans-serif" font-size="13" lengthAdjust="spacing" textLength="247" x="125" y="930.1763">TopicManagementCB (action, payload)</text><path d="M91,948.2422 L91,1109.2422 L316,1109.2422 L316,958.2422 L306,948.2422 L91,948.2422 " fill="#FEFFDD" style="stroke:#181818;stroke-width:0.5;"/><path d="M306,948.2422 L306,958.2422 L316,958.2422 L306,948.2422 " fill="#FEFFDD" style="stroke:#181818;stroke-width:0.5;"/><text fill="#000000" font-family="sans-serif" font-size="13" lengthAdjust="spacing" textLength="203" x="97" y="965.3091">Tells provider to stop publishing</text><text fill="#000000" font-family="sans-serif" font-size="13" lengthAdjust="spacing" textLength="204" x="97" y="980.4419">entity id data on provided topic.</text><text fill="#000000" font-family="sans-serif" font-size="13" lengthAdjust="spacing" textLength="4" x="97" y="995.5747">&#160;</text><text fill="#000000" font-family="sans-serif" font-size="13" lengthAdjust="spacing" textLength="141" x="97" y="1010.7075">action: STOP_PUBLISH</text><text fill="#000000" font-family="sans-serif" font-size="13" lengthAdjust="spacing" textLength="69" x="97" y="1025.8403">payload: {</text><text fill="#000000" font-family="sans-serif" font-size="13" lengthAdjust="spacing" textLength="59" x="113" y="1040.9731">entity_id,</text><text fill="#000000" font-family="sans-serif" font-size="13" lengthAdjust="spacing" textLength="35" x="113" y="1056.106">topic,</text><text fill="#000000" font-family="sans-serif" font-size="13" lengthAdjust="spacing" textLength="173" x="113" y="1071.2388">constraints, // (type, value)</text><text fill="#000000" font-family="sans-serif" font-size="13" lengthAdjust="spacing" textLength="154" x="113" y="1086.3716">subscription_info: None,</text><text fill="#000000" font-family="sans-serif" font-size="13" lengthAdjust="spacing" textLength="9" x="97" y="1101.5044">}</text><line style="stroke:#181818;stroke-width:2.0;" x1="1160.5" x2="1170.5" y1="1130.7031" y2="1140.7031"/><line style="stroke:#181818;stroke-width:2.0;" x1="1160.5" x2="1170.5" y1="1140.7031" y2="1130.7031"/><line style="stroke:#181818;stroke-width:1.0;" x1="86" x2="1165.5" y1="1135.7031" y2="1135.7031"/><text fill="#000000" font-family="sans-serif" font-size="13" font-weight="bold" lengthAdjust="spacing" textLength="18" x="93" y="1130.6372">19</text><text fill="#000000" font-family="sans-serif" font-size="13" lengthAdjust="spacing" textLength="29" x="115" y="1130.6372">data</text><line style="stroke:#181818;stroke-width:1.0;" x1="86" x2="128" y1="1164.8359" y2="1164.8359"/><line style="stroke:#181818;stroke-width:1.0;" x1="128" x2="128" y1="1164.8359" y2="1177.8359"/><line style="stroke:#181818;stroke-width:1.0;" x1="87" x2="128" y1="1177.8359" y2="1177.8359"/><polygon fill="#181818" points="97,1173.8359,87,1177.8359,97,1181.8359,93,1177.8359" style="stroke:#181818;stroke-width:1.0;"/><text fill="#000000" font-family="sans-serif" font-size="13" font-weight="bold" lengthAdjust="spacing" textLength="19" x="93" y="1159.77">20</text><text fill="#000000" font-family="sans-serif" font-size="13" lengthAdjust="spacing" textLength="149" x="116" y="1159.77">Remove topic mapping</text><polygon fill="#181818" points="896.5,1202.9688,906.5,1206.9688,896.5,1210.9688,900.5,1206.9688" style="stroke:#181818;stroke-width:1.0;"/><line style="stroke:#181818;stroke-width:1.0;" x1="470" x2="902.5" y1="1206.9688" y2="1206.9688"/><text fill="#000000" font-family="sans-serif" font-size="13" font-weight="bold" lengthAdjust="spacing" textLength="18" x="477" y="1201.9028">21</text><text fill="#000000" font-family="sans-serif" font-size="13" lengthAdjust="spacing" textLength="173" x="499" y="1201.9028">DeleteTopic (SubInfo.topic)</text><polygon fill="#181818" points="481,1232.1016,471,1236.1016,481,1240.1016,477,1236.1016" style="stroke:#181818;stroke-width:1.0;"/><line style="stroke:#181818;stroke-width:1.0;" x1="475" x2="907.5" y1="1236.1016" y2="1236.1016"/><text fill="#000000" font-family="sans-serif" font-size="13" font-weight="bold" lengthAdjust="spacing" textLength="18" x="487" y="1231.0356">22</text><text fill="#000000" font-family="sans-serif" font-size="13" lengthAdjust="spacing" textLength="148" x="509" y="1231.0356">DeleteTopic - response</text><line style="stroke:#181818;stroke-width:1.0;" x1="470" x2="512" y1="1265.2344" y2="1265.2344"/><line style="stroke:#181818;stroke-width:1.0;" x1="512" x2="512" y1="1265.2344" y2="1278.2344"/><line style="stroke:#181818;stroke-width:1.0;" x1="471" x2="512" y1="1278.2344" y2="1278.2344"/><polygon fill="#181818" points="481,1274.2344,471,1278.2344,481,1282.2344,477,1278.2344" style="stroke:#181818;stroke-width:1.0;"/><text fill="#000000" font-family="sans-serif" font-size="13" font-weight="bold" lengthAdjust="spacing" textLength="17" x="477" y="1260.1685">23</text><text fill="#000000" font-family="sans-serif" font-size="13" lengthAdjust="spacing" textLength="149" x="498" y="1260.1685">Remove topic mapping</text><!--SRC=[lLLDRzf04BtxLumuWUGaTwkgL41faPgM5gTNjBO7cCRiRkqn0KNyzwxNngm1aqQgufCz7s_VpBnPCt6Ay22aM682ioBAuumYOr59OHmp_5EWZD7J8cEAIGl9q1lJabYa43wJX6ccDfHWrWEHmpWyV7gHsa9l4k5lwhMp9_8NhYWsw2wEJRVXxUWkQZQ-TZQ-okMXJC0SVuNqICcyM3Ua3v-jZ4zBNAkMPPYf9nFaYOALBDPH-NvCXfkFLG41t9DCXhj90dsKJBoRKp9m8p_Sd4NUG8QvDW5u0dcvnW0-8zSspQJaH2wKSvmFiS7WJ93aVE1T1YdXRPK1Z38KZA7I55igPkmvUzPvZSHfMbs1L8oGqNB5e1QToSPWMRzmcUz3PDiBPdfQ6Tf0nhc_GhqJbrM6qBG2X4oQizR88X4ihi0Ust-voQTrfhYmPRfv_rPQUz2LkW97wVqQvjQY3BmgmfcQyOFXG0kAHSaF5Yg3LjBh8wpiTeGZaQQHY9zE3lP1n2Nwu6hJ3eiVWCMgGjTc2gCXz2i07xJOfKgOPMWhnBasGapJ77Jz2QmWPxE2e8iefNn5SkbLamKpsNAIOCgkmnEeQducNW6l49QqGUbkmgrPNaibWEdZyEjaziMhAGNmue5vZXjaFwi6s5S7neUxE-ZpJgCF6v4MEB0HkIELUJdY0sZv68wiOfNQt8SVOTXuYemQu-6EAUrxtzlRkwnibdViaIiMg-NspLAhvDpdf3tAl5DbJiQsWQlHpXHeWTvLWquV3BiknF-kGQNV8a57PxFm-tJ-FcBxfYHsQsPxAXfNJ-x-_ZJJsc351jP2wxBYL_yWOqpny2iubLH7ifdVXMJdVdtxtN-9-ry0]--></g></svg>