<?xml version="1.0" encoding="us-ascii" standalone="no"?><svg xmlns="http://www.w3.org/2000/svg" xmlns:xlink="http://www.w3.org/1999/xlink" contentStyleType="text/css" height="640px" preserveAspectRatio="none" style="width:692px;height:640px;background:#FFFFFF;" version="1.1" viewBox="0 0 692 640" width="692px" zoomAndPan="magnify"><defs/><g><text fill="#000000" font-family="sans-serif" font-size="14" font-weight="bold" lengthAdjust="spacing" textLength="335" x="177.75" y="27.9951">Managed Subscribe Interceptor Sequence</text><rect fill="none" height="368.3906" style="stroke:#000000;stroke-width:1.5;" width="588" x="81" y="161.8594"/><line style="stroke:#181818;stroke-width:0.5;stroke-dasharray:5.0,5.0;" x1="86" x2="86" y1="73.5938" y2="605.5156"/><line style="stroke:#181818;stroke-width:0.5;stroke-dasharray:5.0,5.0;" x1="281" x2="281" y1="73.5938" y2="605.5156"/><line style="stroke:#181818;stroke-width:0.5;stroke-dasharray:5.0,5.0;" x1="663.5" x2="663.5" y1="73.5938" y2="605.5156"/><rect fill="#E2E2F0" height="30.2969" rx="2.5" ry="2.5" style="stroke:#181818;stroke-width:0.5;" width="162" x="5" y="42.2969"/><text fill="#000000" font-family="sans-serif" font-size="14" lengthAdjust="spacing" textLength="148" x="12" y="62.292">Digital Twin Provider</text><rect fill="#E2E2F0" height="30.2969" rx="2.5" ry="2.5" style="stroke:#181818;stroke-width:0.5;" width="162" x="5" y="604.5156"/><text fill="#000000" font-family="sans-serif" font-size="14" lengthAdjust="spacing" textLength="148" x="12" y="624.5107">Digital Twin Provider</text><rect fill="#E2E2F0" height="30.2969" rx="2.5" ry="2.5" style="stroke:#181818;stroke-width:0.5;" width="208" x="177" y="42.2969"/><text fill="#000000" font-family="sans-serif" font-size="14" lengthAdjust="spacing" textLength="194" x="184" y="62.292">Managed Subscribe Module</text><rect fill="#E2E2F0" height="30.2969" rx="2.5" ry="2.5" style="stroke:#181818;stroke-width:0.5;" width="208" x="177" y="604.5156"/><text fill="#000000" font-family="sans-serif" font-size="14" lengthAdjust="spacing" textLength="194" x="184" y="624.5107">Managed Subscribe Module</text><rect fill="#E2E2F0" height="30.2969" rx="2.5" ry="2.5" style="stroke:#181818;stroke-width:0.5;" width="45" x="641.5" y="42.2969"/><text fill="#000000" font-family="sans-serif" font-size="14" lengthAdjust="spacing" textLength="31" x="648.5" y="62.292">Ibeji</text><rect fill="#E2E2F0" height="30.2969" rx="2.5" ry="2.5" style="stroke:#181818;stroke-width:0.5;" width="45" x="641.5" y="604.5156"/><text fill="#000000" font-family="sans-serif" font-size="14" lengthAdjust="spacing" textLength="31" x="648.5" y="624.5107">Ibeji</text><polygon fill="#181818" points="269,100.7266,279,104.7266,269,108.7266,273,104.7266" style="stroke:#181818;stroke-width:1.0;"/><line style="stroke:#181818;stroke-width:1.0;" x1="86" x2="275" y1="104.7266" y2="104.7266"/><text fill="#000000" font-family="sans-serif" font-size="13" font-weight="bold" lengthAdjust="spacing" textLength="9" x="93" y="99.6606">1</text><text fill="#000000" font-family="sans-serif" font-size="13" lengthAdjust="spacing" textLength="115" x="106" y="99.6606">Register - request</text><line style="stroke:#181818;stroke-width:1.0;" x1="281" x2="323" y1="133.8594" y2="133.8594"/><line style="stroke:#181818;stroke-width:1.0;" x1="323" x2="323" y1="133.8594" y2="146.8594"/><line style="stroke:#181818;stroke-width:1.0;" x1="282" x2="323" y1="146.8594" y2="146.8594"/><polygon fill="#181818" points="292,142.8594,282,146.8594,292,150.8594,288,146.8594" style="stroke:#181818;stroke-width:1.0;"/><text fill="#000000" font-family="sans-serif" font-size="13" font-weight="bold" lengthAdjust="spacing" textLength="9" x="288" y="128.7935">2</text><text fill="#000000" font-family="sans-serif" font-size="13" lengthAdjust="spacing" textLength="174" x="301" y="128.7935">Intercepts Register request</text><path d="M81,161.8594 L147,161.8594 L147,168.9922 L137,178.9922 L81,178.9922 L81,161.8594 " fill="#EEEEEE" style="stroke:#000000;stroke-width:1.5;"/><rect fill="none" height="368.3906" style="stroke:#000000;stroke-width:1.5;" width="588" x="81" y="161.8594"/><text fill="#000000" font-family="sans-serif" font-size="13" font-weight="bold" lengthAdjust="spacing" textLength="21" x="96" y="174.9263">alt</text><text fill="#000000" font-family="sans-serif" font-size="11" font-weight="bold" lengthAdjust="spacing" textLength="246" x="162" y="174.0698">[contains `ManagedSubscribe` Entry]</text><path d="M91,183.9922 L91,314.9922 L427,314.9922 L427,193.9922 L417,183.9922 L91,183.9922 " fill="#FEFFDD" style="stroke:#181818;stroke-width:0.5;"/><path d="M417,183.9922 L417,193.9922 L427,193.9922 L417,183.9922 " fill="#FEFFDD" style="stroke:#181818;stroke-width:0.5;"/><text fill="#000000" font-family="sans-serif" font-size="13" lengthAdjust="spacing" textLength="295" x="97" y="201.0591">// Entry that indicates to Ibeji that the Provider</text><text fill="#000000" font-family="sans-serif" font-size="13" lengthAdjust="spacing" textLength="315" x="97" y="216.1919">// wants to utilize the Managed Subscribe Module.</text><text fill="#000000" font-family="sans-serif" font-size="13" lengthAdjust="spacing" textLength="9" x="97" y="231.3247">{</text><text fill="#000000" font-family="sans-serif" font-size="13" lengthAdjust="spacing" textLength="99" x="113" y="246.4575">protocol: "grpc"</text><text fill="#000000" font-family="sans-serif" font-size="13" lengthAdjust="spacing" textLength="217" x="113" y="261.5903">operations: ["ManagedSubscribe"]</text><text fill="#000000" font-family="sans-serif" font-size="13" lengthAdjust="spacing" textLength="163" x="113" y="276.7231">uri: "Provider callback uri"</text><text fill="#000000" font-family="sans-serif" font-size="13" lengthAdjust="spacing" textLength="68" x="113" y="291.856">context: ""</text><text fill="#000000" font-family="sans-serif" font-size="13" lengthAdjust="spacing" textLength="9" x="97" y="306.9888">}</text><line style="stroke:#181818;stroke-width:1.0;" x1="281" x2="323" y1="341.1875" y2="341.1875"/><line style="stroke:#181818;stroke-width:1.0;" x1="323" x2="323" y1="341.1875" y2="354.1875"/><line style="stroke:#181818;stroke-width:1.0;" x1="282" x2="323" y1="354.1875" y2="354.1875"/><polygon fill="#181818" points="292,350.1875,282,354.1875,292,358.1875,288,354.1875" style="stroke:#181818;stroke-width:1.0;"/><text fill="#000000" font-family="sans-serif" font-size="13" font-weight="bold" lengthAdjust="spacing" textLength="8" x="288" y="336.1216">3</text><text fill="#000000" font-family="sans-serif" font-size="13" lengthAdjust="spacing" textLength="150" x="300" y="336.1216">Store provider callback.</text><line style="stroke:#181818;stroke-width:1.0;" x1="281" x2="323" y1="383.3203" y2="383.3203"/><line style="stroke:#181818;stroke-width:1.0;" x1="323" x2="323" y1="383.3203" y2="396.3203"/><line style="stroke:#181818;stroke-width:1.0;" x1="282" x2="323" y1="396.3203" y2="396.3203"/><polygon fill="#181818" points="292,392.3203,282,396.3203,292,400.3203,288,396.3203" style="stroke:#181818;stroke-width:1.0;"/><text fill="#000000" font-family="sans-serif" font-size="13" font-weight="bold" lengthAdjust="spacing" textLength="9" x="288" y="378.2544">4</text><text fill="#000000" font-family="sans-serif" font-size="13" lengthAdjust="spacing" textLength="356" x="301" y="378.2544">Modify the request's `ManagedSubscribe` endpointInfo.</text><path d="M286,409.3203 L286,524.3203 L626,524.3203 L626,419.3203 L616,409.3203 L286,409.3203 " fill="#FEFFDD" style="stroke:#181818;stroke-width:0.5;"/><path d="M616,409.3203 L616,419.3203 L626,419.3203 L616,409.3203 " fill="#FEFFDD" style="stroke:#181818;stroke-width:0.5;"/><text fill="#000000" font-family="sans-serif" font-size="13" lengthAdjust="spacing" textLength="319" x="292" y="426.3872">// Points to the Managed Subscribe gRPC endpoint</text><text fill="#000000" font-family="sans-serif" font-size="13" lengthAdjust="spacing" textLength="9" x="292" y="441.52">{</text><text fill="#000000" font-family="sans-serif" font-size="13" lengthAdjust="spacing" textLength="99" x="308" y="456.6528">protocol: "grpc"</text><text fill="#000000" font-family="sans-serif" font-size="13" lengthAdjust="spacing" textLength="217" x="308" y="471.7856">operations: ["ManagedSubscribe"]</text><text fill="#000000" font-family="sans-serif" font-size="13" lengthAdjust="spacing" textLength="80" x="308" y="486.9185">uri: "Ibeji uri"</text><text fill="#000000" font-family="sans-serif" font-size="13" lengthAdjust="spacing" textLength="193" x="308" y="502.0513">context: "GetSubscriptionInfo"</text><text fill="#000000" font-family="sans-serif" font-size="13" lengthAdjust="spacing" textLength="9" x="292" y="517.1841">}</text><polygon fill="#181818" points="652,554.3828,662,558.3828,652,562.3828,656,558.3828" style="stroke:#181818;stroke-width:1.0;"/><line style="stroke:#181818;stroke-width:1.0;" x1="281" x2="658" y1="558.3828" y2="558.3828"/><text fill="#000000" font-family="sans-serif" font-size="13" font-weight="bold" lengthAdjust="spacing" textLength="9" x="288" y="553.3169">5</text><text fill="#000000" font-family="sans-serif" font-size="13" lengthAdjust="spacing" textLength="175" x="301" y="553.3169">Passes on Register request</text><polygon fill="#181818" points="97,583.5156,87,587.5156,97,591.5156,93,587.5156" style="stroke:#181818;stroke-width:1.0;"/><line style="stroke:#181818;stroke-width:1.0;" x1="91" x2="663" y1="587.5156" y2="587.5156"/><text fill="#000000" font-family="sans-serif" font-size="13" font-weight="bold" lengthAdjust="spacing" textLength="9" x="103" y="582.4497">6</text><text fill="#000000" font-family="sans-serif" font-size="13" lengthAdjust="spacing" textLength="125" x="116" y="582.4497">Register - response</text><!--SRC=[hLCzRy8m4DtzAqvPEW4xghgKgc90Ye2jgeJZ7E7Qr7RjIocj-jzh9n087nrGioInttldU-_Cn2N2H6fPO0wpAlFAKOOmrenEeMNZO8Rl5Mg5mah7fCXApP2Cg22M9SpNf25rveDoT0b83wFvxhVBEAqoCNbLOatQRhPxpLP7O9pX2maXApQwUik2lDYNWjxT1OqXJB4Wpn43BlRYMPo7_YNIEkBtUZir8Ki6PJHBqXuMnn8BUD3iDa8RHd1Kh1ZCyj2cmQ110Aya0-cSb6JqmAPfkbdd5S8XPHrCgJ4LKqbVM0CkcTmNtmB2OvrXeqmvXAHmLYNreh7e99FHVWXFoV7na-SQL3aAfDPl9Sioa-erhZSgqG3yv01An8z0dKDi-0ghPs7gC9wqMwb_XLHuqt9JExCDw-PiGE6qrf3ciLwQ_b5G5qOp9916IXt1UUkBQNhVIlzJ0Cr0d37z4NdBi54fTjB98Nm8qR1lUnSDIwNtOVACFftoXXlCta_kqTtoDdI0lm00]--></g></svg>