<?xml version="1.0" encoding="us-ascii" standalone="no"?><svg xmlns="http://www.w3.org/2000/svg" xmlns:xlink="http://www.w3.org/1999/xlink" contentStyleType="text/css" height="711px" preserveAspectRatio="none" style="width:758px;height:711px;background:#FFFFFF;" version="1.1" viewBox="0 0 758 711" width="758px" zoomAndPan="magnify"><defs/><g><text fill="#000000" font-family="sans-serif" font-size="14" font-weight="bold" lengthAdjust="spacing" textLength="335" x="208.5" y="27.9951">Managed Subscribe Interceptor Sequence</text><rect fill="#DDDDDD" height="662.0469" style="stroke:#181818;stroke-width:0.5;" width="579" x="173" y="43.2969"/><text fill="#000000" font-family="sans-serif" font-size="13" font-weight="bold" lengthAdjust="spacing" textLength="31" x="447" y="55.3638">Ibeji</text><rect fill="none" height="413.7891" style="stroke:#000000;stroke-width:1.5;" width="588" x="81" y="181.9922"/><line style="stroke:#181818;stroke-width:0.5;stroke-dasharray:5.0,5.0;" x1="86" x2="86" y1="93.7266" y2="671.0469"/><line style="stroke:#181818;stroke-width:0.5;stroke-dasharray:5.0,5.0;" x1="281" x2="281" y1="93.7266" y2="671.0469"/><line style="stroke:#181818;stroke-width:0.5;stroke-dasharray:5.0,5.0;" x1="664" x2="664" y1="93.7266" y2="671.0469"/><rect fill="#E2E2F0" height="30.2969" rx="2.5" ry="2.5" style="stroke:#181818;stroke-width:0.5;" width="162" x="5" y="62.4297"/><text fill="#000000" font-family="sans-serif" font-size="14" lengthAdjust="spacing" textLength="148" x="12" y="82.4248">Digital Twin Provider</text><rect fill="#E2E2F0" height="30.2969" rx="2.5" ry="2.5" style="stroke:#181818;stroke-width:0.5;" width="162" x="5" y="670.0469"/><text fill="#000000" font-family="sans-serif" font-size="14" lengthAdjust="spacing" textLength="148" x="12" y="690.042">Digital Twin Provider</text><rect fill="#E2E2F0" height="30.2969" rx="2.5" ry="2.5" style="stroke:#181818;stroke-width:0.5;" width="208" x="177" y="62.4297"/><text fill="#000000" font-family="sans-serif" font-size="14" lengthAdjust="spacing" textLength="194" x="184" y="82.4248">Managed Subscribe Module</text><rect fill="#E2E2F0" height="30.2969" rx="2.5" ry="2.5" style="stroke:#181818;stroke-width:0.5;" width="208" x="177" y="670.0469"/><text fill="#000000" font-family="sans-serif" font-size="14" lengthAdjust="spacing" textLength="194" x="184" y="690.042">Managed Subscribe Module</text><rect fill="#E2E2F0" height="30.2969" rx="2.5" ry="2.5" style="stroke:#181818;stroke-width:0.5;" width="168" x="580" y="62.4297"/><text fill="#000000" font-family="sans-serif" font-size="14" lengthAdjust="spacing" textLength="154" x="587" y="82.4248">InVehicle Digital Twin</text><rect fill="#E2E2F0" height="30.2969" rx="2.5" ry="2.5" style="stroke:#181818;stroke-width:0.5;" width="168" x="580" y="670.0469"/><text fill="#000000" font-family="sans-serif" font-size="14" lengthAdjust="spacing" textLength="154" x="587" y="690.042">InVehicle Digital Twin</text><polygon fill="#181818" points="269,120.8594,279,124.8594,269,128.8594,273,124.8594" style="stroke:#181818;stroke-width:1.0;"/><line style="stroke:#181818;stroke-width:1.0;" x1="86" x2="275" y1="124.8594" y2="124.8594"/><text fill="#000000" font-family="sans-serif" font-size="13" font-weight="bold" lengthAdjust="spacing" textLength="9" x="93" y="119.7935">1</text><text fill="#000000" font-family="sans-serif" font-size="13" lengthAdjust="spacing" textLength="115" x="106" y="119.7935">Register - request</text><line style="stroke:#181818;stroke-width:1.0;" x1="281" x2="323" y1="153.9922" y2="153.9922"/><line style="stroke:#181818;stroke-width:1.0;" x1="323" x2="323" y1="153.9922" y2="166.9922"/><line style="stroke:#181818;stroke-width:1.0;" x1="282" x2="323" y1="166.9922" y2="166.9922"/><polygon fill="#181818" points="292,162.9922,282,166.9922,292,170.9922,288,166.9922" style="stroke:#181818;stroke-width:1.0;"/><text fill="#000000" font-family="sans-serif" font-size="13" font-weight="bold" lengthAdjust="spacing" textLength="9" x="288" y="148.9263">2</text><text fill="#000000" font-family="sans-serif" font-size="13" lengthAdjust="spacing" textLength="174" x="301" y="148.9263">Intercepts Register request</text><path d="M81,181.9922 L147,181.9922 L147,189.125 L137,199.125 L81,199.125 L81,181.9922 " fill="#EEEEEE" style="stroke:#000000;stroke-width:1.5;"/><rect fill="none" height="413.7891" style="stroke:#000000;stroke-width:1.5;" width="588" x="81" y="181.9922"/><text fill="#000000" font-family="sans-serif" font-size="13" font-weight="bold" lengthAdjust="spacing" textLength="21" x="96" y="195.0591">alt</text><text fill="#000000" font-family="sans-serif" font-size="11" font-weight="bold" lengthAdjust="spacing" textLength="246" x="162" y="194.2026">[contains `ManagedSubscribe` Entry]</text><path d="M91,204.125 L91,365.125 L345,365.125 L345,214.125 L335,204.125 L91,204.125 " fill="#FEFFDD" style="stroke:#181818;stroke-width:0.5;"/><path d="M335,204.125 L335,214.125 L345,214.125 L335,204.125 " fill="#FEFFDD" style="stroke:#181818;stroke-width:0.5;"/><text fill="#000000" font-family="sans-serif" font-size="13" lengthAdjust="spacing" textLength="201" x="97" y="221.1919">Entry that indicates to Ibeji that</text><text fill="#000000" font-family="sans-serif" font-size="13" lengthAdjust="spacing" textLength="204" x="97" y="236.3247">the Provider wants to utilize the</text><text fill="#000000" font-family="sans-serif" font-size="13" lengthAdjust="spacing" textLength="177" x="97" y="251.4575">Managed Subscribe Module.</text><text fill="#000000" font-family="sans-serif" font-size="13" lengthAdjust="spacing" textLength="4" x="97" y="266.5903">&#160;</text><text fill="#000000" font-family="sans-serif" font-size="13" lengthAdjust="spacing" textLength="9" x="97" y="281.7231">{</text><text fill="#000000" font-family="sans-serif" font-size="13" lengthAdjust="spacing" textLength="99" x="113" y="296.856">protocol: "grpc"</text><text fill="#000000" font-family="sans-serif" font-size="13" lengthAdjust="spacing" textLength="217" x="113" y="311.9888">operations: ["ManagedSubscribe"]</text><text fill="#000000" font-family="sans-serif" font-size="13" lengthAdjust="spacing" textLength="163" x="113" y="327.1216">uri: "Provider callback uri"</text><text fill="#000000" font-family="sans-serif" font-size="13" lengthAdjust="spacing" textLength="68" x="113" y="342.2544">context: ""</text><text fill="#000000" font-family="sans-serif" font-size="13" lengthAdjust="spacing" textLength="9" x="97" y="357.3872">}</text><line style="stroke:#181818;stroke-width:1.0;" x1="281" x2="323" y1="391.5859" y2="391.5859"/><line style="stroke:#181818;stroke-width:1.0;" x1="323" x2="323" y1="391.5859" y2="404.5859"/><line style="stroke:#181818;stroke-width:1.0;" x1="282" x2="323" y1="404.5859" y2="404.5859"/><polygon fill="#181818" points="292,400.5859,282,404.5859,292,408.5859,288,404.5859" style="stroke:#181818;stroke-width:1.0;"/><text fill="#000000" font-family="sans-serif" font-size="13" font-weight="bold" lengthAdjust="spacing" textLength="8" x="288" y="386.52">3</text><text fill="#000000" font-family="sans-serif" font-size="13" lengthAdjust="spacing" textLength="150" x="300" y="386.52">Store provider callback.</text><line style="stroke:#181818;stroke-width:1.0;" x1="281" x2="323" y1="433.7188" y2="433.7188"/><line style="stroke:#181818;stroke-width:1.0;" x1="323" x2="323" y1="433.7188" y2="446.7188"/><line style="stroke:#181818;stroke-width:1.0;" x1="282" x2="323" y1="446.7188" y2="446.7188"/><polygon fill="#181818" points="292,442.7188,282,446.7188,292,450.7188,288,446.7188" style="stroke:#181818;stroke-width:1.0;"/><text fill="#000000" font-family="sans-serif" font-size="13" font-weight="bold" lengthAdjust="spacing" textLength="9" x="288" y="428.6528">4</text><text fill="#000000" font-family="sans-serif" font-size="13" lengthAdjust="spacing" textLength="356" x="301" y="428.6528">Modify the request's `ManagedSubscribe` endpointInfo.</text><path d="M286,459.7188 L286,590.7188 L614,590.7188 L614,469.7188 L604,459.7188 L286,459.7188 " fill="#FEFFDD" style="stroke:#181818;stroke-width:0.5;"/><path d="M604,459.7188 L604,469.7188 L614,469.7188 L604,459.7188 " fill="#FEFFDD" style="stroke:#181818;stroke-width:0.5;"/><text fill="#000000" font-family="sans-serif" font-size="13" lengthAdjust="spacing" textLength="307" x="292" y="476.7856">Points to the Managed Subscribe gRPC endpoint</text><text fill="#000000" font-family="sans-serif" font-size="13" lengthAdjust="spacing" textLength="4" x="292" y="491.9185">&#160;</text><text fill="#000000" font-family="sans-serif" font-size="13" lengthAdjust="spacing" textLength="9" x="292" y="507.0513">{</text><text fill="#000000" font-family="sans-serif" font-size="13" lengthAdjust="spacing" textLength="99" x="308" y="522.1841">protocol: "grpc"</text><text fill="#000000" font-family="sans-serif" font-size="13" lengthAdjust="spacing" textLength="217" x="308" y="537.3169">operations: ["ManagedSubscribe"]</text><text fill="#000000" font-family="sans-serif" font-size="13" lengthAdjust="spacing" textLength="80" x="308" y="552.4497">uri: "Ibeji uri"</text><text fill="#000000" font-family="sans-serif" font-size="13" lengthAdjust="spacing" textLength="193" x="308" y="567.5825">context: "GetSubscriptionInfo"</text><text fill="#000000" font-family="sans-serif" font-size="13" lengthAdjust="spacing" textLength="9" x="292" y="582.7153">}</text><polygon fill="#181818" points="652,619.9141,662,623.9141,652,627.9141,656,623.9141" style="stroke:#181818;stroke-width:1.0;"/><line style="stroke:#181818;stroke-width:1.0;" x1="281" x2="658" y1="623.9141" y2="623.9141"/><text fill="#000000" font-family="sans-serif" font-size="13" font-weight="bold" lengthAdjust="spacing" textLength="9" x="288" y="618.8481">5</text><text fill="#000000" font-family="sans-serif" font-size="13" lengthAdjust="spacing" textLength="175" x="301" y="618.8481">Passes on Register request</text><polygon fill="#181818" points="97,649.0469,87,653.0469,97,657.0469,93,653.0469" style="stroke:#181818;stroke-width:1.0;"/><line style="stroke:#181818;stroke-width:1.0;" x1="91" x2="663" y1="653.0469" y2="653.0469"/><text fill="#000000" font-family="sans-serif" font-size="13" font-weight="bold" lengthAdjust="spacing" textLength="9" x="103" y="647.981">6</text><text fill="#000000" font-family="sans-serif" font-size="13" lengthAdjust="spacing" textLength="125" x="116" y="647.981">Register - response</text><!--SRC=[hLDDRzim3BtpLn2wxDJyW63OfHs670e4JR7BKA2op3ZSF56Jw7vis7-V93TEyzL3CLziYu-Fv7kKilQ4rzRRZbfS3KroaHl2XLUAZe9An1Nz6iWxWc2ZikDWlQAvuexLzdZxo1wNKHwufMZG9howtVv28qze5WrzPxEVVLpnMjgXfqhm4fnYOsYVOE6_qePTRlvr8pMzrWFoBURo07PGySFF9hS3kzRmujEPEdEyeOwJ5Wp6CdjIE0rzYsHICEtujcnWUqKdNYtxXFU75FVusMjy1YzA6BdRAChwjQmrZBgnYknRTbOfeSeuUJq7tT3a2ZvcoIfWKExvDsK8mJaBPW1_0FCJegWuwUTekXYSgOSIA5fbyMcEtynXv-QkWeR8EMagxspVDzRzAESZIvcTdZI33FojLfLPtw7oAYyebKxtAytUGPNVl2wgqjQd3oUzoTq6OQyBlvRPWKTdDdTPyDM0mduiV7Upl9nu_vVyupASaFmBwKj6A4nbZZqNyWV0cFtnugnSIvjItZhnn-izvcQfTojxSAbIo1FGFm00]--></g></svg>