<?xml version="1.0" encoding="us-ascii" standalone="no"?><svg xmlns="http://www.w3.org/2000/svg" xmlns:xlink="http://www.w3.org/1999/xlink" contentStyleType="text/css" height="552px" preserveAspectRatio="none" style="width:1196px;height:552px;background:#FFFFFF;" version="1.1" viewBox="0 0 1196 552" width="1196px" zoomAndPan="magnify"><defs/><g><line style="stroke:#181818;stroke-width:0.5;stroke-dasharray:5.0,5.0;" x1="371" x2="371" y1="36.2969" y2="517.6172"/><line style="stroke:#181818;stroke-width:0.5;stroke-dasharray:5.0,5.0;" x1="704.5" x2="704.5" y1="36.2969" y2="517.6172"/><line style="stroke:#181818;stroke-width:0.5;stroke-dasharray:5.0,5.0;" x1="911.5" x2="911.5" y1="36.2969" y2="517.6172"/><rect fill="#E2E2F0" height="30.2969" rx="2.5" ry="2.5" style="stroke:#181818;stroke-width:0.5;" width="174" x="284" y="5"/><text fill="#000000" font-family="sans-serif" font-size="14" lengthAdjust="spacing" textLength="160" x="291" y="24.9951">Digital Twin Consumer</text><rect fill="#E2E2F0" height="30.2969" rx="2.5" ry="2.5" style="stroke:#181818;stroke-width:0.5;" width="174" x="284" y="516.6172"/><text fill="#000000" font-family="sans-serif" font-size="14" lengthAdjust="spacing" textLength="160" x="291" y="536.6123">Digital Twin Consumer</text><rect fill="#E2E2F0" height="30.2969" rx="2.5" ry="2.5" style="stroke:#181818;stroke-width:0.5;" width="231" x="589.5" y="5"/><text fill="#000000" font-family="sans-serif" font-size="14" lengthAdjust="spacing" textLength="217" x="596.5" y="24.9951">In-Vehicle Digital Twin Service</text><rect fill="#E2E2F0" height="30.2969" rx="2.5" ry="2.5" style="stroke:#181818;stroke-width:0.5;" width="231" x="589.5" y="516.6172"/><text fill="#000000" font-family="sans-serif" font-size="14" lengthAdjust="spacing" textLength="217" x="596.5" y="536.6123">In-Vehicle Digital Twin Service</text><rect fill="#E2E2F0" height="30.2969" rx="2.5" ry="2.5" style="stroke:#181818;stroke-width:0.5;" width="162" x="830.5" y="5"/><text fill="#000000" font-family="sans-serif" font-size="14" lengthAdjust="spacing" textLength="148" x="837.5" y="24.9951">Digital Twin Provider</text><rect fill="#E2E2F0" height="30.2969" rx="2.5" ry="2.5" style="stroke:#181818;stroke-width:0.5;" width="162" x="830.5" y="516.6172"/><text fill="#000000" font-family="sans-serif" font-size="14" lengthAdjust="spacing" textLength="148" x="837.5" y="536.6123">Digital Twin Provider</text><polygon fill="#181818" points="693,63.4297,703,67.4297,693,71.4297,697,67.4297" style="stroke:#181818;stroke-width:1.0;"/><line style="stroke:#181818;stroke-width:1.0;" x1="371" x2="699" y1="67.4297" y2="67.4297"/><text fill="#000000" font-family="sans-serif" font-size="13" font-weight="bold" lengthAdjust="spacing" textLength="9" x="378" y="62.3638">1</text><text fill="#000000" font-family="sans-serif" font-size="13" lengthAdjust="spacing" textLength="297" x="391" y="62.3638">FindById("dtmi:sdv:Camera:Feed;1") - request</text><polygon fill="#181818" points="382,193.9258,372,197.9258,382,201.9258,378,197.9258" style="stroke:#181818;stroke-width:1.0;"/><line style="stroke:#181818;stroke-width:1.0;" x1="376" x2="704" y1="197.9258" y2="197.9258"/><text fill="#000000" font-family="sans-serif" font-size="13" font-weight="bold" lengthAdjust="spacing" textLength="9" x="388" y="192.8599">2</text><text fill="#000000" font-family="sans-serif" font-size="13" lengthAdjust="spacing" textLength="125" x="401" y="192.8599">FindById - response</text><path d="M5,80.4297 L5,301.4297 L366,301.4297 L366,90.4297 L356,80.4297 L5,80.4297 " fill="#FEFFDD" style="stroke:#181818;stroke-width:0.5;"/><path d="M356,80.4297 L356,90.4297 L366,90.4297 L356,80.4297 " fill="#FEFFDD" style="stroke:#181818;stroke-width:0.5;"/><text fill="#000000" font-family="sans-serif" font-size="13" lengthAdjust="spacing" textLength="111" x="11" y="97.4966">entityAccessInfo:</text><text fill="#000000" font-family="sans-serif" font-size="13" lengthAdjust="spacing" textLength="9" x="11" y="112.6294">{</text><text fill="#000000" font-family="sans-serif" font-size="13" lengthAdjust="spacing" textLength="87" x="27" y="127.7622">name: "Feed"</text><text fill="#000000" font-family="sans-serif" font-size="13" lengthAdjust="spacing" textLength="192" x="27" y="142.895">id: "dtmi:sdv:Camera:Feed;1"</text><text fill="#000000" font-family="sans-serif" font-size="13" lengthAdjust="spacing" textLength="324" x="27" y="158.0278">description: "The camera feed inside of the cabin."</text><text fill="#000000" font-family="sans-serif" font-size="13" lengthAdjust="spacing" textLength="116" x="27" y="173.1606">endpointInfoList: [</text><text fill="#000000" font-family="sans-serif" font-size="13" lengthAdjust="spacing" textLength="9" x="43" y="188.2935">{</text><text fill="#000000" font-family="sans-serif" font-size="13" lengthAdjust="spacing" textLength="99" x="59" y="203.4263">protocol: "grpc"</text><text fill="#000000" font-family="sans-serif" font-size="13" lengthAdjust="spacing" textLength="144" x="59" y="218.5591">operations: ["Stream"]</text><text fill="#000000" font-family="sans-serif" font-size="13" lengthAdjust="spacing" textLength="171" x="59" y="233.6919">uri: "http://127.0.0.1:4000"</text><text fill="#000000" font-family="sans-serif" font-size="13" lengthAdjust="spacing" textLength="230" x="59" y="248.8247">context: "dtmi:sdv:Camera:Feed;1"</text><text fill="#000000" font-family="sans-serif" font-size="13" lengthAdjust="spacing" textLength="9" x="43" y="263.9575">}</text><text fill="#000000" font-family="sans-serif" font-size="13" lengthAdjust="spacing" textLength="5" x="27" y="279.0903">]</text><text fill="#000000" font-family="sans-serif" font-size="13" lengthAdjust="spacing" textLength="9" x="11" y="294.2231">}</text><polygon fill="#181818" points="899.5,342.5547,909.5,346.5547,899.5,350.5547,903.5,346.5547" style="stroke:#181818;stroke-width:1.0;"/><line style="stroke:#181818;stroke-width:1.0;" x1="371" x2="905.5" y1="346.5547" y2="346.5547"/><text fill="#000000" font-family="sans-serif" font-size="13" font-weight="bold" lengthAdjust="spacing" textLength="8" x="378" y="341.4888">3</text><text fill="#000000" font-family="sans-serif" font-size="13" lengthAdjust="spacing" textLength="109" x="390" y="341.4888">Stream - request</text><path d="M916,312.2891 L916,367.2891 L1189,367.2891 L1189,322.2891 L1179,312.2891 L916,312.2891 " fill="#FEFFDD" style="stroke:#181818;stroke-width:0.5;"/><path d="M1179,312.2891 L1179,322.2891 L1189,322.2891 L1179,312.2891 " fill="#FEFFDD" style="stroke:#181818;stroke-width:0.5;"/><text fill="#000000" font-family="sans-serif" font-size="13" lengthAdjust="spacing" textLength="9" x="922" y="329.356">{</text><text fill="#000000" font-family="sans-serif" font-size="13" lengthAdjust="spacing" textLength="236" x="938" y="344.4888">entity_id: "dtmi:sdv:Camera:Feed;1"</text><text fill="#000000" font-family="sans-serif" font-size="13" lengthAdjust="spacing" textLength="9" x="922" y="359.6216">}</text><polygon fill="#181818" points="382,454.7852,372,458.7852,382,462.7852,378,458.7852" style="stroke:#181818;stroke-width:1.0;"/><line style="stroke:#181818;stroke-width:1.0;" x1="376" x2="910.5" y1="458.7852" y2="458.7852"/><text fill="#000000" font-family="sans-serif" font-size="13" font-weight="bold" lengthAdjust="spacing" textLength="9" x="388" y="453.7192">4</text><text fill="#000000" font-family="sans-serif" font-size="13" lengthAdjust="spacing" textLength="119" x="401" y="453.7192">Stream - response</text><path d="M175,401.8203 L175,501.8203 L366,501.8203 L366,411.8203 L356,401.8203 L175,401.8203 " fill="#FEFFDD" style="stroke:#181818;stroke-width:0.5;"/><path d="M356,401.8203 L356,411.8203 L366,411.8203 L356,401.8203 " fill="#FEFFDD" style="stroke:#181818;stroke-width:0.5;"/><text fill="#000000" font-family="sans-serif" font-size="13" lengthAdjust="spacing" textLength="9" x="181" y="418.8872">{</text><text fill="#000000" font-family="sans-serif" font-size="13" lengthAdjust="spacing" textLength="54" x="197" y="434.02">content:</text><text fill="#000000" font-family="sans-serif" font-size="13" lengthAdjust="spacing" textLength="138" x="213" y="449.1528">begin 644 image.jpeg</text><text fill="#000000" font-family="sans-serif" font-size="13" lengthAdjust="spacing" textLength="16" x="213" y="464.2856">....</text><text fill="#000000" font-family="sans-serif" font-size="13" lengthAdjust="spacing" textLength="24" x="213" y="479.4185">end</text><text fill="#000000" font-family="sans-serif" font-size="13" lengthAdjust="spacing" textLength="9" x="181" y="494.5513">}</text><!--SRC=[bL9HQnH137xVNn7cIH_kUYU7mYY2LWe7FWWjlaWfUpEvlSXkPfp9dfRI_svshgqTi5VDlimcNv8l-TAE4dWSDfYQndoYZgJjuU8dCPm6pkE0oS3iFPWrpxxYZboFKA7ECUt9eG4BPyJ-u_NQlp1U1hBPx-rfgmLQUuRetoxDIvX1mXyZPdcorxlPV_Kg5NFKT6mu24AFMscGXUJwWtEOyvgtmJOt3QYnqh5W9ZgcECZhxnDi2y1ZTecYK615NkmGN071La50dCaZX2r8YMo8vuSyP1y3iKpTFrCM2z-AVxARXzTaCGK9BlHQlalHcIeOelQQccSjOCubOJkOomeo9jBKdKYq9oVBLs_c2_sMThLOBEfQBh3WBtbcuCbko-kokTL5UfZMUlmsgj2N5FQwb3IfT23yIFKYKQ9k9tUA79IwEgh3Onfz2156JUhXhuJ0KzP16Ptaqk3OdVqBxxlRAjVpS5-rYcMnBBRQzWOxBVfwjG8QsWxdtoDs5M2kLZbqoERFzkz7_Wq0]--></g></svg>