<?xml version="1.0" encoding="us-ascii" standalone="no"?><svg xmlns="http://www.w3.org/2000/svg" xmlns:xlink="http://www.w3.org/1999/xlink" contentStyleType="text/css" height="552px" preserveAspectRatio="none" style="width:1249px;height:552px;background:#FFFFFF;" version="1.1" viewBox="0 0 1249 552" width="1249px" zoomAndPan="magnify"><defs/><g><line style="stroke:#181818;stroke-width:0.5;stroke-dasharray:5.0,5.0;" x1="424" x2="424" y1="36.2969" y2="517.6172"/><line style="stroke:#181818;stroke-width:0.5;stroke-dasharray:5.0,5.0;" x1="757.5" x2="757.5" y1="36.2969" y2="517.6172"/><line style="stroke:#181818;stroke-width:0.5;stroke-dasharray:5.0,5.0;" x1="964.5" x2="964.5" y1="36.2969" y2="517.6172"/><rect fill="#E2E2F0" height="30.2969" rx="2.5" ry="2.5" style="stroke:#181818;stroke-width:0.5;" width="174" x="337" y="5"/><text fill="#000000" font-family="sans-serif" font-size="14" lengthAdjust="spacing" textLength="160" x="344" y="24.9951">Digital Twin Consumer</text><rect fill="#E2E2F0" height="30.2969" rx="2.5" ry="2.5" style="stroke:#181818;stroke-width:0.5;" width="174" x="337" y="516.6172"/><text fill="#000000" font-family="sans-serif" font-size="14" lengthAdjust="spacing" textLength="160" x="344" y="536.6123">Digital Twin Consumer</text><rect fill="#E2E2F0" height="30.2969" rx="2.5" ry="2.5" style="stroke:#181818;stroke-width:0.5;" width="231" x="642.5" y="5"/><text fill="#000000" font-family="sans-serif" font-size="14" lengthAdjust="spacing" textLength="217" x="649.5" y="24.9951">In-Vehicle Digital Twin Service</text><rect fill="#E2E2F0" height="30.2969" rx="2.5" ry="2.5" style="stroke:#181818;stroke-width:0.5;" width="231" x="642.5" y="516.6172"/><text fill="#000000" font-family="sans-serif" font-size="14" lengthAdjust="spacing" textLength="217" x="649.5" y="536.6123">In-Vehicle Digital Twin Service</text><rect fill="#E2E2F0" height="30.2969" rx="2.5" ry="2.5" style="stroke:#181818;stroke-width:0.5;" width="162" x="883.5" y="5"/><text fill="#000000" font-family="sans-serif" font-size="14" lengthAdjust="spacing" textLength="148" x="890.5" y="24.9951">Digital Twin Provider</text><rect fill="#E2E2F0" height="30.2969" rx="2.5" ry="2.5" style="stroke:#181818;stroke-width:0.5;" width="162" x="883.5" y="516.6172"/><text fill="#000000" font-family="sans-serif" font-size="14" lengthAdjust="spacing" textLength="148" x="890.5" y="536.6123">Digital Twin Provider</text><polygon fill="#181818" points="746,63.4297,756,67.4297,746,71.4297,750,67.4297" style="stroke:#181818;stroke-width:1.0;"/><line style="stroke:#181818;stroke-width:1.0;" x1="424" x2="752" y1="67.4297" y2="67.4297"/><text fill="#000000" font-family="sans-serif" font-size="13" font-weight="bold" lengthAdjust="spacing" textLength="9" x="431" y="62.3638">1</text><text fill="#000000" font-family="sans-serif" font-size="13" lengthAdjust="spacing" textLength="297" x="444" y="62.3638">FindById("dtmi:sdv:Camera:Feed;1") - request</text><polygon fill="#181818" points="435,193.9258,425,197.9258,435,201.9258,431,197.9258" style="stroke:#181818;stroke-width:1.0;"/><line style="stroke:#181818;stroke-width:1.0;" x1="429" x2="757" y1="197.9258" y2="197.9258"/><text fill="#000000" font-family="sans-serif" font-size="13" font-weight="bold" lengthAdjust="spacing" textLength="9" x="441" y="192.8599">2</text><text fill="#000000" font-family="sans-serif" font-size="13" lengthAdjust="spacing" textLength="125" x="454" y="192.8599">FindById - response</text><path d="M5,80.4297 L5,301.4297 L419,301.4297 L419,90.4297 L409,80.4297 L5,80.4297 " fill="#FEFFDD" style="stroke:#181818;stroke-width:0.5;"/><path d="M409,80.4297 L409,90.4297 L419,90.4297 L409,80.4297 " fill="#FEFFDD" style="stroke:#181818;stroke-width:0.5;"/><text fill="#000000" font-family="sans-serif" font-size="13" lengthAdjust="spacing" textLength="111" x="11" y="97.4966">entityAccessInfo:</text><text fill="#000000" font-family="sans-serif" font-size="13" lengthAdjust="spacing" textLength="9" x="11" y="112.6294">{</text><text fill="#000000" font-family="sans-serif" font-size="13" lengthAdjust="spacing" textLength="87" x="27" y="127.7622">name: "Feed"</text><text fill="#000000" font-family="sans-serif" font-size="13" lengthAdjust="spacing" textLength="192" x="27" y="142.895">id: "dtmi:sdv:Camera:Feed;1"</text><text fill="#000000" font-family="sans-serif" font-size="13" lengthAdjust="spacing" textLength="377" x="27" y="158.0278">description: "The cabin camera's feed for inside the cabin."</text><text fill="#000000" font-family="sans-serif" font-size="13" lengthAdjust="spacing" textLength="116" x="27" y="173.1606">endpointInfoList: [</text><text fill="#000000" font-family="sans-serif" font-size="13" lengthAdjust="spacing" textLength="9" x="43" y="188.2935">{</text><text fill="#000000" font-family="sans-serif" font-size="13" lengthAdjust="spacing" textLength="99" x="59" y="203.4263">protocol: "grpc"</text><text fill="#000000" font-family="sans-serif" font-size="13" lengthAdjust="spacing" textLength="144" x="59" y="218.5591">operations: ["Stream"]</text><text fill="#000000" font-family="sans-serif" font-size="13" lengthAdjust="spacing" textLength="171" x="59" y="233.6919">uri: "http://127.0.0.1:4000"</text><text fill="#000000" font-family="sans-serif" font-size="13" lengthAdjust="spacing" textLength="230" x="59" y="248.8247">context: "dtmi:sdv:Camera:Feed;1"</text><text fill="#000000" font-family="sans-serif" font-size="13" lengthAdjust="spacing" textLength="9" x="43" y="263.9575">}</text><text fill="#000000" font-family="sans-serif" font-size="13" lengthAdjust="spacing" textLength="5" x="27" y="279.0903">]</text><text fill="#000000" font-family="sans-serif" font-size="13" lengthAdjust="spacing" textLength="9" x="11" y="294.2231">}</text><polygon fill="#181818" points="952.5,342.5547,962.5,346.5547,952.5,350.5547,956.5,346.5547" style="stroke:#181818;stroke-width:1.0;"/><line style="stroke:#181818;stroke-width:1.0;" x1="424" x2="958.5" y1="346.5547" y2="346.5547"/><text fill="#000000" font-family="sans-serif" font-size="13" font-weight="bold" lengthAdjust="spacing" textLength="8" x="431" y="341.4888">3</text><text fill="#000000" font-family="sans-serif" font-size="13" lengthAdjust="spacing" textLength="109" x="443" y="341.4888">Stream - request</text><path d="M969,312.2891 L969,367.2891 L1242,367.2891 L1242,322.2891 L1232,312.2891 L969,312.2891 " fill="#FEFFDD" style="stroke:#181818;stroke-width:0.5;"/><path d="M1232,312.2891 L1232,322.2891 L1242,322.2891 L1232,312.2891 " fill="#FEFFDD" style="stroke:#181818;stroke-width:0.5;"/><text fill="#000000" font-family="sans-serif" font-size="13" lengthAdjust="spacing" textLength="9" x="975" y="329.356">{</text><text fill="#000000" font-family="sans-serif" font-size="13" lengthAdjust="spacing" textLength="236" x="991" y="344.4888">entity_id: "dtmi:sdv:Camera:Feed;1"</text><text fill="#000000" font-family="sans-serif" font-size="13" lengthAdjust="spacing" textLength="9" x="975" y="359.6216">}</text><polygon fill="#181818" points="435,454.7852,425,458.7852,435,462.7852,431,458.7852" style="stroke:#181818;stroke-width:1.0;"/><line style="stroke:#181818;stroke-width:1.0;" x1="429" x2="963.5" y1="458.7852" y2="458.7852"/><text fill="#000000" font-family="sans-serif" font-size="13" font-weight="bold" lengthAdjust="spacing" textLength="9" x="441" y="453.7192">4</text><text fill="#000000" font-family="sans-serif" font-size="13" lengthAdjust="spacing" textLength="119" x="454" y="453.7192">Stream - response</text><path d="M228,401.8203 L228,501.8203 L419,501.8203 L419,411.8203 L409,401.8203 L228,401.8203 " fill="#FEFFDD" style="stroke:#181818;stroke-width:0.5;"/><path d="M409,401.8203 L409,411.8203 L419,411.8203 L409,401.8203 " fill="#FEFFDD" style="stroke:#181818;stroke-width:0.5;"/><text fill="#000000" font-family="sans-serif" font-size="13" lengthAdjust="spacing" textLength="9" x="234" y="418.8872">{</text><text fill="#000000" font-family="sans-serif" font-size="13" lengthAdjust="spacing" textLength="54" x="250" y="434.02">content:</text><text fill="#000000" font-family="sans-serif" font-size="13" lengthAdjust="spacing" textLength="138" x="266" y="449.1528">begin 644 image.jpeg</text><text fill="#000000" font-family="sans-serif" font-size="13" lengthAdjust="spacing" textLength="16" x="266" y="464.2856">....</text><text fill="#000000" font-family="sans-serif" font-size="13" lengthAdjust="spacing" textLength="24" x="266" y="479.4185">end</text><text fill="#000000" font-family="sans-serif" font-size="13" lengthAdjust="spacing" textLength="9" x="234" y="494.5513">}</text><!--SRC=[bL9DQnin4BtlhnXqQNFmLp0fAA7GfWGCEHGIUYachANnUigkf4gpRaB8V- -idAGMD4uoUz5ARsRUl3TrpzxrtGfZLQblr13NBLp_8GVdtgM-mwXWz1dKmer-u8PCYr2WhZ1koQ023HVaxDUxXVseB7UaaztgyreArFe2qPxEr16C8EBl7XE_sEjizAvUkM8AaewLyupGufehT4nyzyKOJ6dXrbvNznL8EA6ZGGrqLBuWAxyliCq0Yyb42apU2V9wWs3gbL0n6VeXmLh0iFOHo2Mo2Fm46UyAeBF1a-E1nYKbrl0ptmzn_tmQ8aJFtlXM-ZGn65Ky-Y3j1XP92gWhZbXtQbb0-aYIkc4EUZAP7NyQJ-MRwVbqEYrh6UyOR_cLoOTuoATbzI2AMXZqFRmanTFtwBUYI1pisX7Uipzx5QdPyACrEyjk3XgoJwFrFa0lIItybn1OIZAeGyCfDpYqS6_X_RXaUOsU5wrqCGlhM1Tghx2HeYVpEL1NDpZ-5R0f06E9uaA6hFwf_pJoNm00]--></g></svg>